M48
;Layer_Color=9474304
;FILE_FORMAT=2:5
INCH,LZ
;TYPE=NON_PLATED
T11F00S00C0.07087
T12F00S00C0.11811
T13F00S00C0.15669
T14F00S00C0.15748
%
T11
X0026158Y0035232
X0066158
X0063653Y0110232
X0103653
X0185537
X0225536
X0213659Y0035232
X0159909
X0119909
X0253659
X0260537Y0110232
X0300537
X0335537
X0375537
X0410537
X0450537
X0485537
X0525537
X0560537
X0534911Y0035232
X0494911
X0600537Y0110232
X0635537
X0675537
X0710537
X0750537
X0785537
X0825537
X0860537
X0841782Y0035232
X0806782
X0766782
X0881782
X0916782
X0956782
X0991782
X1031782
X1003654Y0110232
X0963654
X0900537
X1066782
X1106782
X1141782Y0110232
X1181782
Y0035232
X1141782
X1106782
X1066782
X1216782
X1256782
X1291782
X1331782
Y0110232
X1291782
X1256782
X1216782
X1366781Y0072636
X1406781
Y0222613
X1366781
X1331782Y0185232
X1291782
X1256782
X1216782
Y0260232
X1256782
X1291782
X1331782
X1181782
X1141782
X1088033Y0260227
X1048033
X1059906Y0185232
X1141782Y0185232
X1181782
X1019906Y0185232
X0938037
X0898037
X0879282Y0260227
X0919281
X0954282
X0994282
X0844281
X0804281
X0769281
X0729281
X0748037Y0185232
X0788037
X0823037
X0863037
X0713037
X0673037
X0638037
X0598037
X0579281Y0260227
X0619281
X0654281
X0694281
X0544281
X0504281
X0469281
X0429281
X0413037Y0185232
X0448037
X0488037
X0523037
X0563037
X0373037
X0338037
X0298037
X0263037
X0279281Y0260227
X0319281
X0354281
X0394281
X0244281
X0204281
X0169281
X0129281
X0148037Y0185232
X0188037
X0223037
X0084911
X0044911
X0035536Y0260227
X0075536
X0091783Y0335232
X0056783
X0016783
Y0410232
X0056783
X0091783
X0131783
X0166783
X0206783
X0241783
X0241783Y0335232
X0206783
X0166783
X0131783
X0281783
X0316783
X0356783
X0391783
X0391783Y0410232
X0356783
X0316783
X0281783
X0431783
X0466783
X0506783
X0541783
X0541783Y0335232
X0506783
X0466783
X0431783
X0581783
X0616783
X0656783
X0691783
X0691782Y0410232
X0656782
X0616783
X0581783
X0731782
X0766782
X0806782
X0841782
X0841783Y0335232
X0806783
X0766783
X0731783
X0881783
X0916783
X0956783
X1029282
X1031782Y0410232
X0991782
X0956782
X0916782
X0881782
X1066782
X1106782
X1141782Y0410232
X1181782
Y0335232
X1141782
X1069282
X1216782
X1256782
X1291782
X1331782
Y0410232
X1291782
X1256782
X1216782
X1366781Y0410232
X1406781
X1406782Y0335232
X1366782
T12
X0711765Y0007732
X0318062
X0036657Y0137732
X0130653
X0992906Y0157732
X1086902
X1414281Y0119632
Y0025636
Y0175613
Y0269609
X1096278Y0307732
X1002282
T13
X0036657Y0077732
X0130653
X0318062Y0067732
X0711765
X1354281Y0025636
Y0119632
Y0175613
Y0269609
X1086902Y0217732
X0992906
X1002282Y0367732
X1096278
T14
X0046158Y0035232
X0083653Y0110232
X0205537
X0233659Y0035232
X0139909
X0280537Y0110232
X0355537
X0430537
X0505537
X0514912Y0035232
X0580537Y0110232
X0655537
X0730537
X0805537
X0786782Y0035232
X0861782
X0936782
X1011782
X0983654Y0110232
X0880537
X1086782
Y0035232
X1161782
Y0110232
X1236782
X1311782
Y0035232
X1236782
X1386781Y0072636
Y0222613
X1311782Y0185232
X1236782
Y0260232
X1311782
X1161782
Y0185232
X1039906Y0185232
X1068033Y0260227
X0974282
X0899282
X0918037Y0185232
X0843037
X0768037
X0749281Y0260227
X0824281
X0674281
X0599281
X0618037Y0185232
X0693037
X0543037
X0468037
X0449281Y0260227
X0524281
X0374281
X0299281
X0318037Y0185232
X0393037
X0243037
X0168036
X0149281Y0260227
X0224281
X0055536
X0064911Y0185232
X0036783Y0335232
Y0410232
X0111783
X0186783
X0186783Y0335232
X0111783
X0261783
X0336783
X0336783Y0410232
X0261783
X0411783
X0486783
X0561783
X0561783Y0335232
X0486783
X0411783
X0636783
X0711783
X0711782Y0410232
X0636783
X0786782
X0861782
X0861783Y0335232
X0786783
X0936783
X0936782Y0410232
X1011782
X1086782
X1161782Y0410232
Y0335232
X1049282
X1236782
X1311782
Y0410232
X1236782
X1386781Y0410232
X1386782Y0335232
M30
