M48
;Layer_Color=9474304
;FILE_FORMAT=2:5
INCH,LZ
;TYPE=PLATED
T1F00S00C0.01575
T2F00S00C0.01600
T3F00S00C0.01968
T4F00S00C0.03150
T5F00S00C0.03543
T6F00S00C0.05118
T8F00S00C0.10630
T9F00S00C0.11024
%
T01
X0091131Y02698
X00744Y02978
T02
X1139Y0005
X0154815Y012795
X03851Y0090232
X0345537Y0049472
X0529912Y0055824
X0549444Y012155
X047335Y012475
X0458037Y012795
X0585
X0595601Y0052636
X0570537Y0022263
X0745537Y0022263
X0783037Y013755
X0870537
X0964282Y014075
X12067Y013435
X1226782Y013115
X1251782Y0124768
X12067Y0100232
X119035Y0090232
X1376781Y0250232
X13658Y02811
X13616Y0318432
X1301782Y0299018
X1251638Y0306238
X119035Y0288675
X1226782Y02031
X1326638Y023305
X1176782Y02031
X111885Y0240232
X1039282Y0240227
X0839281Y0285456
X0814281Y0298
X0795537Y03012
X0764138Y0279075
X0764281Y0232581
X0758037Y01972
X0614281
X0626783Y0240243
X06083Y02726
X05992Y0285375
X0548425Y0275875
X0539138Y0282288
X05214Y0288675
X05162Y0285475
X0447668Y0282275
X04421Y0279075
X0420537Y02329
X0476783
X03844Y0298
X03519Y0275967
X02719
X02615Y0247127
X0289281Y03012
X01951Y0298
X01576Y02726
X0164281Y02329
X01773Y01972
X0233037Y02329
X00985Y0233427
X01075Y02456
Y02208
X0101783Y03012
X00632Y02927
Y03119
Y03223
X0091131Y0225
X0070393Y03255
Y0363017
X00853Y0366217
X00785Y03796
X006765Y039795
X00998Y03534
X0151483Y0356617
X0201783Y0353417
X03056Y03534
X0351783Y03598
X0364281Y03916
X03946Y0347
X0289281Y0390232
X03082Y042205
X0440419Y042525
X0444356
X0448293
X045223
X0456167
Y0386454
X045223
X0448293
X0444356
X0440419
X0467978Y0369146
X0475852
X0487663
X0495537
X04916Y0390049
X0515222Y0386454
X0527033
X0521128Y03927
Y042205
X0527033
X0515222Y042525
X0533Y0341506
X0626783Y03577
X06841Y03481
X0701782Y03673
X0739281Y03609
X08907Y03481
X0926783Y03513
X095164Y03641
X0964282Y0354482
X1084213Y03513
X1151782
X11302Y0325232
X1226782Y03513
X12806Y03545
X12696Y0400232
X13506Y042055
T03
X0821779Y02937
X08267
X02526Y0225
Y0220079
X0108548Y02714
Y0275333
Y0279267
Y02832
X0103653
Y0279267
Y0275333
Y02714
T04
X0065389Y0430615
X0082711
T05
X0031783Y0430232
X0041783
X0106783
X0116783
X0181783
X0191783
X0256783
X0266783
T06
X0036158Y0015232
X0061159Y0025232
X0073653Y0090232
X0054911Y0165232
X0158036
X0233037
X0220536Y0100232
X0195536Y0090232
X0223659Y0015232
X0248659Y0025232
X0154909
X0129909Y0015232
X0098653Y0100232
X0270537Y0090232
X0295537Y0100232
X0345537Y0090232
X0370537Y0100232
X0383037Y0165232
X0308037
X0458037
X0533037
X0520537Y0100232
X0495537Y0090232
X0445537Y0100232
X0420537Y0090232
X0504912Y0015232
X0529912Y0025232
X0570537Y0090232
X0595537Y0100232
X0645537Y0090232
X0670537Y0100232
X0720537Y0090232
X0683037Y0165232
X0608037
X0758037
X0833037
X0820537Y0100232
X0795537Y0090232
X0745537Y0100232
X0776782Y0015232
X0801782Y0025232
X0851782Y0015232
X0876782Y0025232
X0870537Y0090232
X0895537Y0100232
X0908037Y0165232
X1029906
X0998654Y0100232
X0973654Y0090232
X0951782Y0025232
X0926782Y0015232
X1001782
X1026782Y0025232
X1076782Y0015232
X1101782Y0025232
X1151782Y0015232
X1176782Y0025232
Y0100232
X1151782Y0090232
X1101782Y0100232
X1076782Y0090232
X1151782Y0165232
X1226782
X1301782
Y0090232
X1326782Y0100232
X1251782
X1226782Y0090232
Y0015232
X1251782Y0025232
X1301782Y0015232
X1326782Y0025232
X1376781Y0052636
X1401781Y0062636
Y0212613
X1376781Y0202613
X1376782Y0315232
X1301782
X1226782
Y0240232
X1251782Y0250232
X1301782Y0240232
X1326782Y0250232
Y0175232
X1251782
X1176782
Y0250232
X1151782Y0240232
Y0315232
X1039282
X1058033Y0240227
X1083033Y0250227
X1054906Y0175232
X0933037
X0914281Y0250227
X0889281Y0240227
X0964282
X0989282Y0250227
X0926783Y0315232
X0851783
X0776783
X0764281Y0250227
X0739281Y0240227
X0814281
X0839281Y0250227
X0858037Y0175232
X0783037
X0708037
X0633037
X0614281Y0250227
X0589281Y0240227
X0664281
X0689281Y0250227
X0701783Y0315232
X0626783
X0551783
X0476783
X0464281Y0250227
X0439281Y0240227
X0514281
X0539281Y0250227
X0558037Y0175232
X0483037
X0408037
X0333037
X0258037
X0289281Y0240227
X0314281Y0250227
X0364281Y0240227
X0389281Y0250227
X0401783Y0315232
X0326783
X0251783
X0176783
X0101783
X0139281Y0240227
X0164281Y0250227
X0214281Y0240227
X0239281Y0250227
X0183036Y0175232
X0079911
X0070536Y0250227
X0045536Y0240227
X0026783Y0315232
X0051783Y0325232
Y0400232
X0026783Y0390232
X0101783
X0126783Y0400232
X0176783Y0390232
X0201783Y0400232
X0251783Y0390232
X0201783Y0325232
X0126783
X0276783
X0351783
X0351783Y0400232
X0326783Y0390232
X0276783Y0400232
X0401783Y0390232
X0426783Y0400232
X0476783Y0390232
X0501783Y0400232
X0551783Y0390232
X0501783Y0325232
X0426783
X0576783
X0651783
X0651783Y0400232
X0626783Y0390232
X0576783Y0400232
X0701782Y0390232
X0726782Y0400232
X0776782Y0390232
X0801782Y0400232
X0851782Y0390232
X0876782Y0400232
X0876783Y0325232
X0801783
X0726783
X0951783
X0951782Y0400232
X0926782Y0390232
X1001782
X1026782Y0400232
X1076782Y0390232
X1101782Y0400232
X1151782Y0390232
X1176782Y0400232
Y0325232
X1064282
X1251782
X1326782
Y0400232
X1301782Y0390232
X1251782Y0400232
X1226782Y0390232
X1376781Y0390232
X1401781Y0400232
X1401782Y0325232
T08
X0568665Y0146866
X0549909Y0221861
X043087Y0186236
X0412114Y0261231
X0674615Y0411236
X081241Y0371866
T09
X0711789Y0223556
M30
