G04 Layer_Color=2752767*
%FSLAX25Y25*%
%MOIN*%
G70*
G01*
G75*
%ADD71C,0.00200*%
%ADD72C,0.00267*%
%ADD73C,0.00133*%
D71*
X673815Y410436D02*
Y412036D01*
X675415D01*
Y410436D01*
X673815D01*
X811610Y371066D02*
Y372666D01*
X813210D01*
Y371066D01*
X811610D01*
X549109Y221061D02*
Y222661D01*
X550709D01*
Y221061D01*
X549109D01*
X567865Y146066D02*
Y147666D01*
X569465D01*
Y146066D01*
X567865D01*
X430070Y185436D02*
Y187036D01*
X431670D01*
Y185436D01*
X430070D01*
X411314Y260431D02*
Y262031D01*
X412914D01*
Y260431D01*
X411314D01*
X82711Y429815D02*
X81911Y431415D01*
X83511D01*
X82711Y429815D01*
X65389D02*
X64589Y431415D01*
X66189D01*
X65389Y429815D01*
X16235Y194275D02*
X16635Y194675D01*
X17035D01*
X16635Y195075D01*
X17035Y195475D01*
X16635D01*
X16235Y195875D01*
X15835Y195475D01*
X15435D01*
X15835Y195075D01*
X15435Y194675D01*
X15835D01*
X16235Y194275D01*
Y184432D02*
X16635Y184832D01*
X17035D01*
X16635Y185232D01*
X17035Y185632D01*
X16635D01*
X16235Y186032D01*
X15835Y185632D01*
X15435D01*
X15835Y185232D01*
X15435Y184832D01*
X15835D01*
X16235Y184432D01*
Y174590D02*
X16635Y174990D01*
X17035D01*
X16635Y175390D01*
X17035Y175790D01*
X16635D01*
X16235Y176190D01*
X15835Y175790D01*
X15435D01*
X15835Y175390D01*
X15435Y174990D01*
X15835D01*
X16235Y174590D01*
X28833Y174590D02*
X29233Y174990D01*
X29633D01*
X29233Y175390D01*
X29633Y175790D01*
X29233D01*
X28833Y176190D01*
X28433Y175790D01*
X28033D01*
X28433Y175390D01*
X28033Y174990D01*
X28433D01*
X28833Y174590D01*
Y184432D02*
X29233Y184832D01*
X29633D01*
X29233Y185232D01*
X29633Y185632D01*
X29233D01*
X28833Y186032D01*
X28433Y185632D01*
X28033D01*
X28433Y185232D01*
X28033Y184832D01*
X28433D01*
X28833Y184432D01*
Y194275D02*
X29233Y194675D01*
X29633D01*
X29233Y195075D01*
X29633Y195475D01*
X29233D01*
X28833Y195875D01*
X28433Y195475D01*
X28033D01*
X28433Y195075D01*
X28033Y194675D01*
X28433D01*
X28833Y194275D01*
X317262Y66932D02*
X317662Y67732D01*
X317262Y68532D01*
X318062Y68132D01*
X318862Y68532D01*
X318462Y67732D01*
X318862Y66932D01*
X318062Y67332D01*
X317262Y66932D01*
X317662Y7332D02*
Y6932D01*
X318462D01*
Y7332D01*
X318862D01*
Y8132D01*
X318462D01*
Y8532D01*
X317662D01*
Y8132D01*
X317262D01*
Y7332D01*
X317662D01*
X711365D02*
Y6932D01*
X712165D01*
Y7332D01*
X712565D01*
Y8132D01*
X712165D01*
Y8532D01*
X711365D01*
Y8132D01*
X710965D01*
Y7332D01*
X711365D01*
X710965Y66932D02*
X711365Y67732D01*
X710965Y68532D01*
X711765Y68132D01*
X712565Y68532D01*
X712165Y67732D01*
X712565Y66932D01*
X711765Y67332D01*
X710965Y66932D01*
X1413881Y269209D02*
Y268809D01*
X1414681D01*
Y269209D01*
X1415081D01*
Y270009D01*
X1414681D01*
Y270409D01*
X1413881D01*
Y270009D01*
X1413481D01*
Y269209D01*
X1413881D01*
X1353481Y268809D02*
X1353881Y269609D01*
X1353481Y270409D01*
X1354281Y270009D01*
X1355081Y270409D01*
X1354681Y269609D01*
X1355081Y268809D01*
X1354281Y269209D01*
X1353481Y268809D01*
Y174813D02*
X1353881Y175613D01*
X1353481Y176413D01*
X1354281Y176013D01*
X1355081Y176413D01*
X1354681Y175613D01*
X1355081Y174813D01*
X1354281Y175213D01*
X1353481Y174813D01*
X1413881Y175213D02*
Y174813D01*
X1414681D01*
Y175213D01*
X1415081D01*
Y176013D01*
X1414681D01*
Y176413D01*
X1413881D01*
Y176013D01*
X1413481D01*
Y175213D01*
X1413881D01*
Y119232D02*
Y118832D01*
X1414681D01*
Y119232D01*
X1415081D01*
Y120032D01*
X1414681D01*
Y120432D01*
X1413881D01*
Y120032D01*
X1413481D01*
Y119232D01*
X1413881D01*
X1353481Y118832D02*
X1353881Y119632D01*
X1353481Y120432D01*
X1354281Y120032D01*
X1355081Y120432D01*
X1354681Y119632D01*
X1355081Y118832D01*
X1354281Y119232D01*
X1353481Y118832D01*
Y24836D02*
X1353881Y25636D01*
X1353481Y26436D01*
X1354281Y26036D01*
X1355081Y26436D01*
X1354681Y25636D01*
X1355081Y24836D01*
X1354281Y25236D01*
X1353481Y24836D01*
X1413881Y25236D02*
Y24836D01*
X1414681D01*
Y25236D01*
X1415081D01*
Y26036D01*
X1414681D01*
Y26436D01*
X1413881D01*
Y26036D01*
X1413481D01*
Y25236D01*
X1413881D01*
X1095878Y307332D02*
Y306932D01*
X1096678D01*
Y307332D01*
X1097078D01*
Y308132D01*
X1096678D01*
Y308532D01*
X1095878D01*
Y308132D01*
X1095478D01*
Y307332D01*
X1095878D01*
X1095478Y366932D02*
X1095878Y367732D01*
X1095478Y368532D01*
X1096278Y368132D01*
X1097078Y368532D01*
X1096678Y367732D01*
X1097078Y366932D01*
X1096278Y367332D01*
X1095478Y366932D01*
X1001482D02*
X1001882Y367732D01*
X1001482Y368532D01*
X1002282Y368132D01*
X1003082Y368532D01*
X1002682Y367732D01*
X1003082Y366932D01*
X1002282Y367332D01*
X1001482Y366932D01*
X1001882Y307332D02*
Y306932D01*
X1002682D01*
Y307332D01*
X1003082D01*
Y308132D01*
X1002682D01*
Y308532D01*
X1001882D01*
Y308132D01*
X1001482D01*
Y307332D01*
X1001882D01*
X1086502Y157332D02*
Y156932D01*
X1087302D01*
Y157332D01*
X1087702D01*
Y158132D01*
X1087302D01*
Y158532D01*
X1086502D01*
Y158132D01*
X1086102D01*
Y157332D01*
X1086502D01*
X1086102Y216932D02*
X1086502Y217732D01*
X1086102Y218532D01*
X1086902Y218132D01*
X1087702Y218532D01*
X1087302Y217732D01*
X1087702Y216932D01*
X1086902Y217332D01*
X1086102Y216932D01*
X992106D02*
X992506Y217732D01*
X992106Y218532D01*
X992906Y218132D01*
X993706Y218532D01*
X993306Y217732D01*
X993706Y216932D01*
X992906Y217332D01*
X992106Y216932D01*
X992506Y157332D02*
Y156932D01*
X993306D01*
Y157332D01*
X993706D01*
Y158132D01*
X993306D01*
Y158532D01*
X992506D01*
Y158132D01*
X992106D01*
Y157332D01*
X992506D01*
X36257Y137332D02*
Y136932D01*
X37057D01*
Y137332D01*
X37457D01*
Y138132D01*
X37057D01*
Y138532D01*
X36257D01*
Y138132D01*
X35857D01*
Y137332D01*
X36257D01*
X35857Y76932D02*
X36257Y77732D01*
X35857Y78532D01*
X36657Y78132D01*
X37457Y78532D01*
X37057Y77732D01*
X37457Y76932D01*
X36657Y77332D01*
X35857Y76932D01*
X129853D02*
X130253Y77732D01*
X129853Y78532D01*
X130653Y78132D01*
X131453Y78532D01*
X131053Y77732D01*
X131453Y76932D01*
X130653Y77332D01*
X129853Y76932D01*
X130253Y137332D02*
Y136932D01*
X131053D01*
Y137332D01*
X131453D01*
Y138132D01*
X131053D01*
Y138532D01*
X130253D01*
Y138132D01*
X129853D01*
Y137332D01*
X130253D01*
X223481Y334433D02*
X223881D01*
X224281Y334833D01*
X224681Y334433D01*
X225081D01*
Y334833D01*
X224681Y335232D01*
X225081Y335632D01*
Y336033D01*
X224681D01*
X224281Y335632D01*
X223881Y336033D01*
X223481D01*
Y335632D01*
X223881Y335232D01*
X223481Y334833D01*
Y334433D01*
X270356Y71933D02*
X270756D01*
X271156Y72333D01*
X271555Y71933D01*
X271955D01*
Y72333D01*
X271555Y72733D01*
X271955Y73132D01*
Y73532D01*
X271555D01*
X271156Y73132D01*
X270756Y73532D01*
X270356D01*
Y73132D01*
X270756Y72733D01*
X270356Y72333D01*
Y71933D01*
X710989Y223556D02*
X711789Y224356D01*
X712589Y223556D01*
X711789Y222756D01*
X710989Y223556D01*
X1123482Y71933D02*
X1123882D01*
X1124282Y72333D01*
X1124682Y71933D01*
X1125082D01*
Y72333D01*
X1124682Y72733D01*
X1125082Y73132D01*
Y73532D01*
X1124682D01*
X1124282Y73132D01*
X1123882Y73532D01*
X1123482D01*
Y73132D01*
X1123882Y72733D01*
X1123482Y72333D01*
Y71933D01*
X1198482Y334433D02*
X1198882D01*
X1199282Y334833D01*
X1199682Y334433D01*
X1200082D01*
Y334833D01*
X1199682Y335232D01*
X1200082Y335632D01*
Y336033D01*
X1199682D01*
X1199282Y335632D01*
X1198882Y336033D01*
X1198482D01*
Y335632D01*
X1198882Y335232D01*
X1198482Y334833D01*
Y334433D01*
X9067Y146919D02*
X9467D01*
X9867Y147319D01*
X10267Y146919D01*
X10667D01*
Y147319D01*
X10267Y147719D01*
X10667Y148119D01*
Y148519D01*
X10267D01*
X9867Y148119D01*
X9467Y148519D01*
X9067D01*
Y148119D01*
X9467Y147719D01*
X9067Y147319D01*
Y146919D01*
Y296930D02*
X9467D01*
X9867Y297330D01*
X10267Y296930D01*
X10667D01*
Y297330D01*
X10267Y297730D01*
X10667Y298130D01*
Y298530D01*
X10267D01*
X9867Y298130D01*
X9467Y298530D01*
X9067D01*
Y298130D01*
X9467Y297730D01*
X9067Y297330D01*
Y296930D01*
X1412909Y146922D02*
X1413309D01*
X1413709Y147322D01*
X1414109Y146922D01*
X1414509D01*
Y147322D01*
X1414109Y147722D01*
X1414509Y148122D01*
Y148522D01*
X1414109D01*
X1413709Y148122D01*
X1413309Y148522D01*
X1412909D01*
Y148122D01*
X1413309Y147722D01*
X1412909Y147322D01*
Y146922D01*
Y295621D02*
X1413309D01*
X1413709Y296021D01*
X1414109Y295621D01*
X1414509D01*
Y296021D01*
X1414109Y296421D01*
X1414509Y296821D01*
Y297221D01*
X1414109D01*
X1413709Y296821D01*
X1413309Y297221D01*
X1412909D01*
Y296821D01*
X1413309Y296421D01*
X1412909Y296021D01*
Y295621D01*
X955982Y34432D02*
Y36032D01*
X957582D01*
Y34432D01*
X955982D01*
X956382Y34832D02*
Y35632D01*
X957182D01*
Y34832D01*
X956382D01*
X915982Y34432D02*
Y36032D01*
X917582D01*
Y34432D01*
X915982D01*
X916382Y34832D02*
Y35632D01*
X917182D01*
Y34832D01*
X916382D01*
X936782Y34432D02*
X935982Y36032D01*
X937582D01*
X936782Y34432D01*
Y34832D02*
X936382Y35632D01*
X937182D01*
X936782Y34832D01*
X805982Y34432D02*
Y36032D01*
X807582D01*
Y34432D01*
X805982D01*
X806382Y34832D02*
Y35632D01*
X807182D01*
Y34832D01*
X806382D01*
X765982Y34432D02*
Y36032D01*
X767582D01*
Y34432D01*
X765982D01*
X766382Y34832D02*
Y35632D01*
X767182D01*
Y34832D01*
X766382D01*
X786782Y34432D02*
X785982Y36032D01*
X787582D01*
X786782Y34432D01*
Y34832D02*
X786382Y35632D01*
X787182D01*
X786782Y34832D01*
X955983Y334432D02*
Y336032D01*
X957583D01*
Y334432D01*
X955983D01*
X956383Y334832D02*
Y335632D01*
X957183D01*
Y334832D01*
X956383D01*
X915983Y334432D02*
Y336032D01*
X917583D01*
Y334432D01*
X915983D01*
X916383Y334832D02*
Y335632D01*
X917183D01*
Y334832D01*
X916383D01*
X936783Y334432D02*
X935983Y336032D01*
X937583D01*
X936783Y334432D01*
Y334832D02*
X936383Y335632D01*
X937183D01*
X936783Y334832D01*
X880983Y334432D02*
Y336032D01*
X882583D01*
Y334432D01*
X880983D01*
X881383Y334832D02*
Y335632D01*
X882183D01*
Y334832D01*
X881383D01*
X840983Y334432D02*
Y336032D01*
X842583D01*
Y334432D01*
X840983D01*
X841383Y334832D02*
Y335632D01*
X842183D01*
Y334832D01*
X841383D01*
X861783Y334432D02*
X860983Y336032D01*
X862583D01*
X861783Y334432D01*
Y334832D02*
X861383Y335632D01*
X862183D01*
X861783Y334832D01*
X824737Y109432D02*
Y111032D01*
X826337D01*
Y109432D01*
X824737D01*
X825137Y109832D02*
Y110632D01*
X825937D01*
Y109832D01*
X825137D01*
X784737Y109432D02*
Y111032D01*
X786337D01*
Y109432D01*
X784737D01*
X785137Y109832D02*
Y110632D01*
X785937D01*
Y109832D01*
X785137D01*
X805537Y109432D02*
X804737Y111032D01*
X806337D01*
X805537Y109432D01*
Y109832D02*
X805137Y110632D01*
X805937D01*
X805537Y109832D01*
X899737Y109432D02*
Y111032D01*
X901337D01*
Y109432D01*
X899737D01*
X900137Y109832D02*
Y110632D01*
X900937D01*
Y109832D01*
X900137D01*
X859737Y109432D02*
Y111032D01*
X861337D01*
Y109432D01*
X859737D01*
X860137Y109832D02*
Y110632D01*
X860937D01*
Y109832D01*
X860137D01*
X880537Y109432D02*
X879737Y111032D01*
X881337D01*
X880537Y109432D01*
Y109832D02*
X880137Y110632D01*
X880937D01*
X880537Y109832D01*
X805983Y334432D02*
Y336032D01*
X807583D01*
Y334432D01*
X805983D01*
X806383Y334832D02*
Y335632D01*
X807183D01*
Y334832D01*
X806383D01*
X765983Y334432D02*
Y336032D01*
X767583D01*
Y334432D01*
X765983D01*
X766383Y334832D02*
Y335632D01*
X767183D01*
Y334832D01*
X766383D01*
X786783Y334432D02*
X785983Y336032D01*
X787583D01*
X786783Y334432D01*
Y334832D02*
X786383Y335632D01*
X787183D01*
X786783Y334832D01*
X130983Y334432D02*
Y336032D01*
X132583D01*
Y334432D01*
X130983D01*
X131383Y334832D02*
Y335632D01*
X132183D01*
Y334832D01*
X131383D01*
X90983Y334432D02*
Y336032D01*
X92583D01*
Y334432D01*
X90983D01*
X91383Y334832D02*
Y335632D01*
X92183D01*
Y334832D01*
X91383D01*
X111783Y334432D02*
X110983Y336032D01*
X112583D01*
X111783Y334432D01*
Y334832D02*
X111383Y335632D01*
X112183D01*
X111783Y334832D01*
X205983Y334432D02*
Y336032D01*
X207583D01*
Y334432D01*
X205983D01*
X206383Y334832D02*
Y335632D01*
X207183D01*
Y334832D01*
X206383D01*
X165983Y334432D02*
Y336032D01*
X167583D01*
Y334432D01*
X165983D01*
X166383Y334832D02*
Y335632D01*
X167183D01*
Y334832D01*
X166383D01*
X186783Y334432D02*
X185983Y336032D01*
X187583D01*
X186783Y334432D01*
Y334832D02*
X186383Y335632D01*
X187183D01*
X186783Y334832D01*
X280983Y334432D02*
Y336032D01*
X282583D01*
Y334432D01*
X280983D01*
X281383Y334832D02*
Y335632D01*
X282183D01*
Y334832D01*
X281383D01*
X240983Y334432D02*
Y336032D01*
X242583D01*
Y334432D01*
X240983D01*
X241383Y334832D02*
Y335632D01*
X242183D01*
Y334832D01*
X241383D01*
X261783Y334432D02*
X260983Y336032D01*
X262583D01*
X261783Y334432D01*
Y334832D02*
X261383Y335632D01*
X262183D01*
X261783Y334832D01*
X355983Y334432D02*
Y336032D01*
X357583D01*
Y334432D01*
X355983D01*
X356383Y334832D02*
Y335632D01*
X357183D01*
Y334832D01*
X356383D01*
X315983Y334432D02*
Y336032D01*
X317583D01*
Y334432D01*
X315983D01*
X316383Y334832D02*
Y335632D01*
X317183D01*
Y334832D01*
X316383D01*
X336783Y334432D02*
X335983Y336032D01*
X337583D01*
X336783Y334432D01*
Y334832D02*
X336383Y335632D01*
X337183D01*
X336783Y334832D01*
X430983Y334432D02*
Y336032D01*
X432583D01*
Y334432D01*
X430983D01*
X431383Y334832D02*
Y335632D01*
X432183D01*
Y334832D01*
X431383D01*
X390983Y334432D02*
Y336032D01*
X392583D01*
Y334432D01*
X390983D01*
X391383Y334832D02*
Y335632D01*
X392183D01*
Y334832D01*
X391383D01*
X411783Y334432D02*
X410983Y336032D01*
X412583D01*
X411783Y334432D01*
Y334832D02*
X411383Y335632D01*
X412183D01*
X411783Y334832D01*
X505983Y334432D02*
Y336032D01*
X507583D01*
Y334432D01*
X505983D01*
X506383Y334832D02*
Y335632D01*
X507183D01*
Y334832D01*
X506383D01*
X465983Y334432D02*
Y336032D01*
X467583D01*
Y334432D01*
X465983D01*
X466383Y334832D02*
Y335632D01*
X467183D01*
Y334832D01*
X466383D01*
X486783Y334432D02*
X485983Y336032D01*
X487583D01*
X486783Y334432D01*
Y334832D02*
X486383Y335632D01*
X487183D01*
X486783Y334832D01*
X580983Y334432D02*
Y336032D01*
X582583D01*
Y334432D01*
X580983D01*
X581383Y334832D02*
Y335632D01*
X582183D01*
Y334832D01*
X581383D01*
X540983Y334432D02*
Y336032D01*
X542583D01*
Y334432D01*
X540983D01*
X541383Y334832D02*
Y335632D01*
X542183D01*
Y334832D01*
X541383D01*
X561783Y334432D02*
X560983Y336032D01*
X562583D01*
X561783Y334432D01*
Y334832D02*
X561383Y335632D01*
X562183D01*
X561783Y334832D01*
X655983Y334432D02*
Y336032D01*
X657583D01*
Y334432D01*
X655983D01*
X656383Y334832D02*
Y335632D01*
X657183D01*
Y334832D01*
X656383D01*
X615983Y334432D02*
Y336032D01*
X617583D01*
Y334432D01*
X615983D01*
X616383Y334832D02*
Y335632D01*
X617183D01*
Y334832D01*
X616383D01*
X636783Y334432D02*
X635983Y336032D01*
X637583D01*
X636783Y334432D01*
Y334832D02*
X636383Y335632D01*
X637183D01*
X636783Y334832D01*
X730983Y334432D02*
Y336032D01*
X732583D01*
Y334432D01*
X730983D01*
X731383Y334832D02*
Y335632D01*
X732183D01*
Y334832D01*
X731383D01*
X690983Y334432D02*
Y336032D01*
X692583D01*
Y334432D01*
X690983D01*
X691383Y334832D02*
Y335632D01*
X692183D01*
Y334832D01*
X691383D01*
X711783Y334432D02*
X710983Y336032D01*
X712583D01*
X711783Y334432D01*
Y334832D02*
X711383Y335632D01*
X712183D01*
X711783Y334832D01*
X918482Y259427D02*
Y261027D01*
X920082D01*
Y259427D01*
X918482D01*
X918882Y259827D02*
Y260627D01*
X919681D01*
Y259827D01*
X918882D01*
X878481Y259427D02*
Y261027D01*
X880081D01*
Y259427D01*
X878481D01*
X878881Y259827D02*
Y260627D01*
X879681D01*
Y259827D01*
X878881D01*
X899282Y259427D02*
X898481Y261027D01*
X900082D01*
X899282Y259427D01*
Y259827D02*
X898882Y260627D01*
X899681D01*
X899282Y259827D01*
X1087233Y259427D02*
Y261027D01*
X1088833D01*
Y259427D01*
X1087233D01*
X1087633Y259827D02*
Y260627D01*
X1088433D01*
Y259827D01*
X1087633D01*
X1047233Y259427D02*
Y261027D01*
X1048833D01*
Y259427D01*
X1047233D01*
X1047633Y259827D02*
Y260627D01*
X1048433D01*
Y259827D01*
X1047633D01*
X1068033Y259427D02*
X1067233Y261027D01*
X1068833D01*
X1068033Y259427D01*
Y259827D02*
X1067633Y260627D01*
X1068433D01*
X1068033Y259827D01*
X993482Y259427D02*
Y261027D01*
X995082D01*
Y259427D01*
X993482D01*
X993882Y259827D02*
Y260627D01*
X994682D01*
Y259827D01*
X993882D01*
X953482Y259427D02*
Y261027D01*
X955082D01*
Y259427D01*
X953482D01*
X953882Y259827D02*
Y260627D01*
X954682D01*
Y259827D01*
X953882D01*
X974282Y259427D02*
X973482Y261027D01*
X975082D01*
X974282Y259427D01*
Y259827D02*
X973882Y260627D01*
X974682D01*
X974282Y259827D01*
X252859Y34432D02*
Y36032D01*
X254459D01*
Y34432D01*
X252859D01*
X253259Y34832D02*
Y35632D01*
X254059D01*
Y34832D01*
X253259D01*
X212859Y34432D02*
Y36032D01*
X214459D01*
Y34432D01*
X212859D01*
X213259Y34832D02*
Y35632D01*
X214059D01*
Y34832D01*
X213259D01*
X233659Y34432D02*
X232859Y36032D01*
X234459D01*
X233659Y34432D01*
Y34832D02*
X233259Y35632D01*
X234059D01*
X233659Y34832D01*
X187236Y184432D02*
Y186032D01*
X188837D01*
Y184432D01*
X187236D01*
X187636Y184832D02*
Y185632D01*
X188436D01*
Y184832D01*
X187636D01*
X147237Y184432D02*
Y186032D01*
X148837D01*
Y184432D01*
X147237D01*
X147636Y184832D02*
Y185632D01*
X148436D01*
Y184832D01*
X147636D01*
X168036Y184432D02*
X167236Y186032D01*
X168836D01*
X168036Y184432D01*
Y184832D02*
X167637Y185632D01*
X168437D01*
X168036Y184832D01*
X1068482Y334432D02*
Y336032D01*
X1070082D01*
Y334432D01*
X1068482D01*
X1068882Y334832D02*
Y335632D01*
X1069682D01*
Y334832D01*
X1068882D01*
X1028482Y334432D02*
Y336032D01*
X1030082D01*
Y334432D01*
X1028482D01*
X1028882Y334832D02*
Y335632D01*
X1029682D01*
Y334832D01*
X1028882D01*
X1049282Y334432D02*
X1048482Y336032D01*
X1050082D01*
X1049282Y334432D01*
Y334832D02*
X1048882Y335632D01*
X1049682D01*
X1049282Y334832D01*
X524737Y109432D02*
Y111032D01*
X526337D01*
Y109432D01*
X524737D01*
X525137Y109832D02*
Y110632D01*
X525937D01*
Y109832D01*
X525137D01*
X484737Y109432D02*
Y111032D01*
X486337D01*
Y109432D01*
X484737D01*
X485137Y109832D02*
Y110632D01*
X485937D01*
Y109832D01*
X485137D01*
X505537Y109432D02*
X504737Y111032D01*
X506337D01*
X505537Y109432D01*
Y109832D02*
X505137Y110632D01*
X505937D01*
X505537Y109832D01*
X84111Y184432D02*
Y186032D01*
X85711D01*
Y184432D01*
X84111D01*
X84511Y184832D02*
Y185632D01*
X85311D01*
Y184832D01*
X84511D01*
X44111Y184432D02*
Y186032D01*
X45711D01*
Y184432D01*
X44111D01*
X44511Y184832D02*
Y185632D01*
X45311D01*
Y184832D01*
X44511D01*
X64911Y184432D02*
X64111Y186032D01*
X65711D01*
X64911Y184432D01*
Y184832D02*
X64511Y185632D01*
X65311D01*
X64911Y184832D01*
X374737Y109432D02*
Y111032D01*
X376337D01*
Y109432D01*
X374737D01*
X375137Y109832D02*
Y110632D01*
X375937D01*
Y109832D01*
X375137D01*
X334737Y109432D02*
Y111032D01*
X336337D01*
Y109432D01*
X334737D01*
X335137Y109832D02*
Y110632D01*
X335937D01*
Y109832D01*
X335137D01*
X355537Y109432D02*
X354737Y111032D01*
X356337D01*
X355537Y109432D01*
Y109832D02*
X355137Y110632D01*
X355937D01*
X355537Y109832D01*
X65359Y34432D02*
Y36032D01*
X66958D01*
Y34432D01*
X65359D01*
X65759Y34832D02*
Y35632D01*
X66558D01*
Y34832D01*
X65759D01*
X25359Y34432D02*
Y36032D01*
X26959D01*
Y34432D01*
X25359D01*
X25758Y34832D02*
Y35632D01*
X26559D01*
Y34832D01*
X25758D01*
X46158Y34432D02*
X45358Y36032D01*
X46959D01*
X46158Y34432D01*
Y34832D02*
X45759Y35632D01*
X46558D01*
X46158Y34832D01*
X1105982Y409432D02*
Y411032D01*
X1107582D01*
Y409432D01*
X1105982D01*
X1106382Y409832D02*
Y410632D01*
X1107182D01*
Y409832D01*
X1106382D01*
X1065982Y409432D02*
Y411032D01*
X1067582D01*
Y409432D01*
X1065982D01*
X1066382Y409832D02*
Y410632D01*
X1067182D01*
Y409832D01*
X1066382D01*
X1086782Y409432D02*
X1085982Y411032D01*
X1087582D01*
X1086782Y409432D01*
Y409832D02*
X1086382Y410632D01*
X1087182D01*
X1086782Y409832D01*
X1105982Y34432D02*
Y36032D01*
X1107582D01*
Y34432D01*
X1105982D01*
X1106382Y34832D02*
Y35632D01*
X1107182D01*
Y34832D01*
X1106382D01*
X1065982Y34432D02*
Y36032D01*
X1067582D01*
Y34432D01*
X1065982D01*
X1066382Y34832D02*
Y35632D01*
X1067182D01*
Y34832D01*
X1066382D01*
X1086782Y34432D02*
X1085982Y36032D01*
X1087582D01*
X1086782Y34432D01*
Y34832D02*
X1086382Y35632D01*
X1087182D01*
X1086782Y34832D01*
X337237Y184432D02*
Y186032D01*
X338837D01*
Y184432D01*
X337237D01*
X337637Y184832D02*
Y185632D01*
X338437D01*
Y184832D01*
X337637D01*
X297237Y184432D02*
Y186032D01*
X298837D01*
Y184432D01*
X297237D01*
X297637Y184832D02*
Y185632D01*
X298437D01*
Y184832D01*
X297637D01*
X318037Y184432D02*
X317237Y186032D01*
X318837D01*
X318037Y184432D01*
Y184832D02*
X317637Y185632D01*
X318437D01*
X318037Y184832D01*
X1255982Y409432D02*
Y411032D01*
X1257582D01*
Y409432D01*
X1255982D01*
X1256382Y409832D02*
Y410632D01*
X1257182D01*
Y409832D01*
X1256382D01*
X1215982Y409432D02*
Y411032D01*
X1217582D01*
Y409432D01*
X1215982D01*
X1216382Y409832D02*
Y410632D01*
X1217182D01*
Y409832D01*
X1216382D01*
X1236782Y409432D02*
X1235982Y411032D01*
X1237582D01*
X1236782Y409432D01*
Y409832D02*
X1236382Y410632D01*
X1237182D01*
X1236782Y409832D01*
X1059106Y184432D02*
Y186032D01*
X1060706D01*
Y184432D01*
X1059106D01*
X1059506Y184832D02*
Y185632D01*
X1060306D01*
Y184832D01*
X1059506D01*
X1019106Y184432D02*
Y186032D01*
X1020706D01*
Y184432D01*
X1019106D01*
X1019506Y184832D02*
Y185632D01*
X1020306D01*
Y184832D01*
X1019506D01*
X1039906Y184432D02*
X1039106Y186032D01*
X1040706D01*
X1039906Y184432D01*
Y184832D02*
X1039506Y185632D01*
X1040306D01*
X1039906Y184832D01*
X55983Y409432D02*
Y411032D01*
X57583D01*
Y409432D01*
X55983D01*
X56383Y409832D02*
Y410632D01*
X57183D01*
Y409832D01*
X56383D01*
X15983Y409432D02*
Y411032D01*
X17583D01*
Y409432D01*
X15983D01*
X16383Y409832D02*
Y410632D01*
X17183D01*
Y409832D01*
X16383D01*
X31783Y429432D02*
X32183Y429832D01*
X32583D01*
X32183Y430232D01*
X32583Y430632D01*
X32183D01*
X31783Y431032D01*
X31383Y430632D01*
X30983D01*
X31383Y430232D01*
X30983Y429832D01*
X31383D01*
X31783Y429432D01*
Y429832D02*
X31983Y430032D01*
X32183D01*
X31983Y430232D01*
X32183Y430432D01*
X31983D01*
X31783Y430632D01*
X31583Y430432D01*
X31383D01*
X31583Y430232D01*
X31383Y430032D01*
X31583D01*
X31783Y429832D01*
X41783Y429432D02*
X42183Y429832D01*
X42583D01*
X42183Y430232D01*
X42583Y430632D01*
X42183D01*
X41783Y431032D01*
X41383Y430632D01*
X40983D01*
X41383Y430232D01*
X40983Y429832D01*
X41383D01*
X41783Y429432D01*
Y429832D02*
X41983Y430032D01*
X42183D01*
X41983Y430232D01*
X42183Y430432D01*
X41983D01*
X41783Y430632D01*
X41583Y430432D01*
X41383D01*
X41583Y430232D01*
X41383Y430032D01*
X41583D01*
X41783Y429832D01*
X36783Y409432D02*
X35983Y411032D01*
X37583D01*
X36783Y409432D01*
Y409832D02*
X36383Y410632D01*
X37183D01*
X36783Y409832D01*
X318481Y259427D02*
Y261027D01*
X320081D01*
Y259427D01*
X318481D01*
X318881Y259827D02*
Y260627D01*
X319681D01*
Y259827D01*
X318881D01*
X278481Y259427D02*
Y261027D01*
X280081D01*
Y259427D01*
X278481D01*
X278881Y259827D02*
Y260627D01*
X279681D01*
Y259827D01*
X278881D01*
X299281Y259427D02*
X298481Y261027D01*
X300081D01*
X299281Y259427D01*
Y259827D02*
X298881Y260627D01*
X299681D01*
X299281Y259827D01*
X130983Y409432D02*
Y411032D01*
X132583D01*
Y409432D01*
X130983D01*
X131383Y409832D02*
Y410632D01*
X132183D01*
Y409832D01*
X131383D01*
X90983Y409432D02*
Y411032D01*
X92583D01*
Y409432D01*
X90983D01*
X91383Y409832D02*
Y410632D01*
X92183D01*
Y409832D01*
X91383D01*
X106783Y429432D02*
X107183Y429832D01*
X107583D01*
X107183Y430232D01*
X107583Y430632D01*
X107183D01*
X106783Y431032D01*
X106383Y430632D01*
X105983D01*
X106383Y430232D01*
X105983Y429832D01*
X106383D01*
X106783Y429432D01*
Y429832D02*
X106983Y430032D01*
X107183D01*
X106983Y430232D01*
X107183Y430432D01*
X106983D01*
X106783Y430632D01*
X106583Y430432D01*
X106383D01*
X106583Y430232D01*
X106383Y430032D01*
X106583D01*
X106783Y429832D01*
X116783Y429432D02*
X117183Y429832D01*
X117583D01*
X117183Y430232D01*
X117583Y430632D01*
X117183D01*
X116783Y431032D01*
X116383Y430632D01*
X115983D01*
X116383Y430232D01*
X115983Y429832D01*
X116383D01*
X116783Y429432D01*
Y429832D02*
X116983Y430032D01*
X117183D01*
X116983Y430232D01*
X117183Y430432D01*
X116983D01*
X116783Y430632D01*
X116583Y430432D01*
X116383D01*
X116583Y430232D01*
X116383Y430032D01*
X116583D01*
X116783Y429832D01*
X111783Y409432D02*
X110983Y411032D01*
X112583D01*
X111783Y409432D01*
Y409832D02*
X111383Y410632D01*
X112183D01*
X111783Y409832D01*
X205983Y409432D02*
Y411032D01*
X207583D01*
Y409432D01*
X205983D01*
X206383Y409832D02*
Y410632D01*
X207183D01*
Y409832D01*
X206383D01*
X165983Y409432D02*
Y411032D01*
X167583D01*
Y409432D01*
X165983D01*
X166383Y409832D02*
Y410632D01*
X167183D01*
Y409832D01*
X166383D01*
X181783Y429432D02*
X182183Y429832D01*
X182583D01*
X182183Y430232D01*
X182583Y430632D01*
X182183D01*
X181783Y431032D01*
X181383Y430632D01*
X180983D01*
X181383Y430232D01*
X180983Y429832D01*
X181383D01*
X181783Y429432D01*
Y429832D02*
X181983Y430032D01*
X182183D01*
X181983Y430232D01*
X182183Y430432D01*
X181983D01*
X181783Y430632D01*
X181583Y430432D01*
X181383D01*
X181583Y430232D01*
X181383Y430032D01*
X181583D01*
X181783Y429832D01*
X191783Y429432D02*
X192183Y429832D01*
X192583D01*
X192183Y430232D01*
X192583Y430632D01*
X192183D01*
X191783Y431032D01*
X191383Y430632D01*
X190983D01*
X191383Y430232D01*
X190983Y429832D01*
X191383D01*
X191783Y429432D01*
Y429832D02*
X191983Y430032D01*
X192183D01*
X191983Y430232D01*
X192183Y430432D01*
X191983D01*
X191783Y430632D01*
X191583Y430432D01*
X191383D01*
X191583Y430232D01*
X191383Y430032D01*
X191583D01*
X191783Y429832D01*
X186783Y409432D02*
X185983Y411032D01*
X187583D01*
X186783Y409432D01*
Y409832D02*
X186383Y410632D01*
X187183D01*
X186783Y409832D01*
X280983Y409432D02*
Y411032D01*
X282583D01*
Y409432D01*
X280983D01*
X281383Y409832D02*
Y410632D01*
X282183D01*
Y409832D01*
X281383D01*
X240983Y409432D02*
Y411032D01*
X242583D01*
Y409432D01*
X240983D01*
X241383Y409832D02*
Y410632D01*
X242183D01*
Y409832D01*
X241383D01*
X256783Y429432D02*
X257183Y429832D01*
X257583D01*
X257183Y430232D01*
X257583Y430632D01*
X257183D01*
X256783Y431032D01*
X256383Y430632D01*
X255983D01*
X256383Y430232D01*
X255983Y429832D01*
X256383D01*
X256783Y429432D01*
Y429832D02*
X256983Y430032D01*
X257183D01*
X256983Y430232D01*
X257183Y430432D01*
X256983D01*
X256783Y430632D01*
X256583Y430432D01*
X256383D01*
X256583Y430232D01*
X256383Y430032D01*
X256583D01*
X256783Y429832D01*
X266783Y429432D02*
X267183Y429832D01*
X267583D01*
X267183Y430232D01*
X267583Y430632D01*
X267183D01*
X266783Y431032D01*
X266383Y430632D01*
X265983D01*
X266383Y430232D01*
X265983Y429832D01*
X266383D01*
X266783Y429432D01*
Y429832D02*
X266983Y430032D01*
X267183D01*
X266983Y430232D01*
X267183Y430432D01*
X266983D01*
X266783Y430632D01*
X266583Y430432D01*
X266383D01*
X266583Y430232D01*
X266383Y430032D01*
X266583D01*
X266783Y429832D01*
X261783Y409432D02*
X260983Y411032D01*
X262583D01*
X261783Y409432D01*
Y409832D02*
X261383Y410632D01*
X262183D01*
X261783Y409832D01*
X355983Y409432D02*
Y411032D01*
X357583D01*
Y409432D01*
X355983D01*
X356383Y409832D02*
Y410632D01*
X357183D01*
Y409832D01*
X356383D01*
X315983Y409432D02*
Y411032D01*
X317583D01*
Y409432D01*
X315983D01*
X316383Y409832D02*
Y410632D01*
X317183D01*
Y409832D01*
X316383D01*
X336783Y409432D02*
X335983Y411032D01*
X337583D01*
X336783Y409432D01*
Y409832D02*
X336383Y410632D01*
X337183D01*
X336783Y409832D01*
X430983Y409432D02*
Y411032D01*
X432583D01*
Y409432D01*
X430983D01*
X431383Y409832D02*
Y410632D01*
X432183D01*
Y409832D01*
X431383D01*
X390983Y409432D02*
Y411032D01*
X392583D01*
Y409432D01*
X390983D01*
X391383Y409832D02*
Y410632D01*
X392183D01*
Y409832D01*
X391383D01*
X411783Y409432D02*
X410983Y411032D01*
X412583D01*
X411783Y409432D01*
Y409832D02*
X411383Y410632D01*
X412183D01*
X411783Y409832D01*
X505983Y409432D02*
Y411032D01*
X507583D01*
Y409432D01*
X505983D01*
X506383Y409832D02*
Y410632D01*
X507183D01*
Y409832D01*
X506383D01*
X465983Y409432D02*
Y411032D01*
X467583D01*
Y409432D01*
X465983D01*
X466383Y409832D02*
Y410632D01*
X467183D01*
Y409832D01*
X466383D01*
X486783Y409432D02*
X485983Y411032D01*
X487583D01*
X486783Y409432D01*
Y409832D02*
X486383Y410632D01*
X487183D01*
X486783Y409832D01*
X580983Y409432D02*
Y411032D01*
X582583D01*
Y409432D01*
X580983D01*
X581383Y409832D02*
Y410632D01*
X582183D01*
Y409832D01*
X581383D01*
X540983Y409432D02*
Y411032D01*
X542583D01*
Y409432D01*
X540983D01*
X541383Y409832D02*
Y410632D01*
X542183D01*
Y409832D01*
X541383D01*
X561783Y409432D02*
X560983Y411032D01*
X562583D01*
X561783Y409432D01*
Y409832D02*
X561383Y410632D01*
X562183D01*
X561783Y409832D01*
X655982Y409432D02*
Y411032D01*
X657583D01*
Y409432D01*
X655982D01*
X656383Y409832D02*
Y410632D01*
X657183D01*
Y409832D01*
X656383D01*
X615982Y409432D02*
Y411032D01*
X617583D01*
Y409432D01*
X615982D01*
X616383Y409832D02*
Y410632D01*
X617182D01*
Y409832D01*
X616383D01*
X636783Y409432D02*
X635983Y411032D01*
X637582D01*
X636783Y409432D01*
Y409832D02*
X636382Y410632D01*
X637183D01*
X636783Y409832D01*
X730982Y409432D02*
Y411032D01*
X732582D01*
Y409432D01*
X730982D01*
X731382Y409832D02*
Y410632D01*
X732182D01*
Y409832D01*
X731382D01*
X690982Y409432D02*
Y411032D01*
X692582D01*
Y409432D01*
X690982D01*
X691382Y409832D02*
Y410632D01*
X692182D01*
Y409832D01*
X691382D01*
X711782Y409432D02*
X710982Y411032D01*
X712582D01*
X711782Y409432D01*
Y409832D02*
X711382Y410632D01*
X712182D01*
X711782Y409832D01*
X805982Y409432D02*
Y411032D01*
X807582D01*
Y409432D01*
X805982D01*
X806382Y409832D02*
Y410632D01*
X807182D01*
Y409832D01*
X806382D01*
X765982Y409432D02*
Y411032D01*
X767582D01*
Y409432D01*
X765982D01*
X766382Y409832D02*
Y410632D01*
X767182D01*
Y409832D01*
X766382D01*
X786782Y409432D02*
X785982Y411032D01*
X787582D01*
X786782Y409432D01*
Y409832D02*
X786382Y410632D01*
X787182D01*
X786782Y409832D01*
X880982Y409432D02*
Y411032D01*
X882582D01*
Y409432D01*
X880982D01*
X881382Y409832D02*
Y410632D01*
X882182D01*
Y409832D01*
X881382D01*
X840982Y409432D02*
Y411032D01*
X842582D01*
Y409432D01*
X840982D01*
X841382Y409832D02*
Y410632D01*
X842182D01*
Y409832D01*
X841382D01*
X861782Y409432D02*
X860982Y411032D01*
X862582D01*
X861782Y409432D01*
Y409832D02*
X861382Y410632D01*
X862182D01*
X861782Y409832D01*
X955982Y409432D02*
Y411032D01*
X957582D01*
Y409432D01*
X955982D01*
X956382Y409832D02*
Y410632D01*
X957182D01*
Y409832D01*
X956382D01*
X915982Y409432D02*
Y411032D01*
X917582D01*
Y409432D01*
X915982D01*
X916382Y409832D02*
Y410632D01*
X917182D01*
Y409832D01*
X916382D01*
X936782Y409432D02*
X935982Y411032D01*
X937582D01*
X936782Y409432D01*
Y409832D02*
X936382Y410632D01*
X937182D01*
X936782Y409832D01*
X880982Y34432D02*
Y36032D01*
X882582D01*
Y34432D01*
X880982D01*
X881382Y34832D02*
Y35632D01*
X882182D01*
Y34832D01*
X881382D01*
X840982Y34432D02*
Y36032D01*
X842582D01*
Y34432D01*
X840982D01*
X841382Y34832D02*
Y35632D01*
X842182D01*
Y34832D01*
X841382D01*
X861782Y34432D02*
X860982Y36032D01*
X862582D01*
X861782Y34432D01*
Y34832D02*
X861382Y35632D01*
X862182D01*
X861782Y34832D01*
X412237Y184432D02*
Y186032D01*
X413837D01*
Y184432D01*
X412237D01*
X412637Y184832D02*
Y185632D01*
X413437D01*
Y184832D01*
X412637D01*
X372237Y184432D02*
Y186032D01*
X373837D01*
Y184432D01*
X372237D01*
X372637Y184832D02*
Y185632D01*
X373437D01*
Y184832D01*
X372637D01*
X393037Y184432D02*
X392237Y186032D01*
X393837D01*
X393037Y184432D01*
Y184832D02*
X392637Y185632D01*
X393437D01*
X393037Y184832D01*
X487237Y184432D02*
Y186032D01*
X488837D01*
Y184432D01*
X487237D01*
X487637Y184832D02*
Y185632D01*
X488437D01*
Y184832D01*
X487637D01*
X447237Y184432D02*
Y186032D01*
X448837D01*
Y184432D01*
X447237D01*
X447637Y184832D02*
Y185632D01*
X448437D01*
Y184832D01*
X447637D01*
X468037Y184432D02*
X467237Y186032D01*
X468837D01*
X468037Y184432D01*
Y184832D02*
X467637Y185632D01*
X468437D01*
X468037Y184832D01*
X1180982Y409432D02*
Y411032D01*
X1182582D01*
Y409432D01*
X1180982D01*
X1181382Y409832D02*
Y410632D01*
X1182182D01*
Y409832D01*
X1181382D01*
X1140982Y409432D02*
Y411032D01*
X1142582D01*
Y409432D01*
X1140982D01*
X1141382Y409832D02*
Y410632D01*
X1142182D01*
Y409832D01*
X1141382D01*
X1161782Y409432D02*
X1160982Y411032D01*
X1162582D01*
X1161782Y409432D01*
Y409832D02*
X1161382Y410632D01*
X1162182D01*
X1161782Y409832D01*
X562237Y184432D02*
Y186032D01*
X563837D01*
Y184432D01*
X562237D01*
X562637Y184832D02*
Y185632D01*
X563437D01*
Y184832D01*
X562637D01*
X522237Y184432D02*
Y186032D01*
X523837D01*
Y184432D01*
X522237D01*
X522637Y184832D02*
Y185632D01*
X523437D01*
Y184832D01*
X522637D01*
X543037Y184432D02*
X542237Y186032D01*
X543837D01*
X543037Y184432D01*
Y184832D02*
X542637Y185632D01*
X543437D01*
X543037Y184832D01*
X693481Y259427D02*
Y261027D01*
X695081D01*
Y259427D01*
X693481D01*
X693881Y259827D02*
Y260627D01*
X694681D01*
Y259827D01*
X693881D01*
X653481Y259427D02*
Y261027D01*
X655081D01*
Y259427D01*
X653481D01*
X653881Y259827D02*
Y260627D01*
X654681D01*
Y259827D01*
X653881D01*
X674281Y259427D02*
X673481Y261027D01*
X675081D01*
X674281Y259427D01*
Y259827D02*
X673881Y260627D01*
X674681D01*
X674281Y259827D01*
X637237Y184432D02*
Y186032D01*
X638837D01*
Y184432D01*
X637237D01*
X637637Y184832D02*
Y185632D01*
X638437D01*
Y184832D01*
X637637D01*
X597237Y184432D02*
Y186032D01*
X598837D01*
Y184432D01*
X597237D01*
X597637Y184832D02*
Y185632D01*
X598437D01*
Y184832D01*
X597637D01*
X618037Y184432D02*
X617237Y186032D01*
X618837D01*
X618037Y184432D01*
Y184832D02*
X617637Y185632D01*
X618437D01*
X618037Y184832D01*
X712237Y184432D02*
Y186032D01*
X713837D01*
Y184432D01*
X712237D01*
X712637Y184832D02*
Y185632D01*
X713437D01*
Y184832D01*
X712637D01*
X672237Y184432D02*
Y186032D01*
X673837D01*
Y184432D01*
X672237D01*
X672637Y184832D02*
Y185632D01*
X673437D01*
Y184832D01*
X672637D01*
X693037Y184432D02*
X692237Y186032D01*
X693837D01*
X693037Y184432D01*
Y184832D02*
X692637Y185632D01*
X693437D01*
X693037Y184832D01*
X1030982Y34432D02*
Y36032D01*
X1032582D01*
Y34432D01*
X1030982D01*
X1031382Y34832D02*
Y35632D01*
X1032182D01*
Y34832D01*
X1031382D01*
X990982Y34432D02*
Y36032D01*
X992582D01*
Y34432D01*
X990982D01*
X991382Y34832D02*
Y35632D01*
X992182D01*
Y34832D01*
X991382D01*
X1011782Y34432D02*
X1010982Y36032D01*
X1012582D01*
X1011782Y34432D01*
Y34832D02*
X1011382Y35632D01*
X1012182D01*
X1011782Y34832D01*
X787237Y184432D02*
Y186032D01*
X788837D01*
Y184432D01*
X787237D01*
X787637Y184832D02*
Y185632D01*
X788437D01*
Y184832D01*
X787637D01*
X747237Y184432D02*
Y186032D01*
X748837D01*
Y184432D01*
X747237D01*
X747637Y184832D02*
Y185632D01*
X748437D01*
Y184832D01*
X747637D01*
X768037Y184432D02*
X767237Y186032D01*
X768837D01*
X768037Y184432D01*
Y184832D02*
X767637Y185632D01*
X768437D01*
X768037Y184832D01*
X674737Y109432D02*
Y111032D01*
X676337D01*
Y109432D01*
X674737D01*
X675137Y109832D02*
Y110632D01*
X675937D01*
Y109832D01*
X675137D01*
X634737Y109432D02*
Y111032D01*
X636337D01*
Y109432D01*
X634737D01*
X635137Y109832D02*
Y110632D01*
X635937D01*
Y109832D01*
X635137D01*
X655537Y109432D02*
X654737Y111032D01*
X656337D01*
X655537Y109432D01*
Y109832D02*
X655137Y110632D01*
X655937D01*
X655537Y109832D01*
X599737Y109432D02*
Y111032D01*
X601337D01*
Y109432D01*
X599737D01*
X600137Y109832D02*
Y110632D01*
X600937D01*
Y109832D01*
X600137D01*
X559737Y109432D02*
Y111032D01*
X561337D01*
Y109432D01*
X559737D01*
X560137Y109832D02*
Y110632D01*
X560937D01*
Y109832D01*
X560137D01*
X580537Y109432D02*
X579737Y111032D01*
X581337D01*
X580537Y109432D01*
Y109832D02*
X580137Y110632D01*
X580937D01*
X580537Y109832D01*
X1255982Y34432D02*
Y36032D01*
X1257582D01*
Y34432D01*
X1255982D01*
X1256382Y34832D02*
Y35632D01*
X1257182D01*
Y34832D01*
X1256382D01*
X1215982Y34432D02*
Y36032D01*
X1217582D01*
Y34432D01*
X1215982D01*
X1216382Y34832D02*
Y35632D01*
X1217182D01*
Y34832D01*
X1216382D01*
X1236782Y34432D02*
X1235982Y36032D01*
X1237582D01*
X1236782Y34432D01*
Y34832D02*
X1236382Y35632D01*
X1237182D01*
X1236782Y34832D01*
X1180982Y109432D02*
Y111032D01*
X1182582D01*
Y109432D01*
X1180982D01*
X1181382Y109832D02*
Y110632D01*
X1182182D01*
Y109832D01*
X1181382D01*
X1140982Y109432D02*
Y111032D01*
X1142582D01*
Y109432D01*
X1140982D01*
X1141382Y109832D02*
Y110632D01*
X1142182D01*
Y109832D01*
X1141382D01*
X1161782Y109432D02*
X1160982Y111032D01*
X1162582D01*
X1161782Y109432D01*
Y109832D02*
X1161382Y110632D01*
X1162182D01*
X1161782Y109832D01*
X1255982Y109432D02*
Y111032D01*
X1257582D01*
Y109432D01*
X1255982D01*
X1256382Y109832D02*
Y110632D01*
X1257182D01*
Y109832D01*
X1256382D01*
X1215982Y109432D02*
Y111032D01*
X1217582D01*
Y109432D01*
X1215982D01*
X1216382Y109832D02*
Y110632D01*
X1217182D01*
Y109832D01*
X1216382D01*
X1236782Y109432D02*
X1235982Y111032D01*
X1237582D01*
X1236782Y109432D01*
Y109832D02*
X1236382Y110632D01*
X1237182D01*
X1236782Y109832D01*
X1330982Y109432D02*
Y111032D01*
X1332582D01*
Y109432D01*
X1330982D01*
X1331382Y109832D02*
Y110632D01*
X1332182D01*
Y109832D01*
X1331382D01*
X1290982Y109432D02*
Y111032D01*
X1292582D01*
Y109432D01*
X1290982D01*
X1291382Y109832D02*
Y110632D01*
X1292182D01*
Y109832D01*
X1291382D01*
X1311782Y109432D02*
X1310982Y111032D01*
X1312582D01*
X1311782Y109432D01*
Y109832D02*
X1311382Y110632D01*
X1312182D01*
X1311782Y109832D01*
X1180982Y184432D02*
Y186032D01*
X1182582D01*
Y184432D01*
X1180982D01*
X1181382Y184832D02*
Y185632D01*
X1182182D01*
Y184832D01*
X1181382D01*
X1140982Y184432D02*
Y186032D01*
X1142582D01*
Y184432D01*
X1140982D01*
X1141382Y184832D02*
Y185632D01*
X1142182D01*
Y184832D01*
X1141382D01*
X1161782Y184432D02*
X1160982Y186032D01*
X1162582D01*
X1161782Y184432D01*
Y184832D02*
X1161382Y185632D01*
X1162182D01*
X1161782Y184832D01*
X1255982Y184432D02*
Y186032D01*
X1257582D01*
Y184432D01*
X1255982D01*
X1256382Y184832D02*
Y185632D01*
X1257182D01*
Y184832D01*
X1256382D01*
X1215982Y184432D02*
Y186032D01*
X1217582D01*
Y184432D01*
X1215982D01*
X1216382Y184832D02*
Y185632D01*
X1217182D01*
Y184832D01*
X1216382D01*
X1236782Y184432D02*
X1235982Y186032D01*
X1237582D01*
X1236782Y184432D01*
Y184832D02*
X1236382Y185632D01*
X1237182D01*
X1236782Y184832D01*
X1330982Y184432D02*
Y186032D01*
X1332582D01*
Y184432D01*
X1330982D01*
X1331382Y184832D02*
Y185632D01*
X1332182D01*
Y184832D01*
X1331382D01*
X1290982Y184432D02*
Y186032D01*
X1292582D01*
Y184432D01*
X1290982D01*
X1291382Y184832D02*
Y185632D01*
X1292182D01*
Y184832D01*
X1291382D01*
X1311782Y184432D02*
X1310982Y186032D01*
X1312582D01*
X1311782Y184432D01*
Y184832D02*
X1311382Y185632D01*
X1312182D01*
X1311782Y184832D01*
X1180982Y259432D02*
Y261032D01*
X1182582D01*
Y259432D01*
X1180982D01*
X1181382Y259832D02*
Y260632D01*
X1182182D01*
Y259832D01*
X1181382D01*
X1140982Y259432D02*
Y261032D01*
X1142582D01*
Y259432D01*
X1140982D01*
X1141382Y259832D02*
Y260632D01*
X1142182D01*
Y259832D01*
X1141382D01*
X1161782Y259432D02*
X1160982Y261032D01*
X1162582D01*
X1161782Y259432D01*
Y259832D02*
X1161382Y260632D01*
X1162182D01*
X1161782Y259832D01*
X1255982Y259432D02*
Y261032D01*
X1257582D01*
Y259432D01*
X1255982D01*
X1256382Y259832D02*
Y260632D01*
X1257182D01*
Y259832D01*
X1256382D01*
X1215982Y259432D02*
Y261032D01*
X1217582D01*
Y259432D01*
X1215982D01*
X1216382Y259832D02*
Y260632D01*
X1217182D01*
Y259832D01*
X1216382D01*
X1236782Y259432D02*
X1235982Y261032D01*
X1237582D01*
X1236782Y259432D01*
Y259832D02*
X1236382Y260632D01*
X1237182D01*
X1236782Y259832D01*
X1330982Y259432D02*
Y261032D01*
X1332582D01*
Y259432D01*
X1330982D01*
X1331382Y259832D02*
Y260632D01*
X1332182D01*
Y259832D01*
X1331382D01*
X1290982Y259432D02*
Y261032D01*
X1292582D01*
Y259432D01*
X1290982D01*
X1291382Y259832D02*
Y260632D01*
X1292182D01*
Y259832D01*
X1291382D01*
X1311782Y259432D02*
X1310982Y261032D01*
X1312582D01*
X1311782Y259432D01*
Y259832D02*
X1311382Y260632D01*
X1312182D01*
X1311782Y259832D01*
X1330982Y334432D02*
Y336032D01*
X1332582D01*
Y334432D01*
X1330982D01*
X1331382Y334832D02*
Y335632D01*
X1332182D01*
Y334832D01*
X1331382D01*
X1290982Y334432D02*
Y336032D01*
X1292582D01*
Y334432D01*
X1290982D01*
X1291382Y334832D02*
Y335632D01*
X1292182D01*
Y334832D01*
X1291382D01*
X1311782Y334432D02*
X1310982Y336032D01*
X1312582D01*
X1311782Y334432D01*
Y334832D02*
X1311382Y335632D01*
X1312182D01*
X1311782Y334832D01*
X1405981Y221813D02*
Y223413D01*
X1407581D01*
Y221813D01*
X1405981D01*
X1406381Y222213D02*
Y223013D01*
X1407181D01*
Y222213D01*
X1406381D01*
X1365981Y221813D02*
Y223413D01*
X1367581D01*
Y221813D01*
X1365981D01*
X1366381Y222213D02*
Y223013D01*
X1367181D01*
Y222213D01*
X1366381D01*
X1386781Y221813D02*
X1385981Y223413D01*
X1387581D01*
X1386781Y221813D01*
Y222213D02*
X1386381Y223013D01*
X1387181D01*
X1386781Y222213D01*
X1405982Y334432D02*
Y336032D01*
X1407582D01*
Y334432D01*
X1405982D01*
X1406382Y334832D02*
Y335632D01*
X1407182D01*
Y334832D01*
X1406382D01*
X1365982Y334432D02*
Y336032D01*
X1367582D01*
Y334432D01*
X1365982D01*
X1366382Y334832D02*
Y335632D01*
X1367182D01*
Y334832D01*
X1366382D01*
X1386782Y334432D02*
X1385982Y336032D01*
X1387582D01*
X1386782Y334432D01*
Y334832D02*
X1386382Y335632D01*
X1387182D01*
X1386782Y334832D01*
X1330982Y34432D02*
Y36032D01*
X1332582D01*
Y34432D01*
X1330982D01*
X1331382Y34832D02*
Y35632D01*
X1332182D01*
Y34832D01*
X1331382D01*
X1290982Y34432D02*
Y36032D01*
X1292582D01*
Y34432D01*
X1290982D01*
X1291382Y34832D02*
Y35632D01*
X1292182D01*
Y34832D01*
X1291382D01*
X1311782Y34432D02*
X1310982Y36032D01*
X1312582D01*
X1311782Y34432D01*
Y34832D02*
X1311382Y35632D01*
X1312182D01*
X1311782Y34832D01*
X1255982Y334432D02*
Y336032D01*
X1257582D01*
Y334432D01*
X1255982D01*
X1256382Y334832D02*
Y335632D01*
X1257182D01*
Y334832D01*
X1256382D01*
X1215982Y334432D02*
Y336032D01*
X1217582D01*
Y334432D01*
X1215982D01*
X1216382Y334832D02*
Y335632D01*
X1217182D01*
Y334832D01*
X1216382D01*
X1236782Y334432D02*
X1235982Y336032D01*
X1237582D01*
X1236782Y334432D01*
Y334832D02*
X1236382Y335632D01*
X1237182D01*
X1236782Y334832D01*
X1405981Y71836D02*
Y73436D01*
X1407581D01*
Y71836D01*
X1405981D01*
X1406381Y72236D02*
Y73036D01*
X1407181D01*
Y72236D01*
X1406381D01*
X1365981Y71836D02*
Y73436D01*
X1367581D01*
Y71836D01*
X1365981D01*
X1366381Y72236D02*
Y73036D01*
X1367181D01*
Y72236D01*
X1366381D01*
X1386781Y71836D02*
X1385981Y73436D01*
X1387581D01*
X1386781Y71836D01*
Y72236D02*
X1386381Y73036D01*
X1387181D01*
X1386781Y72236D01*
X1180982Y334432D02*
Y336032D01*
X1182582D01*
Y334432D01*
X1180982D01*
X1181382Y334832D02*
Y335632D01*
X1182182D01*
Y334832D01*
X1181382D01*
X1140982Y334432D02*
Y336032D01*
X1142582D01*
Y334432D01*
X1140982D01*
X1141382Y334832D02*
Y335632D01*
X1142182D01*
Y334832D01*
X1141382D01*
X1161782Y334432D02*
X1160982Y336032D01*
X1162582D01*
X1161782Y334432D01*
Y334832D02*
X1161382Y335632D01*
X1162182D01*
X1161782Y334832D01*
X768481Y259427D02*
Y261027D01*
X770081D01*
Y259427D01*
X768481D01*
X768881Y259827D02*
Y260627D01*
X769681D01*
Y259827D01*
X768881D01*
X728481Y259427D02*
Y261027D01*
X730081D01*
Y259427D01*
X728481D01*
X728881Y259827D02*
Y260627D01*
X729681D01*
Y259827D01*
X728881D01*
X749281Y259427D02*
X748481Y261027D01*
X750081D01*
X749281Y259427D01*
Y259827D02*
X748881Y260627D01*
X749681D01*
X749281Y259827D01*
X1405981Y409432D02*
Y411032D01*
X1407581D01*
Y409432D01*
X1405981D01*
X1406381Y409832D02*
Y410632D01*
X1407181D01*
Y409832D01*
X1406381D01*
X1365981Y409432D02*
Y411032D01*
X1367581D01*
Y409432D01*
X1365981D01*
X1366381Y409832D02*
Y410632D01*
X1367181D01*
Y409832D01*
X1366381D01*
X1386781Y409432D02*
X1385981Y411032D01*
X1387581D01*
X1386781Y409432D01*
Y409832D02*
X1386381Y410632D01*
X1387181D01*
X1386781Y409832D01*
X1330982Y409432D02*
Y411032D01*
X1332582D01*
Y409432D01*
X1330982D01*
X1331382Y409832D02*
Y410632D01*
X1332182D01*
Y409832D01*
X1331382D01*
X1290982Y409432D02*
Y411032D01*
X1292582D01*
Y409432D01*
X1290982D01*
X1291382Y409832D02*
Y410632D01*
X1292182D01*
Y409832D01*
X1291382D01*
X1311782Y409432D02*
X1310982Y411032D01*
X1312582D01*
X1311782Y409432D01*
Y409832D02*
X1311382Y410632D01*
X1312182D01*
X1311782Y409832D01*
X843481Y259427D02*
Y261027D01*
X845081D01*
Y259427D01*
X843481D01*
X843881Y259827D02*
Y260627D01*
X844681D01*
Y259827D01*
X843881D01*
X803481Y259427D02*
Y261027D01*
X805081D01*
Y259427D01*
X803481D01*
X803881Y259827D02*
Y260627D01*
X804681D01*
Y259827D01*
X803881D01*
X824281Y259427D02*
X823481Y261027D01*
X825081D01*
X824281Y259427D01*
Y259827D02*
X823881Y260627D01*
X824681D01*
X824281Y259827D01*
X168481Y259427D02*
Y261027D01*
X170081D01*
Y259427D01*
X168481D01*
X168881Y259827D02*
Y260627D01*
X169681D01*
Y259827D01*
X168881D01*
X128481Y259427D02*
Y261027D01*
X130081D01*
Y259427D01*
X128481D01*
X128881Y259827D02*
Y260627D01*
X129681D01*
Y259827D01*
X128881D01*
X149281Y259427D02*
X148481Y261027D01*
X150081D01*
X149281Y259427D01*
Y259827D02*
X148881Y260627D01*
X149681D01*
X149281Y259827D01*
X1180982Y34432D02*
Y36032D01*
X1182582D01*
Y34432D01*
X1180982D01*
X1181382Y34832D02*
Y35632D01*
X1182182D01*
Y34832D01*
X1181382D01*
X1140982Y34432D02*
Y36032D01*
X1142582D01*
Y34432D01*
X1140982D01*
X1141382Y34832D02*
Y35632D01*
X1142182D01*
Y34832D01*
X1141382D01*
X1161782Y34432D02*
X1160982Y36032D01*
X1162582D01*
X1161782Y34432D01*
Y34832D02*
X1161382Y35632D01*
X1162182D01*
X1161782Y34832D01*
X393481Y259427D02*
Y261027D01*
X395081D01*
Y259427D01*
X393481D01*
X393881Y259827D02*
Y260627D01*
X394681D01*
Y259827D01*
X393881D01*
X353481Y259427D02*
Y261027D01*
X355081D01*
Y259427D01*
X353481D01*
X353881Y259827D02*
Y260627D01*
X354681D01*
Y259827D01*
X353881D01*
X374281Y259427D02*
X373481Y261027D01*
X375081D01*
X374281Y259427D01*
Y259827D02*
X373881Y260627D01*
X374681D01*
X374281Y259827D01*
X102853Y109432D02*
Y111032D01*
X104453D01*
Y109432D01*
X102853D01*
X103253Y109832D02*
Y110632D01*
X104053D01*
Y109832D01*
X103253D01*
X62853Y109432D02*
Y111032D01*
X64453D01*
Y109432D01*
X62853D01*
X63253Y109832D02*
Y110632D01*
X64053D01*
Y109832D01*
X63253D01*
X83653Y109432D02*
X82853Y111032D01*
X84453D01*
X83653Y109432D01*
Y109832D02*
X83253Y110632D01*
X84053D01*
X83653Y109832D01*
X1002854Y109432D02*
Y111032D01*
X1004454D01*
Y109432D01*
X1002854D01*
X1003254Y109832D02*
Y110632D01*
X1004054D01*
Y109832D01*
X1003254D01*
X962854Y109432D02*
Y111032D01*
X964454D01*
Y109432D01*
X962854D01*
X963254Y109832D02*
Y110632D01*
X964054D01*
Y109832D01*
X963254D01*
X983654Y109432D02*
X982854Y111032D01*
X984454D01*
X983654Y109432D01*
Y109832D02*
X983254Y110632D01*
X984054D01*
X983654Y109832D01*
X534111Y34432D02*
Y36032D01*
X535711D01*
Y34432D01*
X534111D01*
X534512Y34832D02*
Y35632D01*
X535312D01*
Y34832D01*
X534512D01*
X494111Y34432D02*
Y36032D01*
X495712D01*
Y34432D01*
X494111D01*
X494512Y34832D02*
Y35632D01*
X495311D01*
Y34832D01*
X494512D01*
X514912Y34432D02*
X514112Y36032D01*
X515711D01*
X514912Y34432D01*
Y34832D02*
X514511Y35632D01*
X515311D01*
X514912Y34832D01*
X262237Y184432D02*
Y186032D01*
X263837D01*
Y184432D01*
X262237D01*
X262637Y184832D02*
Y185632D01*
X263437D01*
Y184832D01*
X262637D01*
X222237Y184432D02*
Y186032D01*
X223837D01*
Y184432D01*
X222237D01*
X222637Y184832D02*
Y185632D01*
X223437D01*
Y184832D01*
X222637D01*
X243037Y184432D02*
X242237Y186032D01*
X243837D01*
X243037Y184432D01*
Y184832D02*
X242637Y185632D01*
X243437D01*
X243037Y184832D01*
X468481Y259427D02*
Y261027D01*
X470081D01*
Y259427D01*
X468481D01*
X468881Y259827D02*
Y260627D01*
X469681D01*
Y259827D01*
X468881D01*
X428481Y259427D02*
Y261027D01*
X430081D01*
Y259427D01*
X428481D01*
X428881Y259827D02*
Y260627D01*
X429681D01*
Y259827D01*
X428881D01*
X449281Y259427D02*
X448481Y261027D01*
X450081D01*
X449281Y259427D01*
Y259827D02*
X448881Y260627D01*
X449681D01*
X449281Y259827D01*
X1105982Y109432D02*
Y111032D01*
X1107582D01*
Y109432D01*
X1105982D01*
X1106382Y109832D02*
Y110632D01*
X1107182D01*
Y109832D01*
X1106382D01*
X1065982Y109432D02*
Y111032D01*
X1067582D01*
Y109432D01*
X1065982D01*
X1066382Y109832D02*
Y110632D01*
X1067182D01*
Y109832D01*
X1066382D01*
X1086782Y109432D02*
X1085982Y111032D01*
X1087582D01*
X1086782Y109432D01*
Y109832D02*
X1086382Y110632D01*
X1087182D01*
X1086782Y109832D01*
X618481Y259427D02*
Y261027D01*
X620081D01*
Y259427D01*
X618481D01*
X618881Y259827D02*
Y260627D01*
X619681D01*
Y259827D01*
X618881D01*
X578481Y259427D02*
Y261027D01*
X580081D01*
Y259427D01*
X578481D01*
X578881Y259827D02*
Y260627D01*
X579681D01*
Y259827D01*
X578881D01*
X599281Y259427D02*
X598481Y261027D01*
X600081D01*
X599281Y259427D01*
Y259827D02*
X598881Y260627D01*
X599681D01*
X599281Y259827D01*
X449737Y109432D02*
Y111032D01*
X451337D01*
Y109432D01*
X449737D01*
X450137Y109832D02*
Y110632D01*
X450937D01*
Y109832D01*
X450137D01*
X409737Y109432D02*
Y111032D01*
X411337D01*
Y109432D01*
X409737D01*
X410137Y109832D02*
Y110632D01*
X410937D01*
Y109832D01*
X410137D01*
X430537Y109432D02*
X429737Y111032D01*
X431337D01*
X430537Y109432D01*
Y109832D02*
X430137Y110632D01*
X430937D01*
X430537Y109832D01*
X159109Y34432D02*
Y36032D01*
X160709D01*
Y34432D01*
X159109D01*
X159509Y34832D02*
Y35632D01*
X160309D01*
Y34832D01*
X159509D01*
X119109Y34432D02*
Y36032D01*
X120709D01*
Y34432D01*
X119109D01*
X119509Y34832D02*
Y35632D01*
X120309D01*
Y34832D01*
X119509D01*
X139909Y34432D02*
X139109Y36032D01*
X140709D01*
X139909Y34432D01*
Y34832D02*
X139509Y35632D01*
X140309D01*
X139909Y34832D01*
X243481Y259427D02*
Y261027D01*
X245081D01*
Y259427D01*
X243481D01*
X243881Y259827D02*
Y260627D01*
X244681D01*
Y259827D01*
X243881D01*
X203481Y259427D02*
Y261027D01*
X205081D01*
Y259427D01*
X203481D01*
X203881Y259827D02*
Y260627D01*
X204681D01*
Y259827D01*
X203881D01*
X224281Y259427D02*
X223481Y261027D01*
X225081D01*
X224281Y259427D01*
Y259827D02*
X223881Y260627D01*
X224681D01*
X224281Y259827D01*
X299737Y109432D02*
Y111032D01*
X301337D01*
Y109432D01*
X299737D01*
X300137Y109832D02*
Y110632D01*
X300937D01*
Y109832D01*
X300137D01*
X259737Y109432D02*
Y111032D01*
X261337D01*
Y109432D01*
X259737D01*
X260137Y109832D02*
Y110632D01*
X260937D01*
Y109832D01*
X260137D01*
X280537Y109432D02*
X279737Y111032D01*
X281337D01*
X280537Y109432D01*
Y109832D02*
X280137Y110632D01*
X280937D01*
X280537Y109832D01*
X543481Y259427D02*
Y261027D01*
X545081D01*
Y259427D01*
X543481D01*
X543881Y259827D02*
Y260627D01*
X544681D01*
Y259827D01*
X543881D01*
X503481Y259427D02*
Y261027D01*
X505081D01*
Y259427D01*
X503481D01*
X503881Y259827D02*
Y260627D01*
X504681D01*
Y259827D01*
X503881D01*
X524281Y259427D02*
X523481Y261027D01*
X525081D01*
X524281Y259427D01*
Y259827D02*
X523881Y260627D01*
X524681D01*
X524281Y259827D01*
X224736Y109432D02*
Y111032D01*
X226337D01*
Y109432D01*
X224736D01*
X225136Y109832D02*
Y110632D01*
X225937D01*
Y109832D01*
X225136D01*
X184737Y109432D02*
Y111032D01*
X186337D01*
Y109432D01*
X184737D01*
X185136Y109832D02*
Y110632D01*
X185936D01*
Y109832D01*
X185136D01*
X205537Y109432D02*
X204736Y111032D01*
X206336D01*
X205537Y109432D01*
Y109832D02*
X205136Y110632D01*
X205937D01*
X205537Y109832D01*
X55983Y334432D02*
Y336032D01*
X57583D01*
Y334432D01*
X55983D01*
X56383Y334832D02*
Y335632D01*
X57183D01*
Y334832D01*
X56383D01*
X15983Y334432D02*
Y336032D01*
X17583D01*
Y334432D01*
X15983D01*
X16383Y334832D02*
Y335632D01*
X17183D01*
Y334832D01*
X16383D01*
X36783Y334432D02*
X35983Y336032D01*
X37583D01*
X36783Y334432D01*
Y334832D02*
X36383Y335632D01*
X37183D01*
X36783Y334832D01*
X749737Y109432D02*
Y111032D01*
X751337D01*
Y109432D01*
X749737D01*
X750137Y109832D02*
Y110632D01*
X750937D01*
Y109832D01*
X750137D01*
X709737Y109432D02*
Y111032D01*
X711337D01*
Y109432D01*
X709737D01*
X710137Y109832D02*
Y110632D01*
X710937D01*
Y109832D01*
X710137D01*
X730537Y109432D02*
X729737Y111032D01*
X731337D01*
X730537Y109432D01*
Y109832D02*
X730137Y110632D01*
X730937D01*
X730537Y109832D01*
X74736Y259427D02*
Y261027D01*
X76336D01*
Y259427D01*
X74736D01*
X75136Y259827D02*
Y260627D01*
X75936D01*
Y259827D01*
X75136D01*
X34736Y259427D02*
Y261027D01*
X36336D01*
Y259427D01*
X34736D01*
X35136Y259827D02*
Y260627D01*
X35936D01*
Y259827D01*
X35136D01*
X55536Y259427D02*
X54736Y261027D01*
X56336D01*
X55536Y259427D01*
Y259827D02*
X55136Y260627D01*
X55936D01*
X55536Y259827D01*
X1030982Y409432D02*
Y411032D01*
X1032582D01*
Y409432D01*
X1030982D01*
X1031382Y409832D02*
Y410632D01*
X1032182D01*
Y409832D01*
X1031382D01*
X990982Y409432D02*
Y411032D01*
X992582D01*
Y409432D01*
X990982D01*
X991382Y409832D02*
Y410632D01*
X992182D01*
Y409832D01*
X991382D01*
X1011782Y409432D02*
X1010982Y411032D01*
X1012582D01*
X1011782Y409432D01*
Y409832D02*
X1011382Y410632D01*
X1012182D01*
X1011782Y409832D01*
X862237Y184432D02*
Y186032D01*
X863837D01*
Y184432D01*
X862237D01*
X862637Y184832D02*
Y185632D01*
X863437D01*
Y184832D01*
X862637D01*
X822237Y184432D02*
Y186032D01*
X823837D01*
Y184432D01*
X822237D01*
X822637Y184832D02*
Y185632D01*
X823437D01*
Y184832D01*
X822637D01*
X843037Y184432D02*
X842237Y186032D01*
X843837D01*
X843037Y184432D01*
Y184832D02*
X842637Y185632D01*
X843437D01*
X843037Y184832D01*
X937237Y184432D02*
Y186032D01*
X938837D01*
Y184432D01*
X937237D01*
X937637Y184832D02*
Y185632D01*
X938437D01*
Y184832D01*
X937637D01*
X897237Y184432D02*
Y186032D01*
X898837D01*
Y184432D01*
X897237D01*
X897637Y184832D02*
Y185632D01*
X898437D01*
Y184832D01*
X897637D01*
X918037Y184432D02*
X917237Y186032D01*
X918837D01*
X918037Y184432D01*
Y184832D02*
X917637Y185632D01*
X918437D01*
X918037Y184832D01*
X584200Y127150D02*
X584600Y127950D01*
X584200Y128750D01*
X585000Y128350D01*
X585800Y128750D01*
X585400Y127950D01*
X585800Y127150D01*
X585000Y127550D01*
X584200Y127150D01*
X584600Y127550D02*
X584800Y127950D01*
X584600Y128350D01*
X585000Y128150D01*
X585400Y128350D01*
X585200Y127950D01*
X585400Y127550D01*
X585000Y127750D01*
X584600Y127550D01*
X66850Y397150D02*
X67250Y397950D01*
X66850Y398750D01*
X67650Y398350D01*
X68450Y398750D01*
X68050Y397950D01*
X68450Y397150D01*
X67650Y397550D01*
X66850Y397150D01*
X67250Y397550D02*
X67450Y397950D01*
X67250Y398350D01*
X67650Y398150D01*
X68050Y398350D01*
X67850Y397950D01*
X68050Y397550D01*
X67650Y397750D01*
X67250Y397550D01*
X90731Y269400D02*
Y269000D01*
X91531D01*
Y269400D01*
X91931D01*
Y270200D01*
X91531D01*
Y270600D01*
X90731D01*
Y270200D01*
X90331D01*
Y269400D01*
X90731D01*
X90931Y269600D02*
Y269400D01*
X91331D01*
Y269600D01*
X91531D01*
Y270000D01*
X91331D01*
Y270200D01*
X90931D01*
Y270000D01*
X90731D01*
Y269600D01*
X90931D01*
X90331Y224200D02*
X90731Y225000D01*
X90331Y225800D01*
X91131Y225400D01*
X91931Y225800D01*
X91531Y225000D01*
X91931Y224200D01*
X91131Y224600D01*
X90331Y224200D01*
X90731Y224600D02*
X90931Y225000D01*
X90731Y225400D01*
X91131Y225200D01*
X91531Y225400D01*
X91331Y225000D01*
X91531Y224600D01*
X91131Y224800D01*
X90731Y224600D01*
X106700Y220000D02*
X107100Y220800D01*
X106700Y221600D01*
X107500Y221200D01*
X108300Y221600D01*
X107900Y220800D01*
X108300Y220000D01*
X107500Y220400D01*
X106700Y220000D01*
X107100Y220400D02*
X107300Y220800D01*
X107100Y221200D01*
X107500Y221000D01*
X107900Y221200D01*
X107700Y220800D01*
X107900Y220400D01*
X107500Y220600D01*
X107100Y220400D01*
X106700Y244800D02*
X107100Y245600D01*
X106700Y246400D01*
X107500Y246000D01*
X108300Y246400D01*
X107900Y245600D01*
X108300Y244800D01*
X107500Y245200D01*
X106700Y244800D01*
X107100Y245200D02*
X107300Y245600D01*
X107100Y246000D01*
X107500Y245800D01*
X107900Y246000D01*
X107700Y245600D01*
X107900Y245200D01*
X107500Y245400D01*
X107100Y245200D01*
X156800Y271800D02*
X157200Y272600D01*
X156800Y273400D01*
X157600Y273000D01*
X158400Y273400D01*
X158000Y272600D01*
X158400Y271800D01*
X157600Y272200D01*
X156800Y271800D01*
X157200Y272200D02*
X157400Y272600D01*
X157200Y273000D01*
X157600Y272800D01*
X158000Y273000D01*
X157800Y272600D01*
X158000Y272200D01*
X157600Y272400D01*
X157200Y272200D01*
X74000Y297400D02*
Y297000D01*
X74800D01*
Y297400D01*
X75200D01*
Y298200D01*
X74800D01*
Y298600D01*
X74000D01*
Y298200D01*
X73600D01*
Y297400D01*
X74000D01*
X74200Y297600D02*
Y297400D01*
X74600D01*
Y297600D01*
X74800D01*
Y298000D01*
X74600D01*
Y298200D01*
X74200D01*
Y298000D01*
X74000D01*
Y297600D01*
X74200D01*
X757237Y196400D02*
X757637Y197200D01*
X757237Y198000D01*
X758037Y197600D01*
X758837Y198000D01*
X758437Y197200D01*
X758837Y196400D01*
X758037Y196800D01*
X757237Y196400D01*
X757637Y196800D02*
X757837Y197200D01*
X757637Y197600D01*
X758037Y197400D01*
X758437Y197600D01*
X758237Y197200D01*
X758437Y196800D01*
X758037Y197000D01*
X757637Y196800D01*
X176500Y196400D02*
X176900Y197200D01*
X176500Y198000D01*
X177300Y197600D01*
X178100Y198000D01*
X177700Y197200D01*
X178100Y196400D01*
X177300Y196800D01*
X176500Y196400D01*
X176900Y196800D02*
X177100Y197200D01*
X176900Y197600D01*
X177300Y197400D01*
X177700Y197600D01*
X177500Y197200D01*
X177700Y196800D01*
X177300Y197000D01*
X176900Y196800D01*
X520328Y421250D02*
X520728Y422050D01*
X520328Y422850D01*
X521128Y422450D01*
X521928Y422850D01*
X521528Y422050D01*
X521928Y421250D01*
X521128Y421650D01*
X520328Y421250D01*
X520728Y421650D02*
X520928Y422050D01*
X520728Y422450D01*
X521128Y422250D01*
X521528Y422450D01*
X521328Y422050D01*
X521528Y421650D01*
X521128Y421850D01*
X520728Y421650D01*
X520328Y391900D02*
X520728Y392700D01*
X520328Y393500D01*
X521128Y393100D01*
X521928Y393500D01*
X521528Y392700D01*
X521928Y391900D01*
X521128Y392300D01*
X520328Y391900D01*
X520728Y392300D02*
X520928Y392700D01*
X520728Y393100D01*
X521128Y392900D01*
X521528Y393100D01*
X521328Y392700D01*
X521528Y392300D01*
X521128Y392500D01*
X520728Y392300D01*
X307400Y421250D02*
X307800Y422050D01*
X307400Y422850D01*
X308200Y422450D01*
X309000Y422850D01*
X308600Y422050D01*
X309000Y421250D01*
X308200Y421650D01*
X307400Y421250D01*
X307800Y421650D02*
X308000Y422050D01*
X307800Y422450D01*
X308200Y422250D01*
X308600Y422450D01*
X308400Y422050D01*
X308600Y421650D01*
X308200Y421850D01*
X307800Y421650D01*
X344737Y48673D02*
X345137Y49472D01*
X344737Y50273D01*
X345537Y49872D01*
X346337Y50273D01*
X345937Y49472D01*
X346337Y48673D01*
X345537Y49073D01*
X344737Y48673D01*
X345137Y49073D02*
X345337Y49472D01*
X345137Y49872D01*
X345537Y49672D01*
X345937Y49872D01*
X345737Y49472D01*
X345937Y49073D01*
X345537Y49273D01*
X345137Y49073D01*
X1189550Y287875D02*
X1189950Y288675D01*
X1189550Y289475D01*
X1190350Y289075D01*
X1191150Y289475D01*
X1190750Y288675D01*
X1191150Y287875D01*
X1190350Y288275D01*
X1189550Y287875D01*
X1189950Y288275D02*
X1190150Y288675D01*
X1189950Y289075D01*
X1190350Y288875D01*
X1190750Y289075D01*
X1190550Y288675D01*
X1190750Y288275D01*
X1190350Y288475D01*
X1189950Y288275D01*
X1189550Y89432D02*
X1189950Y90232D01*
X1189550Y91032D01*
X1190350Y90632D01*
X1191150Y91032D01*
X1190750Y90232D01*
X1191150Y89432D01*
X1190350Y89832D01*
X1189550Y89432D01*
X1189950Y89832D02*
X1190150Y90232D01*
X1189950Y90632D01*
X1190350Y90432D01*
X1190750Y90632D01*
X1190550Y90232D01*
X1190750Y89832D01*
X1190350Y90032D01*
X1189950Y89832D01*
X520600Y287875D02*
X521000Y288675D01*
X520600Y289475D01*
X521400Y289075D01*
X522200Y289475D01*
X521800Y288675D01*
X522200Y287875D01*
X521400Y288275D01*
X520600Y287875D01*
X521000Y288275D02*
X521200Y288675D01*
X521000Y289075D01*
X521400Y288875D01*
X521800Y289075D01*
X521600Y288675D01*
X521800Y288275D01*
X521400Y288475D01*
X521000Y288275D01*
X494737Y368346D02*
X495137Y369146D01*
X494737Y369946D01*
X495537Y369546D01*
X496337Y369946D01*
X495937Y369146D01*
X496337Y368346D01*
X495537Y368746D01*
X494737Y368346D01*
X495137Y368746D02*
X495337Y369146D01*
X495137Y369546D01*
X495537Y369346D01*
X495937Y369546D01*
X495737Y369146D01*
X495937Y368746D01*
X495537Y368946D01*
X495137Y368746D01*
X529111Y55024D02*
X529511Y55824D01*
X529111Y56624D01*
X529912Y56224D01*
X530712Y56624D01*
X530311Y55824D01*
X530712Y55024D01*
X529912Y55424D01*
X529111Y55024D01*
X529511Y55424D02*
X529711Y55824D01*
X529511Y56224D01*
X529912Y56024D01*
X530311Y56224D01*
X530112Y55824D01*
X530311Y55424D01*
X529912Y55624D01*
X529511Y55424D01*
X1268800Y399432D02*
X1269200Y400232D01*
X1268800Y401032D01*
X1269600Y400632D01*
X1270400Y401032D01*
X1270000Y400232D01*
X1270400Y399432D01*
X1269600Y399832D01*
X1268800Y399432D01*
X1269200Y399832D02*
X1269400Y400232D01*
X1269200Y400632D01*
X1269600Y400432D01*
X1270000Y400632D01*
X1269800Y400232D01*
X1270000Y399832D01*
X1269600Y400032D01*
X1269200Y399832D01*
X1225982Y202300D02*
X1226382Y203100D01*
X1225982Y203900D01*
X1226782Y203500D01*
X1227582Y203900D01*
X1227182Y203100D01*
X1227582Y202300D01*
X1226782Y202700D01*
X1225982Y202300D01*
X1226382Y202700D02*
X1226582Y203100D01*
X1226382Y203500D01*
X1226782Y203300D01*
X1227182Y203500D01*
X1226982Y203100D01*
X1227182Y202700D01*
X1226782Y202900D01*
X1226382Y202700D01*
X1175982Y202300D02*
X1176382Y203100D01*
X1175982Y203900D01*
X1176782Y203500D01*
X1177582Y203900D01*
X1177182Y203100D01*
X1177582Y202300D01*
X1176782Y202700D01*
X1175982Y202300D01*
X1176382Y202700D02*
X1176582Y203100D01*
X1176382Y203500D01*
X1176782Y203300D01*
X1177182Y203500D01*
X1176982Y203100D01*
X1177182Y202700D01*
X1176782Y202900D01*
X1176382Y202700D01*
X100983Y300400D02*
X101383Y301200D01*
X100983Y302000D01*
X101783Y301600D01*
X102583Y302000D01*
X102183Y301200D01*
X102583Y300400D01*
X101783Y300800D01*
X100983Y300400D01*
X101383Y300800D02*
X101583Y301200D01*
X101383Y301600D01*
X101783Y301400D01*
X102183Y301600D01*
X101983Y301200D01*
X102183Y300800D01*
X101783Y301000D01*
X101383Y300800D01*
X194300Y297200D02*
X194700Y298000D01*
X194300Y298800D01*
X195100Y298400D01*
X195900Y298800D01*
X195500Y298000D01*
X195900Y297200D01*
X195100Y297600D01*
X194300Y297200D01*
X194700Y297600D02*
X194900Y298000D01*
X194700Y298400D01*
X195100Y298200D01*
X195500Y298400D01*
X195300Y298000D01*
X195500Y297600D01*
X195100Y297800D01*
X194700Y297600D01*
X383600Y297200D02*
X384000Y298000D01*
X383600Y298800D01*
X384400Y298400D01*
X385200Y298800D01*
X384800Y298000D01*
X385200Y297200D01*
X384400Y297600D01*
X383600Y297200D01*
X384000Y297600D02*
X384200Y298000D01*
X384000Y298400D01*
X384400Y298200D01*
X384800Y298400D01*
X384600Y298000D01*
X384800Y297600D01*
X384400Y297800D01*
X384000Y297600D01*
X813481Y297200D02*
X813881Y298000D01*
X813481Y298800D01*
X814281Y298400D01*
X815081Y298800D01*
X814681Y298000D01*
X815081Y297200D01*
X814281Y297600D01*
X813481Y297200D01*
X813881Y297600D02*
X814081Y298000D01*
X813881Y298400D01*
X814281Y298200D01*
X814681Y298400D01*
X814481Y298000D01*
X814681Y297600D01*
X814281Y297800D01*
X813881Y297600D01*
X598400Y284575D02*
X598800Y285375D01*
X598400Y286175D01*
X599200Y285775D01*
X600000Y286175D01*
X599600Y285375D01*
X600000Y284575D01*
X599200Y284975D01*
X598400Y284575D01*
X598800Y284975D02*
X599000Y285375D01*
X598800Y285775D01*
X599200Y285575D01*
X599600Y285775D01*
X599400Y285375D01*
X599600Y284975D01*
X599200Y285175D01*
X598800Y284975D01*
X838481Y284656D02*
X838881Y285456D01*
X838481Y286256D01*
X839281Y285856D01*
X840081Y286256D01*
X839681Y285456D01*
X840081Y284656D01*
X839281Y285056D01*
X838481Y284656D01*
X838881Y285056D02*
X839081Y285456D01*
X838881Y285856D01*
X839281Y285656D01*
X839681Y285856D01*
X839481Y285456D01*
X839681Y285056D01*
X839281Y285256D01*
X838881Y285056D01*
X515400Y284675D02*
X515800Y285475D01*
X515400Y286275D01*
X516200Y285875D01*
X517000Y286275D01*
X516600Y285475D01*
X517000Y284675D01*
X516200Y285075D01*
X515400Y284675D01*
X515800Y285075D02*
X516000Y285475D01*
X515800Y285875D01*
X516200Y285675D01*
X516600Y285875D01*
X516400Y285475D01*
X516600Y285075D01*
X516200Y285275D01*
X515800Y285075D01*
X538338Y281487D02*
X538738Y282288D01*
X538338Y283087D01*
X539138Y282687D01*
X539938Y283087D01*
X539538Y282288D01*
X539938Y281487D01*
X539138Y281888D01*
X538338Y281487D01*
X538738Y281888D02*
X538938Y282288D01*
X538738Y282687D01*
X539138Y282488D01*
X539538Y282687D01*
X539338Y282288D01*
X539538Y281888D01*
X539138Y282087D01*
X538738Y281888D01*
X547625Y275075D02*
X548025Y275875D01*
X547625Y276675D01*
X548425Y276275D01*
X549225Y276675D01*
X548825Y275875D01*
X549225Y275075D01*
X548425Y275475D01*
X547625Y275075D01*
X548025Y275475D02*
X548225Y275875D01*
X548025Y276275D01*
X548425Y276075D01*
X548825Y276275D01*
X548625Y275875D01*
X548825Y275475D01*
X548425Y275675D01*
X548025Y275475D01*
X441300Y278275D02*
X441700Y279075D01*
X441300Y279875D01*
X442100Y279475D01*
X442900Y279875D01*
X442500Y279075D01*
X442900Y278275D01*
X442100Y278675D01*
X441300Y278275D01*
X441700Y278675D02*
X441900Y279075D01*
X441700Y279475D01*
X442100Y279275D01*
X442500Y279475D01*
X442300Y279075D01*
X442500Y278675D01*
X442100Y278875D01*
X441700Y278675D01*
X446868Y281475D02*
X447268Y282275D01*
X446868Y283075D01*
X447668Y282675D01*
X448468Y283075D01*
X448068Y282275D01*
X448468Y281475D01*
X447668Y281875D01*
X446868Y281475D01*
X447268Y281875D02*
X447468Y282275D01*
X447268Y282675D01*
X447668Y282475D01*
X448068Y282675D01*
X447868Y282275D01*
X448068Y281875D01*
X447668Y282075D01*
X447268Y281875D01*
X486863Y368346D02*
X487263Y369146D01*
X486863Y369946D01*
X487663Y369546D01*
X488463Y369946D01*
X488063Y369146D01*
X488463Y368346D01*
X487663Y368746D01*
X486863Y368346D01*
X487263Y368746D02*
X487463Y369146D01*
X487263Y369546D01*
X487663Y369346D01*
X488063Y369546D01*
X487863Y369146D01*
X488063Y368746D01*
X487663Y368946D01*
X487263Y368746D01*
X443556Y424450D02*
X443956Y425250D01*
X443556Y426050D01*
X444356Y425650D01*
X445156Y426050D01*
X444756Y425250D01*
X445156Y424450D01*
X444356Y424850D01*
X443556Y424450D01*
X443956Y424850D02*
X444156Y425250D01*
X443956Y425650D01*
X444356Y425450D01*
X444756Y425650D01*
X444556Y425250D01*
X444756Y424850D01*
X444356Y425050D01*
X443956Y424850D01*
X447493Y424450D02*
X447893Y425250D01*
X447493Y426050D01*
X448293Y425650D01*
X449093Y426050D01*
X448693Y425250D01*
X449093Y424450D01*
X448293Y424850D01*
X447493Y424450D01*
X447893Y424850D02*
X448093Y425250D01*
X447893Y425650D01*
X448293Y425450D01*
X448693Y425650D01*
X448493Y425250D01*
X448693Y424850D01*
X448293Y425050D01*
X447893Y424850D01*
X451430Y424450D02*
X451830Y425250D01*
X451430Y426050D01*
X452230Y425650D01*
X453030Y426050D01*
X452630Y425250D01*
X453030Y424450D01*
X452230Y424850D01*
X451430Y424450D01*
X451830Y424850D02*
X452030Y425250D01*
X451830Y425650D01*
X452230Y425450D01*
X452630Y425650D01*
X452430Y425250D01*
X452630Y424850D01*
X452230Y425050D01*
X451830Y424850D01*
X455367Y424450D02*
X455767Y425250D01*
X455367Y426050D01*
X456167Y425650D01*
X456967Y426050D01*
X456567Y425250D01*
X456967Y424450D01*
X456167Y424850D01*
X455367Y424450D01*
X455767Y424850D02*
X455967Y425250D01*
X455767Y425650D01*
X456167Y425450D01*
X456567Y425650D01*
X456367Y425250D01*
X456567Y424850D01*
X456167Y425050D01*
X455767Y424850D01*
X288481Y389432D02*
X288881Y390232D01*
X288481Y391032D01*
X289281Y390632D01*
X290081Y391032D01*
X289681Y390232D01*
X290081Y389432D01*
X289281Y389832D01*
X288481Y389432D01*
X288881Y389832D02*
X289081Y390232D01*
X288881Y390632D01*
X289281Y390432D01*
X289681Y390632D01*
X289481Y390232D01*
X289681Y389832D01*
X289281Y390032D01*
X288881Y389832D01*
X1325838Y232250D02*
X1326238Y233050D01*
X1325838Y233850D01*
X1326638Y233450D01*
X1327438Y233850D01*
X1327038Y233050D01*
X1327438Y232250D01*
X1326638Y232650D01*
X1325838Y232250D01*
X1326238Y232650D02*
X1326438Y233050D01*
X1326238Y233450D01*
X1326638Y233250D01*
X1327038Y233450D01*
X1326838Y233050D01*
X1327038Y232650D01*
X1326638Y232850D01*
X1326238Y232650D01*
X1118050Y239432D02*
X1118450Y240232D01*
X1118050Y241032D01*
X1118850Y240632D01*
X1119650Y241032D01*
X1119250Y240232D01*
X1119650Y239432D01*
X1118850Y239832D01*
X1118050Y239432D01*
X1118450Y239832D02*
X1118650Y240232D01*
X1118450Y240632D01*
X1118850Y240432D01*
X1119250Y240632D01*
X1119050Y240232D01*
X1119250Y239832D01*
X1118850Y240032D01*
X1118450Y239832D01*
X763481Y231781D02*
X763881Y232581D01*
X763481Y233381D01*
X764281Y232981D01*
X765081Y233381D01*
X764681Y232581D01*
X765081Y231781D01*
X764281Y232181D01*
X763481Y231781D01*
X763881Y232181D02*
X764081Y232581D01*
X763881Y232981D01*
X764281Y232781D01*
X764681Y232981D01*
X764481Y232581D01*
X764681Y232181D01*
X764281Y232381D01*
X763881Y232181D01*
X763338Y278275D02*
X763738Y279075D01*
X763338Y279875D01*
X764138Y279475D01*
X764938Y279875D01*
X764538Y279075D01*
X764938Y278275D01*
X764138Y278675D01*
X763338Y278275D01*
X763738Y278675D02*
X763938Y279075D01*
X763738Y279475D01*
X764138Y279275D01*
X764538Y279475D01*
X764338Y279075D01*
X764538Y278675D01*
X764138Y278875D01*
X763738Y278675D01*
X467178Y368346D02*
X467578Y369146D01*
X467178Y369946D01*
X467978Y369546D01*
X468778Y369946D01*
X468378Y369146D01*
X468778Y368346D01*
X467978Y368746D01*
X467178Y368346D01*
X467578Y368746D02*
X467778Y369146D01*
X467578Y369546D01*
X467978Y369346D01*
X468378Y369546D01*
X468178Y369146D01*
X468378Y368746D01*
X467978Y368946D01*
X467578Y368746D01*
X548644Y120750D02*
X549044Y121550D01*
X548644Y122350D01*
X549444Y121950D01*
X550244Y122350D01*
X549844Y121550D01*
X550244Y120750D01*
X549444Y121150D01*
X548644Y120750D01*
X549044Y121150D02*
X549244Y121550D01*
X549044Y121950D01*
X549444Y121750D01*
X549844Y121950D01*
X549644Y121550D01*
X549844Y121150D01*
X549444Y121350D01*
X549044Y121150D01*
X475052Y368346D02*
X475452Y369146D01*
X475052Y369946D01*
X475852Y369546D01*
X476652Y369946D01*
X476252Y369146D01*
X476652Y368346D01*
X475852Y368746D01*
X475052Y368346D01*
X475452Y368746D02*
X475652Y369146D01*
X475452Y369546D01*
X475852Y369346D01*
X476252Y369546D01*
X476052Y369146D01*
X476252Y368746D01*
X475852Y368946D01*
X475452Y368746D01*
X447493Y385654D02*
X447893Y386454D01*
X447493Y387254D01*
X448293Y386854D01*
X449093Y387254D01*
X448693Y386454D01*
X449093Y385654D01*
X448293Y386054D01*
X447493Y385654D01*
X447893Y386054D02*
X448093Y386454D01*
X447893Y386854D01*
X448293Y386654D01*
X448693Y386854D01*
X448493Y386454D01*
X448693Y386054D01*
X448293Y386254D01*
X447893Y386054D01*
X451430Y385654D02*
X451830Y386454D01*
X451430Y387254D01*
X452230Y386854D01*
X453030Y387254D01*
X452630Y386454D01*
X453030Y385654D01*
X452230Y386054D01*
X451430Y385654D01*
X451830Y386054D02*
X452030Y386454D01*
X451830Y386854D01*
X452230Y386654D01*
X452630Y386854D01*
X452430Y386454D01*
X452630Y386054D01*
X452230Y386254D01*
X451830Y386054D01*
X443556Y385654D02*
X443956Y386454D01*
X443556Y387254D01*
X444356Y386854D01*
X445156Y387254D01*
X444756Y386454D01*
X445156Y385654D01*
X444356Y386054D01*
X443556Y385654D01*
X443956Y386054D02*
X444156Y386454D01*
X443956Y386854D01*
X444356Y386654D01*
X444756Y386854D01*
X444556Y386454D01*
X444756Y386054D01*
X444356Y386254D01*
X443956Y386054D01*
X1250982Y123968D02*
X1251382Y124768D01*
X1250982Y125568D01*
X1251782Y125168D01*
X1252582Y125568D01*
X1252182Y124768D01*
X1252582Y123968D01*
X1251782Y124368D01*
X1250982Y123968D01*
X1251382Y124368D02*
X1251582Y124768D01*
X1251382Y125168D01*
X1251782Y124968D01*
X1252182Y125168D01*
X1251982Y124768D01*
X1252182Y124368D01*
X1251782Y124568D01*
X1251382Y124368D01*
X869737Y136750D02*
X870137Y137550D01*
X869737Y138350D01*
X870537Y137950D01*
X871337Y138350D01*
X870937Y137550D01*
X871337Y136750D01*
X870537Y137150D01*
X869737Y136750D01*
X870137Y137150D02*
X870337Y137550D01*
X870137Y137950D01*
X870537Y137750D01*
X870937Y137950D01*
X870737Y137550D01*
X870937Y137150D01*
X870537Y137350D01*
X870137Y137150D01*
X782237Y136750D02*
X782637Y137550D01*
X782237Y138350D01*
X783037Y137950D01*
X783837Y138350D01*
X783437Y137550D01*
X783837Y136750D01*
X783037Y137150D01*
X782237Y136750D01*
X782637Y137150D02*
X782837Y137550D01*
X782637Y137950D01*
X783037Y137750D01*
X783437Y137950D01*
X783237Y137550D01*
X783437Y137150D01*
X783037Y137350D01*
X782637Y137150D01*
X393800Y346200D02*
X394200Y347000D01*
X393800Y347800D01*
X394600Y347400D01*
X395400Y347800D01*
X395000Y347000D01*
X395400Y346200D01*
X394600Y346600D01*
X393800Y346200D01*
X394200Y346600D02*
X394400Y347000D01*
X394200Y347400D01*
X394600Y347200D01*
X395000Y347400D01*
X394800Y347000D01*
X395000Y346600D01*
X394600Y346800D01*
X394200Y346600D01*
X532200Y340706D02*
X532600Y341506D01*
X532200Y342306D01*
X533000Y341906D01*
X533800Y342306D01*
X533400Y341506D01*
X533800Y340706D01*
X533000Y341106D01*
X532200Y340706D01*
X532600Y341106D02*
X532800Y341506D01*
X532600Y341906D01*
X533000Y341706D01*
X533400Y341906D01*
X533200Y341506D01*
X533400Y341106D01*
X533000Y341306D01*
X532600Y341106D01*
X154015Y127150D02*
X154415Y127950D01*
X154015Y128750D01*
X154815Y128350D01*
X155615Y128750D01*
X155215Y127950D01*
X155615Y127150D01*
X154815Y127550D01*
X154015Y127150D01*
X154415Y127550D02*
X154615Y127950D01*
X154415Y128350D01*
X154815Y128150D01*
X155215Y128350D01*
X155015Y127950D01*
X155215Y127550D01*
X154815Y127750D01*
X154415Y127550D01*
X607500Y271800D02*
X607900Y272600D01*
X607500Y273400D01*
X608300Y273000D01*
X609100Y273400D01*
X608700Y272600D01*
X609100Y271800D01*
X608300Y272200D01*
X607500Y271800D01*
X607900Y272200D02*
X608100Y272600D01*
X607900Y273000D01*
X608300Y272800D01*
X608700Y273000D01*
X608500Y272600D01*
X608700Y272200D01*
X608300Y272400D01*
X607900Y272200D01*
X163481Y232100D02*
X163881Y232900D01*
X163481Y233700D01*
X164281Y233300D01*
X165081Y233700D01*
X164681Y232900D01*
X165081Y232100D01*
X164281Y232500D01*
X163481Y232100D01*
X163881Y232500D02*
X164081Y232900D01*
X163881Y233300D01*
X164281Y233100D01*
X164681Y233300D01*
X164481Y232900D01*
X164681Y232500D01*
X164281Y232700D01*
X163881Y232500D01*
X232237Y232100D02*
X232637Y232900D01*
X232237Y233700D01*
X233037Y233300D01*
X233837Y233700D01*
X233437Y232900D01*
X233837Y232100D01*
X233037Y232500D01*
X232237Y232100D01*
X232637Y232500D02*
X232837Y232900D01*
X232637Y233300D01*
X233037Y233100D01*
X233437Y233300D01*
X233237Y232900D01*
X233437Y232500D01*
X233037Y232700D01*
X232637Y232500D01*
X419737Y232100D02*
X420137Y232900D01*
X419737Y233700D01*
X420537Y233300D01*
X421337Y233700D01*
X420937Y232900D01*
X421337Y232100D01*
X420537Y232500D01*
X419737Y232100D01*
X420137Y232500D02*
X420337Y232900D01*
X420137Y233300D01*
X420537Y233100D01*
X420937Y233300D01*
X420737Y232900D01*
X420937Y232500D01*
X420537Y232700D01*
X420137Y232500D01*
X475983Y232100D02*
X476383Y232900D01*
X475983Y233700D01*
X476783Y233300D01*
X477583Y233700D01*
X477183Y232900D01*
X477583Y232100D01*
X476783Y232500D01*
X475983Y232100D01*
X476383Y232500D02*
X476583Y232900D01*
X476383Y233300D01*
X476783Y233100D01*
X477183Y233300D01*
X476983Y232900D01*
X477183Y232500D01*
X476783Y232700D01*
X476383Y232500D01*
X1225982Y130350D02*
X1226382Y131150D01*
X1225982Y131950D01*
X1226782Y131550D01*
X1227582Y131950D01*
X1227182Y131150D01*
X1227582Y130350D01*
X1226782Y130750D01*
X1225982Y130350D01*
X1226382Y130750D02*
X1226582Y131150D01*
X1226382Y131550D01*
X1226782Y131350D01*
X1227182Y131550D01*
X1226982Y131150D01*
X1227182Y130750D01*
X1226782Y130950D01*
X1226382Y130750D01*
X472550Y123950D02*
X472950Y124750D01*
X472550Y125550D01*
X473350Y125150D01*
X474150Y125550D01*
X473750Y124750D01*
X474150Y123950D01*
X473350Y124350D01*
X472550Y123950D01*
X472950Y124350D02*
X473150Y124750D01*
X472950Y125150D01*
X473350Y124950D01*
X473750Y125150D01*
X473550Y124750D01*
X473750Y124350D01*
X473350Y124550D01*
X472950Y124350D01*
X457237Y127150D02*
X457637Y127950D01*
X457237Y128750D01*
X458037Y128350D01*
X458837Y128750D01*
X458437Y127950D01*
X458837Y127150D01*
X458037Y127550D01*
X457237Y127150D01*
X457637Y127550D02*
X457837Y127950D01*
X457637Y128350D01*
X458037Y128150D01*
X458437Y128350D01*
X458237Y127950D01*
X458437Y127550D01*
X458037Y127750D01*
X457637Y127550D01*
X271100Y275167D02*
X271500Y275967D01*
X271100Y276767D01*
X271900Y276367D01*
X272700Y276767D01*
X272300Y275967D01*
X272700Y275167D01*
X271900Y275567D01*
X271100Y275167D01*
X271500Y275567D02*
X271700Y275967D01*
X271500Y276367D01*
X271900Y276167D01*
X272300Y276367D01*
X272100Y275967D01*
X272300Y275567D01*
X271900Y275767D01*
X271500Y275567D01*
X351100Y275167D02*
X351500Y275967D01*
X351100Y276767D01*
X351900Y276367D01*
X352700Y276767D01*
X352300Y275967D01*
X352700Y275167D01*
X351900Y275567D01*
X351100Y275167D01*
X351500Y275567D02*
X351700Y275967D01*
X351500Y276367D01*
X351900Y276167D01*
X352300Y276367D01*
X352100Y275967D01*
X352300Y275567D01*
X351900Y275767D01*
X351500Y275567D01*
X84500Y365417D02*
X84900Y366217D01*
X84500Y367017D01*
X85300Y366617D01*
X86100Y367017D01*
X85700Y366217D01*
X86100Y365417D01*
X85300Y365817D01*
X84500Y365417D01*
X84900Y365817D02*
X85100Y366217D01*
X84900Y366617D01*
X85300Y366417D01*
X85700Y366617D01*
X85500Y366217D01*
X85700Y365817D01*
X85300Y366017D01*
X84900Y365817D01*
X69593Y324700D02*
X69993Y325500D01*
X69593Y326300D01*
X70393Y325900D01*
X71193Y326300D01*
X70793Y325500D01*
X71193Y324700D01*
X70393Y325100D01*
X69593Y324700D01*
X69993Y325100D02*
X70193Y325500D01*
X69993Y325900D01*
X70393Y325700D01*
X70793Y325900D01*
X70593Y325500D01*
X70793Y325100D01*
X70393Y325300D01*
X69993Y325100D01*
X62400Y321500D02*
X62800Y322300D01*
X62400Y323100D01*
X63200Y322700D01*
X64000Y323100D01*
X63600Y322300D01*
X64000Y321500D01*
X63200Y321900D01*
X62400Y321500D01*
X62800Y321900D02*
X63000Y322300D01*
X62800Y322700D01*
X63200Y322500D01*
X63600Y322700D01*
X63400Y322300D01*
X63600Y321900D01*
X63200Y322100D01*
X62800Y321900D01*
X77700Y378800D02*
X78100Y379600D01*
X77700Y380400D01*
X78500Y380000D01*
X79300Y380400D01*
X78900Y379600D01*
X79300Y378800D01*
X78500Y379200D01*
X77700Y378800D01*
X78100Y379200D02*
X78300Y379600D01*
X78100Y380000D01*
X78500Y379800D01*
X78900Y380000D01*
X78700Y379600D01*
X78900Y379200D01*
X78500Y379400D01*
X78100Y379200D01*
X97700Y232627D02*
X98100Y233427D01*
X97700Y234227D01*
X98500Y233827D01*
X99300Y234227D01*
X98900Y233427D01*
X99300Y232627D01*
X98500Y233027D01*
X97700Y232627D01*
X98100Y233027D02*
X98300Y233427D01*
X98100Y233827D01*
X98500Y233627D01*
X98900Y233827D01*
X98700Y233427D01*
X98900Y233027D01*
X98500Y233227D01*
X98100Y233027D01*
X455367Y385654D02*
X455767Y386454D01*
X455367Y387254D01*
X456167Y386854D01*
X456967Y387254D01*
X456567Y386454D01*
X456967Y385654D01*
X456167Y386054D01*
X455367Y385654D01*
X455767Y386054D02*
X455967Y386454D01*
X455767Y386854D01*
X456167Y386654D01*
X456567Y386854D01*
X456367Y386454D01*
X456567Y386054D01*
X456167Y386254D01*
X455767Y386054D01*
X514422Y424450D02*
X514822Y425250D01*
X514422Y426050D01*
X515222Y425650D01*
X516022Y426050D01*
X515622Y425250D01*
X516022Y424450D01*
X515222Y424850D01*
X514422Y424450D01*
X514822Y424850D02*
X515022Y425250D01*
X514822Y425650D01*
X515222Y425450D01*
X515622Y425650D01*
X515422Y425250D01*
X515622Y424850D01*
X515222Y425050D01*
X514822Y424850D01*
X514422Y385654D02*
X514822Y386454D01*
X514422Y387254D01*
X515222Y386854D01*
X516022Y387254D01*
X515622Y386454D01*
X516022Y385654D01*
X515222Y386054D01*
X514422Y385654D01*
X514822Y386054D02*
X515022Y386454D01*
X514822Y386854D01*
X515222Y386654D01*
X515622Y386854D01*
X515422Y386454D01*
X515622Y386054D01*
X515222Y386254D01*
X514822Y386054D01*
X594801Y51836D02*
X595201Y52636D01*
X594801Y53436D01*
X595601Y53036D01*
X596401Y53436D01*
X596001Y52636D01*
X596401Y51836D01*
X595601Y52236D01*
X594801Y51836D01*
X595201Y52236D02*
X595401Y52636D01*
X595201Y53036D01*
X595601Y52836D01*
X596001Y53036D01*
X595801Y52636D01*
X596001Y52236D01*
X595601Y52436D01*
X595201Y52236D01*
X150683Y355817D02*
X151083Y356617D01*
X150683Y357417D01*
X151483Y357017D01*
X152283Y357417D01*
X151883Y356617D01*
X152283Y355817D01*
X151483Y356217D01*
X150683Y355817D01*
X151083Y356217D02*
X151283Y356617D01*
X151083Y357017D01*
X151483Y356817D01*
X151883Y357017D01*
X151683Y356617D01*
X151883Y356217D01*
X151483Y356417D01*
X151083Y356217D01*
X613481Y196400D02*
X613881Y197200D01*
X613481Y198000D01*
X614281Y197600D01*
X615081Y198000D01*
X614681Y197200D01*
X615081Y196400D01*
X614281Y196800D01*
X613481Y196400D01*
X613881Y196800D02*
X614081Y197200D01*
X613881Y197600D01*
X614281Y197400D01*
X614681Y197600D01*
X614481Y197200D01*
X614681Y196800D01*
X614281Y197000D01*
X613881Y196800D01*
X738481Y360100D02*
X738881Y360900D01*
X738481Y361700D01*
X739281Y361300D01*
X740081Y361700D01*
X739681Y360900D01*
X740081Y360100D01*
X739281Y360500D01*
X738481Y360100D01*
X738881Y360500D02*
X739081Y360900D01*
X738881Y361300D01*
X739281Y361100D01*
X739681Y361300D01*
X739481Y360900D01*
X739681Y360500D01*
X739281Y360700D01*
X738881Y360500D01*
X439619Y385654D02*
X440019Y386454D01*
X439619Y387254D01*
X440419Y386854D01*
X441219Y387254D01*
X440819Y386454D01*
X441219Y385654D01*
X440419Y386054D01*
X439619Y385654D01*
X440019Y386054D02*
X440219Y386454D01*
X440019Y386854D01*
X440419Y386654D01*
X440819Y386854D01*
X440619Y386454D01*
X440819Y386054D01*
X440419Y386254D01*
X440019Y386054D01*
X350983Y359000D02*
X351383Y359800D01*
X350983Y360600D01*
X351783Y360200D01*
X352583Y360600D01*
X352183Y359800D01*
X352583Y359000D01*
X351783Y359400D01*
X350983Y359000D01*
X351383Y359400D02*
X351583Y359800D01*
X351383Y360200D01*
X351783Y360000D01*
X352183Y360200D01*
X351983Y359800D01*
X352183Y359400D01*
X351783Y359600D01*
X351383Y359400D01*
X69593Y362217D02*
X69993Y363017D01*
X69593Y363817D01*
X70393Y363417D01*
X71193Y363817D01*
X70793Y363017D01*
X71193Y362217D01*
X70393Y362617D01*
X69593Y362217D01*
X69993Y362617D02*
X70193Y363017D01*
X69993Y363417D01*
X70393Y363217D01*
X70793Y363417D01*
X70593Y363017D01*
X70793Y362617D01*
X70393Y362817D01*
X69993Y362617D01*
X304800Y352600D02*
X305200Y353400D01*
X304800Y354200D01*
X305600Y353800D01*
X306400Y354200D01*
X306000Y353400D01*
X306400Y352600D01*
X305600Y353000D01*
X304800Y352600D01*
X305200Y353000D02*
X305400Y353400D01*
X305200Y353800D01*
X305600Y353600D01*
X306000Y353800D01*
X305800Y353400D01*
X306000Y353000D01*
X305600Y353200D01*
X305200Y353000D01*
X200983Y352617D02*
X201383Y353417D01*
X200983Y354217D01*
X201783Y353817D01*
X202583Y354217D01*
X202183Y353417D01*
X202583Y352617D01*
X201783Y353017D01*
X200983Y352617D01*
X201383Y353017D02*
X201583Y353417D01*
X201383Y353817D01*
X201783Y353617D01*
X202183Y353817D01*
X201983Y353417D01*
X202183Y353017D01*
X201783Y353217D01*
X201383Y353017D01*
X99000Y352600D02*
X99400Y353400D01*
X99000Y354200D01*
X99800Y353800D01*
X100600Y354200D01*
X100200Y353400D01*
X100600Y352600D01*
X99800Y353000D01*
X99000Y352600D01*
X99400Y353000D02*
X99600Y353400D01*
X99400Y353800D01*
X99800Y353600D01*
X100200Y353800D01*
X100000Y353400D01*
X100200Y353000D01*
X99800Y353200D01*
X99400Y353000D01*
X490800Y389249D02*
X491200Y390049D01*
X490800Y390849D01*
X491600Y390449D01*
X492400Y390849D01*
X492000Y390049D01*
X492400Y389249D01*
X491600Y389649D01*
X490800Y389249D01*
X491200Y389649D02*
X491400Y390049D01*
X491200Y390449D01*
X491600Y390249D01*
X492000Y390449D01*
X491800Y390049D01*
X492000Y389649D01*
X491600Y389849D01*
X491200Y389649D01*
X526233Y385654D02*
X526633Y386454D01*
X526233Y387254D01*
X527033Y386854D01*
X527833Y387254D01*
X527433Y386454D01*
X527833Y385654D01*
X527033Y386054D01*
X526233Y385654D01*
X526633Y386054D02*
X526833Y386454D01*
X526633Y386854D01*
X527033Y386654D01*
X527433Y386854D01*
X527233Y386454D01*
X527433Y386054D01*
X527033Y386254D01*
X526633Y386054D01*
X526233Y421250D02*
X526633Y422050D01*
X526233Y422850D01*
X527033Y422450D01*
X527833Y422850D01*
X527433Y422050D01*
X527833Y421250D01*
X527033Y421650D01*
X526233Y421250D01*
X526633Y421650D02*
X526833Y422050D01*
X526633Y422450D01*
X527033Y422250D01*
X527433Y422450D01*
X527233Y422050D01*
X527433Y421650D01*
X527033Y421850D01*
X526633Y421650D01*
X1138200Y4200D02*
X1138600Y5000D01*
X1138200Y5800D01*
X1139000Y5400D01*
X1139800Y5800D01*
X1139400Y5000D01*
X1139800Y4200D01*
X1139000Y4600D01*
X1138200Y4200D01*
X1138600Y4600D02*
X1138800Y5000D01*
X1138600Y5400D01*
X1139000Y5200D01*
X1139400Y5400D01*
X1139200Y5000D01*
X1139400Y4600D01*
X1139000Y4800D01*
X1138600Y4600D01*
X1129400Y324432D02*
X1129800Y325232D01*
X1129400Y326032D01*
X1130200Y325632D01*
X1131000Y326032D01*
X1130600Y325232D01*
X1131000Y324432D01*
X1130200Y324832D01*
X1129400Y324432D01*
X1129800Y324832D02*
X1130000Y325232D01*
X1129800Y325632D01*
X1130200Y325432D01*
X1130600Y325632D01*
X1130400Y325232D01*
X1130600Y324832D01*
X1130200Y325032D01*
X1129800Y324832D01*
X1250838Y305438D02*
X1251238Y306238D01*
X1250838Y307038D01*
X1251638Y306638D01*
X1252438Y307038D01*
X1252038Y306238D01*
X1252438Y305438D01*
X1251638Y305838D01*
X1250838Y305438D01*
X1251238Y305838D02*
X1251438Y306238D01*
X1251238Y306638D01*
X1251638Y306438D01*
X1252038Y306638D01*
X1251838Y306238D01*
X1252038Y305838D01*
X1251638Y306038D01*
X1251238Y305838D01*
X1300982Y298218D02*
X1301382Y299018D01*
X1300982Y299818D01*
X1301782Y299418D01*
X1302582Y299818D01*
X1302182Y299018D01*
X1302582Y298218D01*
X1301782Y298618D01*
X1300982Y298218D01*
X1301382Y298618D02*
X1301582Y299018D01*
X1301382Y299418D01*
X1301782Y299218D01*
X1302182Y299418D01*
X1301982Y299018D01*
X1302182Y298618D01*
X1301782Y298818D01*
X1301382Y298618D01*
X1375981Y249432D02*
X1376381Y250232D01*
X1375981Y251032D01*
X1376781Y250632D01*
X1377581Y251032D01*
X1377181Y250232D01*
X1377581Y249432D01*
X1376781Y249832D01*
X1375981Y249432D01*
X1376381Y249832D02*
X1376581Y250232D01*
X1376381Y250632D01*
X1376781Y250432D01*
X1377181Y250632D01*
X1376981Y250232D01*
X1377181Y249832D01*
X1376781Y250032D01*
X1376381Y249832D01*
X1360800Y317632D02*
X1361200Y318432D01*
X1360800Y319232D01*
X1361600Y318832D01*
X1362400Y319232D01*
X1362000Y318432D01*
X1362400Y317632D01*
X1361600Y318032D01*
X1360800Y317632D01*
X1361200Y318032D02*
X1361400Y318432D01*
X1361200Y318832D01*
X1361600Y318632D01*
X1362000Y318832D01*
X1361800Y318432D01*
X1362000Y318032D01*
X1361600Y318232D01*
X1361200Y318032D01*
X744737Y21463D02*
X745137Y22263D01*
X744737Y23063D01*
X745537Y22663D01*
X746337Y23063D01*
X745937Y22263D01*
X746337Y21463D01*
X745537Y21863D01*
X744737Y21463D01*
X745137Y21863D02*
X745337Y22263D01*
X745137Y22663D01*
X745537Y22463D01*
X745937Y22663D01*
X745737Y22263D01*
X745937Y21863D01*
X745537Y22063D01*
X745137Y21863D01*
X569737Y21463D02*
X570137Y22263D01*
X569737Y23063D01*
X570537Y22663D01*
X571337Y23063D01*
X570937Y22263D01*
X571337Y21463D01*
X570537Y21863D01*
X569737Y21463D01*
X570137Y21863D02*
X570337Y22263D01*
X570137Y22663D01*
X570537Y22463D01*
X570937Y22663D01*
X570737Y22263D01*
X570937Y21863D01*
X570537Y22063D01*
X570137Y21863D01*
X384300Y89432D02*
X384700Y90232D01*
X384300Y91032D01*
X385100Y90632D01*
X385900Y91032D01*
X385500Y90232D01*
X385900Y89432D01*
X385100Y89832D01*
X384300Y89432D01*
X384700Y89832D02*
X384900Y90232D01*
X384700Y90632D01*
X385100Y90432D01*
X385500Y90632D01*
X385300Y90232D01*
X385500Y89832D01*
X385100Y90032D01*
X384700Y89832D01*
X363481Y390800D02*
X363881Y391600D01*
X363481Y392400D01*
X364281Y392000D01*
X365081Y392400D01*
X364681Y391600D01*
X365081Y390800D01*
X364281Y391200D01*
X363481Y390800D01*
X363881Y391200D02*
X364081Y391600D01*
X363881Y392000D01*
X364281Y391800D01*
X364681Y392000D01*
X364481Y391600D01*
X364681Y391200D01*
X364281Y391400D01*
X363881Y391200D01*
X794737Y300400D02*
X795137Y301200D01*
X794737Y302000D01*
X795537Y301600D01*
X796337Y302000D01*
X795937Y301200D01*
X796337Y300400D01*
X795537Y300800D01*
X794737Y300400D01*
X795137Y300800D02*
X795337Y301200D01*
X795137Y301600D01*
X795537Y301400D01*
X795937Y301600D01*
X795737Y301200D01*
X795937Y300800D01*
X795537Y301000D01*
X795137Y300800D01*
X288481Y300400D02*
X288881Y301200D01*
X288481Y302000D01*
X289281Y301600D01*
X290081Y302000D01*
X289681Y301200D01*
X290081Y300400D01*
X289281Y300800D01*
X288481Y300400D01*
X288881Y300800D02*
X289081Y301200D01*
X288881Y301600D01*
X289281Y301400D01*
X289681Y301600D01*
X289481Y301200D01*
X289681Y300800D01*
X289281Y301000D01*
X288881Y300800D01*
X1349800Y419750D02*
X1350200Y420550D01*
X1349800Y421350D01*
X1350600Y420950D01*
X1351400Y421350D01*
X1351000Y420550D01*
X1351400Y419750D01*
X1350600Y420150D01*
X1349800Y419750D01*
X1350200Y420150D02*
X1350400Y420550D01*
X1350200Y420950D01*
X1350600Y420750D01*
X1351000Y420950D01*
X1350800Y420550D01*
X1351000Y420150D01*
X1350600Y420350D01*
X1350200Y420150D01*
X1038482Y239427D02*
X1038882Y240227D01*
X1038482Y241027D01*
X1039282Y240627D01*
X1040082Y241027D01*
X1039682Y240227D01*
X1040082Y239427D01*
X1039282Y239827D01*
X1038482Y239427D01*
X1038882Y239827D02*
X1039082Y240227D01*
X1038882Y240627D01*
X1039282Y240427D01*
X1039682Y240627D01*
X1039482Y240227D01*
X1039682Y239827D01*
X1039282Y240027D01*
X1038882Y239827D01*
X439619Y424450D02*
X440019Y425250D01*
X439619Y426050D01*
X440419Y425650D01*
X441219Y426050D01*
X440819Y425250D01*
X441219Y424450D01*
X440419Y424850D01*
X439619Y424450D01*
X440019Y424850D02*
X440219Y425250D01*
X440019Y425650D01*
X440419Y425450D01*
X440819Y425650D01*
X440619Y425250D01*
X440819Y424850D01*
X440419Y425050D01*
X440019Y424850D01*
X1205900Y133550D02*
X1206300Y134350D01*
X1205900Y135150D01*
X1206700Y134750D01*
X1207500Y135150D01*
X1207100Y134350D01*
X1207500Y133550D01*
X1206700Y133950D01*
X1205900Y133550D01*
X1206300Y133950D02*
X1206500Y134350D01*
X1206300Y134750D01*
X1206700Y134550D01*
X1207100Y134750D01*
X1206900Y134350D01*
X1207100Y133950D01*
X1206700Y134150D01*
X1206300Y133950D01*
X1205900Y99432D02*
X1206300Y100232D01*
X1205900Y101032D01*
X1206700Y100632D01*
X1207500Y101032D01*
X1207100Y100232D01*
X1207500Y99432D01*
X1206700Y99832D01*
X1205900Y99432D01*
X1206300Y99832D02*
X1206500Y100232D01*
X1206300Y100632D01*
X1206700Y100432D01*
X1207100Y100632D01*
X1206900Y100232D01*
X1207100Y99832D01*
X1206700Y100032D01*
X1206300Y99832D01*
X1365000Y280300D02*
X1365400Y281100D01*
X1365000Y281900D01*
X1365800Y281500D01*
X1366600Y281900D01*
X1366200Y281100D01*
X1366600Y280300D01*
X1365800Y280700D01*
X1365000Y280300D01*
X1365400Y280700D02*
X1365600Y281100D01*
X1365400Y281500D01*
X1365800Y281300D01*
X1366200Y281500D01*
X1366000Y281100D01*
X1366200Y280700D01*
X1365800Y280900D01*
X1365400Y280700D01*
X62400Y291900D02*
X62800Y292700D01*
X62400Y293500D01*
X63200Y293100D01*
X64000Y293500D01*
X63600Y292700D01*
X64000Y291900D01*
X63200Y292300D01*
X62400Y291900D01*
X62800Y292300D02*
X63000Y292700D01*
X62800Y293100D01*
X63200Y292900D01*
X63600Y293100D01*
X63400Y292700D01*
X63600Y292300D01*
X63200Y292500D01*
X62800Y292300D01*
X62400Y311100D02*
X62800Y311900D01*
X62400Y312700D01*
X63200Y312300D01*
X64000Y312700D01*
X63600Y311900D01*
X64000Y311100D01*
X63200Y311500D01*
X62400Y311100D01*
X62800Y311500D02*
X63000Y311900D01*
X62800Y312300D01*
X63200Y312100D01*
X63600Y312300D01*
X63400Y311900D01*
X63600Y311500D01*
X63200Y311700D01*
X62800Y311500D01*
X700982Y366500D02*
X701382Y367300D01*
X700982Y368100D01*
X701782Y367700D01*
X702582Y368100D01*
X702182Y367300D01*
X702582Y366500D01*
X701782Y366900D01*
X700982Y366500D01*
X701382Y366900D02*
X701582Y367300D01*
X701382Y367700D01*
X701782Y367500D01*
X702182Y367700D01*
X701982Y367300D01*
X702182Y366900D01*
X701782Y367100D01*
X701382Y366900D01*
X950840Y363300D02*
X951240Y364100D01*
X950840Y364900D01*
X951640Y364500D01*
X952440Y364900D01*
X952040Y364100D01*
X952440Y363300D01*
X951640Y363700D01*
X950840Y363300D01*
X951240Y363700D02*
X951440Y364100D01*
X951240Y364500D01*
X951640Y364300D01*
X952040Y364500D01*
X951840Y364100D01*
X952040Y363700D01*
X951640Y363900D01*
X951240Y363700D01*
X1279800Y353700D02*
X1280200Y354500D01*
X1279800Y355300D01*
X1280600Y354900D01*
X1281400Y355300D01*
X1281000Y354500D01*
X1281400Y353700D01*
X1280600Y354100D01*
X1279800Y353700D01*
X1280200Y354100D02*
X1280400Y354500D01*
X1280200Y354900D01*
X1280600Y354700D01*
X1281000Y354900D01*
X1280800Y354500D01*
X1281000Y354100D01*
X1280600Y354300D01*
X1280200Y354100D01*
X260700Y246327D02*
X261100Y247127D01*
X260700Y247927D01*
X261500Y247527D01*
X262300Y247927D01*
X261900Y247127D01*
X262300Y246327D01*
X261500Y246727D01*
X260700Y246327D01*
X261100Y246727D02*
X261300Y247127D01*
X261100Y247527D01*
X261500Y247327D01*
X261900Y247527D01*
X261700Y247127D01*
X261900Y246727D01*
X261500Y246927D01*
X261100Y246727D01*
X625983Y239443D02*
X626383Y240243D01*
X625983Y241043D01*
X626783Y240643D01*
X627583Y241043D01*
X627183Y240243D01*
X627583Y239443D01*
X626783Y239843D01*
X625983Y239443D01*
X626383Y239843D02*
X626583Y240243D01*
X626383Y240643D01*
X626783Y240443D01*
X627183Y240643D01*
X626983Y240243D01*
X627183Y239843D01*
X626783Y240043D01*
X626383Y239843D01*
X625983Y356900D02*
X626383Y357700D01*
X625983Y358500D01*
X626783Y358100D01*
X627583Y358500D01*
X627183Y357700D01*
X627583Y356900D01*
X626783Y357300D01*
X625983Y356900D01*
X626383Y357300D02*
X626583Y357700D01*
X626383Y358100D01*
X626783Y357900D01*
X627183Y358100D01*
X626983Y357700D01*
X627183Y357300D01*
X626783Y357500D01*
X626383Y357300D01*
X1083413Y350500D02*
X1083813Y351300D01*
X1083413Y352100D01*
X1084213Y351700D01*
X1085013Y352100D01*
X1084613Y351300D01*
X1085013Y350500D01*
X1084213Y350900D01*
X1083413Y350500D01*
X1083813Y350900D02*
X1084013Y351300D01*
X1083813Y351700D01*
X1084213Y351500D01*
X1084613Y351700D01*
X1084413Y351300D01*
X1084613Y350900D01*
X1084213Y351100D01*
X1083813Y350900D01*
X963482Y139950D02*
X963882Y140750D01*
X963482Y141550D01*
X964282Y141150D01*
X965082Y141550D01*
X964682Y140750D01*
X965082Y139950D01*
X964282Y140350D01*
X963482Y139950D01*
X963882Y140350D02*
X964082Y140750D01*
X963882Y141150D01*
X964282Y140950D01*
X964682Y141150D01*
X964482Y140750D01*
X964682Y140350D01*
X964282Y140550D01*
X963882Y140350D01*
X963482Y353682D02*
X963882Y354482D01*
X963482Y355282D01*
X964282Y354882D01*
X965082Y355282D01*
X964682Y354482D01*
X965082Y353682D01*
X964282Y354082D01*
X963482Y353682D01*
X963882Y354082D02*
X964082Y354482D01*
X963882Y354882D01*
X964282Y354682D01*
X964682Y354882D01*
X964482Y354482D01*
X964682Y354082D01*
X964282Y354282D01*
X963882Y354082D01*
X925983Y350500D02*
X926383Y351300D01*
X925983Y352100D01*
X926783Y351700D01*
X927583Y352100D01*
X927183Y351300D01*
X927583Y350500D01*
X926783Y350900D01*
X925983Y350500D01*
X926383Y350900D02*
X926583Y351300D01*
X926383Y351700D01*
X926783Y351500D01*
X927183Y351700D01*
X926983Y351300D01*
X927183Y350900D01*
X926783Y351100D01*
X926383Y350900D01*
X683300Y347300D02*
X683700Y348100D01*
X683300Y348900D01*
X684100Y348500D01*
X684900Y348900D01*
X684500Y348100D01*
X684900Y347300D01*
X684100Y347700D01*
X683300Y347300D01*
X683700Y347700D02*
X683900Y348100D01*
X683700Y348500D01*
X684100Y348300D01*
X684500Y348500D01*
X684300Y348100D01*
X684500Y347700D01*
X684100Y347900D01*
X683700Y347700D01*
X889900Y347300D02*
X890300Y348100D01*
X889900Y348900D01*
X890700Y348500D01*
X891500Y348900D01*
X891100Y348100D01*
X891500Y347300D01*
X890700Y347700D01*
X889900Y347300D01*
X890300Y347700D02*
X890500Y348100D01*
X890300Y348500D01*
X890700Y348300D01*
X891100Y348500D01*
X890900Y348100D01*
X891100Y347700D01*
X890700Y347900D01*
X890300Y347700D01*
X1150982Y350500D02*
X1151382Y351300D01*
X1150982Y352100D01*
X1151782Y351700D01*
X1152582Y352100D01*
X1152182Y351300D01*
X1152582Y350500D01*
X1151782Y350900D01*
X1150982Y350500D01*
X1151382Y350900D02*
X1151582Y351300D01*
X1151382Y351700D01*
X1151782Y351500D01*
X1152182Y351700D01*
X1151982Y351300D01*
X1152182Y350900D01*
X1151782Y351100D01*
X1151382Y350900D01*
X1225982Y350500D02*
X1226382Y351300D01*
X1225982Y352100D01*
X1226782Y351700D01*
X1227582Y352100D01*
X1227182Y351300D01*
X1227582Y350500D01*
X1226782Y350900D01*
X1225982Y350500D01*
X1226382Y350900D02*
X1226582Y351300D01*
X1226382Y351700D01*
X1226782Y351500D01*
X1227182Y351700D01*
X1226982Y351300D01*
X1227182Y350900D01*
X1226782Y351100D01*
X1226382Y350900D01*
D72*
X253400Y220079D02*
X252847Y220840D01*
X251953Y220549D01*
Y219608D01*
X252847Y219318D01*
X253400Y220079D01*
Y225000D02*
X252847Y225761D01*
X251953Y225470D01*
Y224530D01*
X252847Y224239D01*
X253400Y225000D01*
X827500Y293700D02*
X826947Y294461D01*
X826053Y294170D01*
Y293230D01*
X826947Y292939D01*
X827500Y293700D01*
X822579D02*
X822026Y294461D01*
X821132Y294170D01*
Y293230D01*
X822026Y292939D01*
X822579Y293700D01*
X952582Y25232D02*
X952029Y25993D01*
X951134Y25703D01*
Y24762D01*
X952029Y24471D01*
X952582Y25232D01*
X927582Y15232D02*
X927029Y15993D01*
X926134Y15702D01*
Y14762D01*
X927029Y14471D01*
X927582Y15232D01*
X802582Y25232D02*
X802029Y25993D01*
X801134Y25703D01*
Y24762D01*
X802029Y24471D01*
X802582Y25232D01*
X777582Y15232D02*
X777029Y15993D01*
X776134Y15702D01*
Y14762D01*
X777029Y14471D01*
X777582Y15232D01*
X952583Y325232D02*
X952031Y325993D01*
X951136Y325702D01*
Y324762D01*
X952031Y324471D01*
X952583Y325232D01*
X927583Y315232D02*
X927031Y315993D01*
X926136Y315702D01*
Y314762D01*
X927031Y314471D01*
X927583Y315232D01*
X877583Y325232D02*
X877031Y325993D01*
X876136Y325702D01*
Y324762D01*
X877031Y324471D01*
X877583Y325232D01*
X852583Y315232D02*
X852031Y315993D01*
X851136Y315702D01*
Y314762D01*
X852031Y314471D01*
X852583Y315232D01*
X821337Y100232D02*
X820784Y100993D01*
X819890Y100702D01*
Y99762D01*
X820784Y99471D01*
X821337Y100232D01*
X796337Y90232D02*
X795785Y90993D01*
X794890Y90702D01*
Y89762D01*
X795785Y89471D01*
X796337Y90232D01*
X896337Y100232D02*
X895785Y100993D01*
X894890Y100702D01*
Y99762D01*
X895785Y99471D01*
X896337Y100232D01*
X871337Y90232D02*
X870785Y90993D01*
X869890Y90702D01*
Y89762D01*
X870785Y89471D01*
X871337Y90232D01*
X802583Y325232D02*
X802031Y325993D01*
X801136Y325702D01*
Y324762D01*
X802031Y324471D01*
X802583Y325232D01*
X777583Y315232D02*
X777031Y315993D01*
X776136Y315702D01*
Y314762D01*
X777031Y314471D01*
X777583Y315232D01*
X127583Y325232D02*
X127031Y325993D01*
X126136Y325702D01*
Y324762D01*
X127031Y324471D01*
X127583Y325232D01*
X102583Y315232D02*
X102031Y315993D01*
X101136Y315702D01*
Y314762D01*
X102031Y314471D01*
X102583Y315232D01*
X202583Y325232D02*
X202031Y325993D01*
X201136Y325702D01*
Y324762D01*
X202031Y324471D01*
X202583Y325232D01*
X177583Y315232D02*
X177031Y315993D01*
X176136Y315702D01*
Y314762D01*
X177031Y314471D01*
X177583Y315232D01*
X277583Y325232D02*
X277031Y325993D01*
X276136Y325702D01*
Y324762D01*
X277031Y324471D01*
X277583Y325232D01*
X252583Y315232D02*
X252031Y315993D01*
X251136Y315702D01*
Y314762D01*
X252031Y314471D01*
X252583Y315232D01*
X352583Y325232D02*
X352031Y325993D01*
X351136Y325702D01*
Y324762D01*
X352031Y324471D01*
X352583Y325232D01*
X327583Y315232D02*
X327031Y315993D01*
X326136Y315702D01*
Y314762D01*
X327031Y314471D01*
X327583Y315232D01*
X427583Y325232D02*
X427031Y325993D01*
X426136Y325702D01*
Y324762D01*
X427031Y324471D01*
X427583Y325232D01*
X402583Y315232D02*
X402031Y315993D01*
X401136Y315702D01*
Y314762D01*
X402031Y314471D01*
X402583Y315232D01*
X502583Y325232D02*
X502031Y325993D01*
X501136Y325702D01*
Y324762D01*
X502031Y324471D01*
X502583Y325232D01*
X477583Y315232D02*
X477031Y315993D01*
X476136Y315702D01*
Y314762D01*
X477031Y314471D01*
X477583Y315232D01*
X577583Y325232D02*
X577031Y325993D01*
X576136Y325702D01*
Y324762D01*
X577031Y324471D01*
X577583Y325232D01*
X552583Y315232D02*
X552031Y315993D01*
X551136Y315702D01*
Y314762D01*
X552031Y314471D01*
X552583Y315232D01*
X652583Y325232D02*
X652031Y325993D01*
X651136Y325702D01*
Y324762D01*
X652031Y324471D01*
X652583Y325232D01*
X627583Y315232D02*
X627031Y315993D01*
X626136Y315702D01*
Y314762D01*
X627031Y314471D01*
X627583Y315232D01*
X727583Y325232D02*
X727031Y325993D01*
X726136Y325702D01*
Y324762D01*
X727031Y324471D01*
X727583Y325232D01*
X702583Y315232D02*
X702031Y315993D01*
X701136Y315702D01*
Y314762D01*
X702031Y314471D01*
X702583Y315232D01*
X915082Y250227D02*
X914529Y250988D01*
X913634Y250697D01*
Y249756D01*
X914529Y249466D01*
X915082Y250227D01*
X890082Y240227D02*
X889529Y240987D01*
X888634Y240697D01*
Y239756D01*
X889529Y239466D01*
X890082Y240227D01*
X1083833Y250227D02*
X1083281Y250988D01*
X1082386Y250697D01*
Y249756D01*
X1083281Y249466D01*
X1083833Y250227D01*
X1058833Y240227D02*
X1058281Y240987D01*
X1057386Y240697D01*
Y239756D01*
X1058281Y239466D01*
X1058833Y240227D01*
X990082Y250227D02*
X989529Y250988D01*
X988634Y250697D01*
Y249756D01*
X989529Y249466D01*
X990082Y250227D01*
X965082Y240227D02*
X964529Y240987D01*
X963634Y240697D01*
Y239756D01*
X964529Y239466D01*
X965082Y240227D01*
X249459Y25232D02*
X248906Y25993D01*
X248011Y25703D01*
Y24762D01*
X248906Y24471D01*
X249459Y25232D01*
X224459Y15232D02*
X223906Y15993D01*
X223011Y15702D01*
Y14762D01*
X223906Y14471D01*
X224459Y15232D01*
X183836Y175232D02*
X183284Y175993D01*
X182389Y175703D01*
Y174762D01*
X183284Y174471D01*
X183836Y175232D01*
X158836Y165232D02*
X158284Y165993D01*
X157389Y165703D01*
Y164762D01*
X158284Y164471D01*
X158836Y165232D01*
X1065082Y325232D02*
X1064529Y325993D01*
X1063634Y325702D01*
Y324762D01*
X1064529Y324471D01*
X1065082Y325232D01*
X1040082Y315232D02*
X1039529Y315993D01*
X1038634Y315702D01*
Y314762D01*
X1039529Y314471D01*
X1040082Y315232D01*
X521337Y100232D02*
X520784Y100993D01*
X519890Y100702D01*
Y99762D01*
X520784Y99471D01*
X521337Y100232D01*
X496337Y90232D02*
X495784Y90993D01*
X494890Y90702D01*
Y89762D01*
X495784Y89471D01*
X496337Y90232D01*
X80711Y175232D02*
X80158Y175993D01*
X79264Y175703D01*
Y174762D01*
X80158Y174471D01*
X80711Y175232D01*
X55711Y165232D02*
X55158Y165993D01*
X54264Y165703D01*
Y164762D01*
X55158Y164471D01*
X55711Y165232D01*
X371337Y100232D02*
X370784Y100993D01*
X369889Y100702D01*
Y99762D01*
X370784Y99471D01*
X371337Y100232D01*
X346337Y90232D02*
X345784Y90993D01*
X344889Y90702D01*
Y89762D01*
X345784Y89471D01*
X346337Y90232D01*
X61958Y25232D02*
X61406Y25993D01*
X60511Y25703D01*
Y24762D01*
X61406Y24471D01*
X61958Y25232D01*
X36959Y15232D02*
X36406Y15993D01*
X35511Y15702D01*
Y14762D01*
X36406Y14471D01*
X36959Y15232D01*
X1102582Y400232D02*
X1102029Y400993D01*
X1101135Y400702D01*
Y399762D01*
X1102029Y399471D01*
X1102582Y400232D01*
X1077582Y390232D02*
X1077029Y390993D01*
X1076135Y390702D01*
Y389762D01*
X1077029Y389471D01*
X1077582Y390232D01*
X1102582Y25232D02*
X1102029Y25993D01*
X1101134Y25703D01*
Y24762D01*
X1102029Y24471D01*
X1102582Y25232D01*
X1077582Y15232D02*
X1077029Y15993D01*
X1076134Y15702D01*
Y14762D01*
X1077029Y14471D01*
X1077582Y15232D01*
X333837Y175232D02*
X333284Y175993D01*
X332389Y175703D01*
Y174762D01*
X333284Y174471D01*
X333837Y175232D01*
X308837Y165232D02*
X308284Y165993D01*
X307389Y165703D01*
Y164762D01*
X308284Y164471D01*
X308837Y165232D01*
X1252582Y400232D02*
X1252029Y400993D01*
X1251134Y400702D01*
Y399762D01*
X1252029Y399471D01*
X1252582Y400232D01*
X1227582Y390232D02*
X1227029Y390993D01*
X1226134Y390702D01*
Y389762D01*
X1227029Y389471D01*
X1227582Y390232D01*
X1055706Y175232D02*
X1055153Y175993D01*
X1054258Y175703D01*
Y174762D01*
X1055153Y174471D01*
X1055706Y175232D01*
X1030706Y165232D02*
X1030153Y165993D01*
X1029258Y165703D01*
Y164762D01*
X1030153Y164471D01*
X1030706Y165232D01*
X52583Y400232D02*
X52031Y400993D01*
X51136Y400702D01*
Y399762D01*
X52031Y399471D01*
X52583Y400232D01*
X27583Y390232D02*
X27031Y390993D01*
X26136Y390702D01*
Y389762D01*
X27031Y389471D01*
X27583Y390232D01*
X315081Y250227D02*
X314528Y250988D01*
X313634Y250697D01*
Y249756D01*
X314528Y249466D01*
X315081Y250227D01*
X290081Y240227D02*
X289528Y240987D01*
X288634Y240697D01*
Y239756D01*
X289528Y239466D01*
X290081Y240227D01*
X127583Y400232D02*
X127031Y400993D01*
X126136Y400702D01*
Y399762D01*
X127031Y399471D01*
X127583Y400232D01*
X102583Y390232D02*
X102031Y390993D01*
X101136Y390702D01*
Y389762D01*
X102031Y389471D01*
X102583Y390232D01*
X202583Y400232D02*
X202030Y400993D01*
X201136Y400702D01*
Y399762D01*
X202030Y399471D01*
X202583Y400232D01*
X177583Y390232D02*
X177030Y390993D01*
X176136Y390702D01*
Y389762D01*
X177030Y389471D01*
X177583Y390232D01*
X277583Y400232D02*
X277030Y400993D01*
X276136Y400702D01*
Y399762D01*
X277030Y399471D01*
X277583Y400232D01*
X252583Y390232D02*
X252030Y390993D01*
X251136Y390702D01*
Y389762D01*
X252030Y389471D01*
X252583Y390232D01*
X352583Y400232D02*
X352030Y400993D01*
X351136Y400702D01*
Y399762D01*
X352030Y399471D01*
X352583Y400232D01*
X327583Y390232D02*
X327030Y390993D01*
X326136Y390702D01*
Y389762D01*
X327030Y389471D01*
X327583Y390232D01*
X427583Y400232D02*
X427030Y400993D01*
X426136Y400702D01*
Y399762D01*
X427030Y399471D01*
X427583Y400232D01*
X402583Y390232D02*
X402030Y390993D01*
X401136Y390702D01*
Y389762D01*
X402030Y389471D01*
X402583Y390232D01*
X502583Y400232D02*
X502030Y400993D01*
X501135Y400702D01*
Y399762D01*
X502030Y399471D01*
X502583Y400232D01*
X477583Y390232D02*
X477030Y390993D01*
X476135Y390702D01*
Y389762D01*
X477030Y389471D01*
X477583Y390232D01*
X577583Y400232D02*
X577030Y400993D01*
X576135Y400702D01*
Y399762D01*
X577030Y399471D01*
X577583Y400232D01*
X552583Y390232D02*
X552030Y390993D01*
X551135Y390702D01*
Y389762D01*
X552030Y389471D01*
X552583Y390232D01*
X652583Y400232D02*
X652030Y400993D01*
X651135Y400702D01*
Y399762D01*
X652030Y399471D01*
X652583Y400232D01*
X627583Y390232D02*
X627030Y390993D01*
X626135Y390702D01*
Y389762D01*
X627030Y389471D01*
X627583Y390232D01*
X727582Y400232D02*
X727030Y400993D01*
X726135Y400702D01*
Y399762D01*
X727030Y399471D01*
X727582Y400232D01*
X702582Y390232D02*
X702030Y390993D01*
X701135Y390702D01*
Y389762D01*
X702030Y389471D01*
X702582Y390232D01*
X802582Y400232D02*
X802030Y400993D01*
X801135Y400702D01*
Y399762D01*
X802030Y399471D01*
X802582Y400232D01*
X777582Y390232D02*
X777030Y390993D01*
X776135Y390702D01*
Y389762D01*
X777030Y389471D01*
X777582Y390232D01*
X877582Y400232D02*
X877029Y400993D01*
X876135Y400702D01*
Y399762D01*
X877029Y399471D01*
X877582Y400232D01*
X852582Y390232D02*
X852029Y390993D01*
X851135Y390702D01*
Y389762D01*
X852029Y389471D01*
X852582Y390232D01*
X952582Y400232D02*
X952029Y400993D01*
X951135Y400702D01*
Y399762D01*
X952029Y399471D01*
X952582Y400232D01*
X927582Y390232D02*
X927029Y390993D01*
X926135Y390702D01*
Y389762D01*
X927029Y389471D01*
X927582Y390232D01*
X877582Y25232D02*
X877029Y25993D01*
X876134Y25703D01*
Y24762D01*
X877029Y24471D01*
X877582Y25232D01*
X852582Y15232D02*
X852029Y15993D01*
X851134Y15702D01*
Y14762D01*
X852029Y14471D01*
X852582Y15232D01*
X408837Y175232D02*
X408284Y175993D01*
X407390Y175703D01*
Y174762D01*
X408284Y174471D01*
X408837Y175232D01*
X383837Y165232D02*
X383284Y165993D01*
X382390Y165703D01*
Y164762D01*
X383284Y164471D01*
X383837Y165232D01*
X483837Y175232D02*
X483284Y175993D01*
X482390Y175703D01*
Y174762D01*
X483284Y174471D01*
X483837Y175232D01*
X458837Y165232D02*
X458284Y165993D01*
X457390Y165703D01*
Y164762D01*
X458284Y164471D01*
X458837Y165232D01*
X1177582Y400232D02*
X1177029Y400993D01*
X1176135Y400702D01*
Y399762D01*
X1177029Y399471D01*
X1177582Y400232D01*
X1152582Y390232D02*
X1152029Y390993D01*
X1151135Y390702D01*
Y389762D01*
X1152029Y389471D01*
X1152582Y390232D01*
X558837Y175232D02*
X558284Y175993D01*
X557390Y175703D01*
Y174762D01*
X558284Y174471D01*
X558837Y175232D01*
X533837Y165232D02*
X533284Y165993D01*
X532390Y165703D01*
Y164762D01*
X533284Y164471D01*
X533837Y165232D01*
X690081Y250227D02*
X689529Y250988D01*
X688634Y250697D01*
Y249756D01*
X689529Y249466D01*
X690081Y250227D01*
X665081Y240227D02*
X664529Y240987D01*
X663634Y240697D01*
Y239756D01*
X664529Y239466D01*
X665081Y240227D01*
X633837Y175232D02*
X633284Y175993D01*
X632390Y175703D01*
Y174762D01*
X633284Y174471D01*
X633837Y175232D01*
X608837Y165232D02*
X608284Y165993D01*
X607390Y165703D01*
Y164762D01*
X608284Y164471D01*
X608837Y165232D01*
X708837Y175232D02*
X708284Y175993D01*
X707390Y175703D01*
Y174762D01*
X708284Y174471D01*
X708837Y175232D01*
X683837Y165232D02*
X683284Y165993D01*
X682390Y165703D01*
Y164762D01*
X683284Y164471D01*
X683837Y165232D01*
X1027582Y25232D02*
X1027029Y25993D01*
X1026134Y25703D01*
Y24762D01*
X1027029Y24471D01*
X1027582Y25232D01*
X1002582Y15232D02*
X1002029Y15993D01*
X1001134Y15702D01*
Y14762D01*
X1002029Y14471D01*
X1002582Y15232D01*
X783837Y175232D02*
X783284Y175993D01*
X782390Y175703D01*
Y174762D01*
X783284Y174471D01*
X783837Y175232D01*
X758837Y165232D02*
X758284Y165993D01*
X757390Y165703D01*
Y164762D01*
X758284Y164471D01*
X758837Y165232D01*
X671337Y100232D02*
X670784Y100993D01*
X669890Y100702D01*
Y99762D01*
X670784Y99471D01*
X671337Y100232D01*
X646337Y90232D02*
X645784Y90993D01*
X644890Y90702D01*
Y89762D01*
X645784Y89471D01*
X646337Y90232D01*
X596337Y100232D02*
X595784Y100993D01*
X594890Y100702D01*
Y99762D01*
X595784Y99471D01*
X596337Y100232D01*
X571337Y90232D02*
X570784Y90993D01*
X569890Y90702D01*
Y89762D01*
X570784Y89471D01*
X571337Y90232D01*
X1252582Y25232D02*
X1252029Y25993D01*
X1251134Y25703D01*
Y24762D01*
X1252029Y24471D01*
X1252582Y25232D01*
X1227582Y15232D02*
X1227029Y15993D01*
X1226134Y15702D01*
Y14762D01*
X1227029Y14471D01*
X1227582Y15232D01*
X1177582Y100232D02*
X1177029Y100993D01*
X1176135Y100702D01*
Y99762D01*
X1177029Y99471D01*
X1177582Y100232D01*
X1152582Y90232D02*
X1152029Y90993D01*
X1151135Y90702D01*
Y89762D01*
X1152029Y89471D01*
X1152582Y90232D01*
X1252582Y100232D02*
X1252029Y100993D01*
X1251134Y100702D01*
Y99762D01*
X1252029Y99471D01*
X1252582Y100232D01*
X1227582Y90232D02*
X1227029Y90993D01*
X1226134Y90702D01*
Y89762D01*
X1227029Y89471D01*
X1227582Y90232D01*
X1327582Y100232D02*
X1327029Y100993D01*
X1326134Y100702D01*
Y99762D01*
X1327029Y99471D01*
X1327582Y100232D01*
X1302582Y90232D02*
X1302029Y90993D01*
X1301134Y90702D01*
Y89762D01*
X1302029Y89471D01*
X1302582Y90232D01*
X1177582Y175232D02*
X1177029Y175993D01*
X1176135Y175702D01*
Y174762D01*
X1177029Y174471D01*
X1177582Y175232D01*
X1152582Y165232D02*
X1152029Y165993D01*
X1151135Y165702D01*
Y164762D01*
X1152029Y164471D01*
X1152582Y165232D01*
X1252582Y175232D02*
X1252029Y175993D01*
X1251134Y175702D01*
Y174762D01*
X1252029Y174471D01*
X1252582Y175232D01*
X1227582Y165232D02*
X1227029Y165993D01*
X1226134Y165702D01*
Y164762D01*
X1227029Y164471D01*
X1227582Y165232D01*
X1327582Y175232D02*
X1327029Y175993D01*
X1326134Y175702D01*
Y174762D01*
X1327029Y174471D01*
X1327582Y175232D01*
X1302582Y165232D02*
X1302029Y165993D01*
X1301134Y165702D01*
Y164762D01*
X1302029Y164471D01*
X1302582Y165232D01*
X1177582Y250232D02*
X1177029Y250993D01*
X1176135Y250702D01*
Y249762D01*
X1177029Y249471D01*
X1177582Y250232D01*
X1152582Y240232D02*
X1152029Y240993D01*
X1151135Y240702D01*
Y239762D01*
X1152029Y239471D01*
X1152582Y240232D01*
X1252582Y250232D02*
X1252029Y250993D01*
X1251134Y250702D01*
Y249762D01*
X1252029Y249471D01*
X1252582Y250232D01*
X1227582Y240232D02*
X1227029Y240993D01*
X1226134Y240702D01*
Y239762D01*
X1227029Y239471D01*
X1227582Y240232D01*
X1327582Y250232D02*
X1327029Y250993D01*
X1326134Y250702D01*
Y249762D01*
X1327029Y249471D01*
X1327582Y250232D01*
X1302582Y240232D02*
X1302029Y240993D01*
X1301134Y240702D01*
Y239762D01*
X1302029Y239471D01*
X1302582Y240232D01*
X1327582Y325232D02*
X1327029Y325993D01*
X1326134Y325702D01*
Y324762D01*
X1327029Y324471D01*
X1327582Y325232D01*
X1302582Y315232D02*
X1302029Y315993D01*
X1301134Y315702D01*
Y314762D01*
X1302029Y314471D01*
X1302582Y315232D01*
X1402581Y212613D02*
X1402029Y213374D01*
X1401134Y213083D01*
Y212143D01*
X1402029Y211852D01*
X1402581Y212613D01*
X1377581Y202613D02*
X1377029Y203374D01*
X1376134Y203083D01*
Y202143D01*
X1377029Y201852D01*
X1377581Y202613D01*
X1402582Y325232D02*
X1402029Y325993D01*
X1401134Y325702D01*
Y324762D01*
X1402029Y324471D01*
X1402582Y325232D01*
X1377582Y315232D02*
X1377029Y315993D01*
X1376134Y315702D01*
Y314762D01*
X1377029Y314471D01*
X1377582Y315232D01*
X1327582Y25232D02*
X1327029Y25993D01*
X1326134Y25703D01*
Y24762D01*
X1327029Y24471D01*
X1327582Y25232D01*
X1302582Y15232D02*
X1302029Y15993D01*
X1301134Y15702D01*
Y14762D01*
X1302029Y14471D01*
X1302582Y15232D01*
X1252582Y325232D02*
X1252029Y325993D01*
X1251134Y325702D01*
Y324762D01*
X1252029Y324471D01*
X1252582Y325232D01*
X1227582Y315232D02*
X1227029Y315993D01*
X1226134Y315702D01*
Y314762D01*
X1227029Y314471D01*
X1227582Y315232D01*
X1402581Y62636D02*
X1402029Y63397D01*
X1401134Y63106D01*
Y62166D01*
X1402029Y61875D01*
X1402581Y62636D01*
X1377581Y52636D02*
X1377029Y53397D01*
X1376134Y53106D01*
Y52166D01*
X1377029Y51875D01*
X1377581Y52636D01*
X1177582Y325232D02*
X1177029Y325993D01*
X1176135Y325702D01*
Y324762D01*
X1177029Y324471D01*
X1177582Y325232D01*
X1152582Y315232D02*
X1152029Y315993D01*
X1151135Y315702D01*
Y314762D01*
X1152029Y314471D01*
X1152582Y315232D01*
X765081Y250227D02*
X764529Y250988D01*
X763634Y250697D01*
Y249756D01*
X764529Y249466D01*
X765081Y250227D01*
X740081Y240227D02*
X739529Y240987D01*
X738634Y240697D01*
Y239756D01*
X739529Y239466D01*
X740081Y240227D01*
X1402581Y400232D02*
X1402029Y400993D01*
X1401134Y400702D01*
Y399762D01*
X1402029Y399471D01*
X1402581Y400232D01*
X1377581Y390232D02*
X1377029Y390993D01*
X1376134Y390702D01*
Y389762D01*
X1377029Y389471D01*
X1377581Y390232D01*
X1327582Y400232D02*
X1327029Y400993D01*
X1326134Y400702D01*
Y399762D01*
X1327029Y399471D01*
X1327582Y400232D01*
X1302582Y390232D02*
X1302029Y390993D01*
X1301134Y390702D01*
Y389762D01*
X1302029Y389471D01*
X1302582Y390232D01*
X840081Y250227D02*
X839529Y250988D01*
X838634Y250697D01*
Y249756D01*
X839529Y249466D01*
X840081Y250227D01*
X815081Y240227D02*
X814529Y240987D01*
X813634Y240697D01*
Y239756D01*
X814529Y239466D01*
X815081Y240227D01*
X165081Y250227D02*
X164528Y250988D01*
X163634Y250697D01*
Y249756D01*
X164528Y249466D01*
X165081Y250227D01*
X140081Y240227D02*
X139528Y240987D01*
X138634Y240697D01*
Y239756D01*
X139528Y239466D01*
X140081Y240227D01*
X1177582Y25232D02*
X1177029Y25993D01*
X1176135Y25703D01*
Y24762D01*
X1177029Y24471D01*
X1177582Y25232D01*
X1152582Y15232D02*
X1152029Y15993D01*
X1151135Y15702D01*
Y14762D01*
X1152029Y14471D01*
X1152582Y15232D01*
X390081Y250227D02*
X389528Y250988D01*
X388634Y250697D01*
Y249756D01*
X389528Y249466D01*
X390081Y250227D01*
X365081Y240227D02*
X364528Y240987D01*
X363634Y240697D01*
Y239756D01*
X364528Y239466D01*
X365081Y240227D01*
X99453Y100232D02*
X98900Y100993D01*
X98006Y100702D01*
Y99762D01*
X98900Y99471D01*
X99453Y100232D01*
X74453Y90232D02*
X73900Y90993D01*
X73006Y90702D01*
Y89762D01*
X73900Y89471D01*
X74453Y90232D01*
X999454Y100232D02*
X998901Y100993D01*
X998006Y100702D01*
Y99762D01*
X998901Y99471D01*
X999454Y100232D01*
X974454Y90232D02*
X973901Y90993D01*
X973006Y90702D01*
Y89762D01*
X973901Y89471D01*
X974454Y90232D01*
X530712Y25232D02*
X530159Y25993D01*
X529264Y25703D01*
Y24762D01*
X530159Y24471D01*
X530712Y25232D01*
X505712Y15232D02*
X505159Y15993D01*
X504264Y15702D01*
Y14762D01*
X505159Y14471D01*
X505712Y15232D01*
X258837Y175232D02*
X258284Y175993D01*
X257389Y175703D01*
Y174762D01*
X258284Y174471D01*
X258837Y175232D01*
X233837Y165232D02*
X233284Y165993D01*
X232389Y165703D01*
Y164762D01*
X233284Y164471D01*
X233837Y165232D01*
X465081Y250227D02*
X464528Y250988D01*
X463634Y250697D01*
Y249756D01*
X464528Y249466D01*
X465081Y250227D01*
X440081Y240227D02*
X439528Y240987D01*
X438634Y240697D01*
Y239756D01*
X439528Y239466D01*
X440081Y240227D01*
X1102582Y100232D02*
X1102029Y100993D01*
X1101134Y100702D01*
Y99762D01*
X1102029Y99471D01*
X1102582Y100232D01*
X1077582Y90232D02*
X1077029Y90993D01*
X1076134Y90702D01*
Y89762D01*
X1077029Y89471D01*
X1077582Y90232D01*
X615081Y250227D02*
X614528Y250988D01*
X613634Y250697D01*
Y249756D01*
X614528Y249466D01*
X615081Y250227D01*
X590081Y240227D02*
X589528Y240987D01*
X588634Y240697D01*
Y239756D01*
X589528Y239466D01*
X590081Y240227D01*
X446337Y100232D02*
X445784Y100993D01*
X444890Y100702D01*
Y99762D01*
X445784Y99471D01*
X446337Y100232D01*
X421337Y90232D02*
X420784Y90993D01*
X419890Y90702D01*
Y89762D01*
X420784Y89471D01*
X421337Y90232D01*
X155709Y25232D02*
X155156Y25993D01*
X154261Y25703D01*
Y24762D01*
X155156Y24471D01*
X155709Y25232D01*
X130709Y15232D02*
X130156Y15993D01*
X129261Y15702D01*
Y14762D01*
X130156Y14471D01*
X130709Y15232D01*
X240081Y250227D02*
X239528Y250988D01*
X238634Y250697D01*
Y249756D01*
X239528Y249466D01*
X240081Y250227D01*
X215081Y240227D02*
X214528Y240987D01*
X213634Y240697D01*
Y239756D01*
X214528Y239466D01*
X215081Y240227D01*
X296337Y100232D02*
X295784Y100993D01*
X294889Y100702D01*
Y99762D01*
X295784Y99471D01*
X296337Y100232D01*
X271337Y90232D02*
X270784Y90993D01*
X269889Y90702D01*
Y89762D01*
X270784Y89471D01*
X271337Y90232D01*
X540081Y250227D02*
X539528Y250988D01*
X538634Y250697D01*
Y249756D01*
X539528Y249466D01*
X540081Y250227D01*
X515081Y240227D02*
X514528Y240987D01*
X513634Y240697D01*
Y239756D01*
X514528Y239466D01*
X515081Y240227D01*
X221337Y100232D02*
X220784Y100993D01*
X219889Y100702D01*
Y99762D01*
X220784Y99471D01*
X221337Y100232D01*
X196336Y90232D02*
X195784Y90993D01*
X194889Y90702D01*
Y89762D01*
X195784Y89471D01*
X196336Y90232D01*
X52583Y325232D02*
X52031Y325993D01*
X51136Y325702D01*
Y324762D01*
X52031Y324471D01*
X52583Y325232D01*
X27583Y315232D02*
X27031Y315993D01*
X26136Y315702D01*
Y314762D01*
X27031Y314471D01*
X27583Y315232D01*
X746337Y100232D02*
X745784Y100993D01*
X744890Y100702D01*
Y99762D01*
X745784Y99471D01*
X746337Y100232D01*
X721337Y90232D02*
X720784Y90993D01*
X719890Y90702D01*
Y89762D01*
X720784Y89471D01*
X721337Y90232D01*
X71336Y250227D02*
X70783Y250988D01*
X69889Y250697D01*
Y249756D01*
X70783Y249466D01*
X71336Y250227D01*
X46336Y240227D02*
X45783Y240987D01*
X44889Y240697D01*
Y239756D01*
X45783Y239466D01*
X46336Y240227D01*
X1027582Y400232D02*
X1027029Y400993D01*
X1026135Y400702D01*
Y399762D01*
X1027029Y399471D01*
X1027582Y400232D01*
X1002582Y390232D02*
X1002029Y390993D01*
X1001135Y390702D01*
Y389762D01*
X1002029Y389471D01*
X1002582Y390232D01*
X858837Y175232D02*
X858284Y175993D01*
X857390Y175703D01*
Y174762D01*
X858284Y174471D01*
X858837Y175232D01*
X833837Y165232D02*
X833284Y165993D01*
X832390Y165703D01*
Y164762D01*
X833284Y164471D01*
X833837Y165232D01*
X933837Y175232D02*
X933285Y175993D01*
X932390Y175703D01*
Y174762D01*
X933285Y174471D01*
X933837Y175232D01*
X908837Y165232D02*
X908285Y165993D01*
X907390Y165703D01*
Y164762D01*
X908285Y164471D01*
X908837Y165232D01*
X109348Y271400D02*
X108795Y272161D01*
X107901Y271870D01*
Y270930D01*
X108795Y270639D01*
X109348Y271400D01*
X104453D02*
X103900Y272161D01*
X103006Y271870D01*
Y270930D01*
X103900Y270639D01*
X104453Y271400D01*
X109348Y275333D02*
X108795Y276094D01*
X107901Y275804D01*
Y274863D01*
X108795Y274572D01*
X109348Y275333D01*
X104453D02*
X103900Y276094D01*
X103006Y275804D01*
Y274863D01*
X103900Y274572D01*
X104453Y275333D01*
X109348Y279267D02*
X108795Y280028D01*
X107901Y279737D01*
Y278796D01*
X108795Y278506D01*
X109348Y279267D01*
X104453D02*
X103900Y280028D01*
X103006Y279737D01*
Y278796D01*
X103900Y278506D01*
X104453Y279267D01*
X109348Y283200D02*
X108795Y283961D01*
X107901Y283670D01*
Y282730D01*
X108795Y282439D01*
X109348Y283200D01*
X104453D02*
X103900Y283961D01*
X103006Y283670D01*
Y282730D01*
X103900Y282439D01*
X104453Y283200D01*
D73*
X952182Y25232D02*
X951582Y25579D01*
Y24886D01*
X952182Y25232D01*
X927182Y15232D02*
X926582Y15579D01*
Y14886D01*
X927182Y15232D01*
X802182Y25232D02*
X801582Y25579D01*
Y24886D01*
X802182Y25232D01*
X777182Y15232D02*
X776582Y15579D01*
Y14886D01*
X777182Y15232D01*
X952183Y325232D02*
X951583Y325579D01*
Y324886D01*
X952183Y325232D01*
X927183Y315232D02*
X926583Y315579D01*
Y314886D01*
X927183Y315232D01*
X877183Y325232D02*
X876583Y325579D01*
Y324886D01*
X877183Y325232D01*
X852183Y315232D02*
X851583Y315579D01*
Y314886D01*
X852183Y315232D01*
X820937Y100232D02*
X820337Y100578D01*
Y99886D01*
X820937Y100232D01*
X795937Y90232D02*
X795337Y90578D01*
Y89886D01*
X795937Y90232D01*
X895937Y100232D02*
X895337Y100578D01*
Y99886D01*
X895937Y100232D01*
X870937Y90232D02*
X870337Y90578D01*
Y89886D01*
X870937Y90232D01*
X802183Y325232D02*
X801583Y325579D01*
Y324886D01*
X802183Y325232D01*
X777183Y315232D02*
X776583Y315579D01*
Y314886D01*
X777183Y315232D01*
X127183Y325232D02*
X126583Y325579D01*
Y324886D01*
X127183Y325232D01*
X102183Y315232D02*
X101583Y315579D01*
Y314886D01*
X102183Y315232D01*
X202183Y325232D02*
X201583Y325579D01*
Y324886D01*
X202183Y325232D01*
X177183Y315232D02*
X176583Y315579D01*
Y314886D01*
X177183Y315232D01*
X277183Y325232D02*
X276583Y325579D01*
Y324886D01*
X277183Y325232D01*
X252183Y315232D02*
X251583Y315579D01*
Y314886D01*
X252183Y315232D01*
X352183Y325232D02*
X351583Y325579D01*
Y324886D01*
X352183Y325232D01*
X327183Y315232D02*
X326583Y315579D01*
Y314886D01*
X327183Y315232D01*
X427183Y325232D02*
X426583Y325579D01*
Y324886D01*
X427183Y325232D01*
X402183Y315232D02*
X401583Y315579D01*
Y314886D01*
X402183Y315232D01*
X502183Y325232D02*
X501583Y325579D01*
Y324886D01*
X502183Y325232D01*
X477183Y315232D02*
X476583Y315579D01*
Y314886D01*
X477183Y315232D01*
X577183Y325232D02*
X576583Y325579D01*
Y324886D01*
X577183Y325232D01*
X552183Y315232D02*
X551583Y315579D01*
Y314886D01*
X552183Y315232D01*
X652183Y325232D02*
X651583Y325579D01*
Y324886D01*
X652183Y325232D01*
X627183Y315232D02*
X626583Y315579D01*
Y314886D01*
X627183Y315232D01*
X727183Y325232D02*
X726583Y325579D01*
Y324886D01*
X727183Y325232D01*
X702183Y315232D02*
X701583Y315579D01*
Y314886D01*
X702183Y315232D01*
X914682Y250227D02*
X914081Y250573D01*
Y249880D01*
X914682Y250227D01*
X889682Y240227D02*
X889081Y240573D01*
Y239880D01*
X889682Y240227D01*
X1083433Y250227D02*
X1082833Y250573D01*
Y249880D01*
X1083433Y250227D01*
X1058433Y240227D02*
X1057833Y240573D01*
Y239880D01*
X1058433Y240227D01*
X989682Y250227D02*
X989082Y250573D01*
Y249880D01*
X989682Y250227D01*
X964682Y240227D02*
X964082Y240573D01*
Y239880D01*
X964682Y240227D01*
X249059Y25232D02*
X248459Y25579D01*
Y24886D01*
X249059Y25232D01*
X224059Y15232D02*
X223459Y15579D01*
Y14886D01*
X224059Y15232D01*
X183437Y175232D02*
X182836Y175579D01*
Y174886D01*
X183437Y175232D01*
X158437Y165232D02*
X157836Y165579D01*
Y164886D01*
X158437Y165232D01*
X1064682Y325232D02*
X1064082Y325579D01*
Y324886D01*
X1064682Y325232D01*
X1039682Y315232D02*
X1039082Y315579D01*
Y314886D01*
X1039682Y315232D01*
X520937Y100232D02*
X520337Y100578D01*
Y99886D01*
X520937Y100232D01*
X495937Y90232D02*
X495337Y90578D01*
Y89886D01*
X495937Y90232D01*
X80311Y175232D02*
X79711Y175579D01*
Y174886D01*
X80311Y175232D01*
X55311Y165232D02*
X54711Y165579D01*
Y164886D01*
X55311Y165232D01*
X370937Y100232D02*
X370337Y100578D01*
Y99886D01*
X370937Y100232D01*
X345937Y90232D02*
X345337Y90578D01*
Y89886D01*
X345937Y90232D01*
X61559Y25232D02*
X60958Y25579D01*
Y24886D01*
X61559Y25232D01*
X36558Y15232D02*
X35958Y15579D01*
Y14886D01*
X36558Y15232D01*
X1102182Y400232D02*
X1101582Y400579D01*
Y399886D01*
X1102182Y400232D01*
X1077182Y390232D02*
X1076582Y390579D01*
Y389886D01*
X1077182Y390232D01*
X1102182Y25232D02*
X1101582Y25579D01*
Y24886D01*
X1102182Y25232D01*
X1077182Y15232D02*
X1076582Y15579D01*
Y14886D01*
X1077182Y15232D01*
X333437Y175232D02*
X332837Y175579D01*
Y174886D01*
X333437Y175232D01*
X308437Y165232D02*
X307837Y165579D01*
Y164886D01*
X308437Y165232D01*
X1252182Y400232D02*
X1251582Y400578D01*
Y399886D01*
X1252182Y400232D01*
X1227182Y390232D02*
X1226582Y390579D01*
Y389886D01*
X1227182Y390232D01*
X1055306Y175232D02*
X1054706Y175579D01*
Y174886D01*
X1055306Y175232D01*
X1030306Y165232D02*
X1029706Y165579D01*
Y164886D01*
X1030306Y165232D01*
X52183Y400232D02*
X51583Y400579D01*
Y399886D01*
X52183Y400232D01*
X27183Y390232D02*
X26583Y390579D01*
Y389886D01*
X27183Y390232D01*
X314681Y250227D02*
X314081Y250573D01*
Y249880D01*
X314681Y250227D01*
X289681Y240227D02*
X289081Y240573D01*
Y239880D01*
X289681Y240227D01*
X127183Y400232D02*
X126583Y400579D01*
Y399886D01*
X127183Y400232D01*
X102183Y390232D02*
X101583Y390579D01*
Y389886D01*
X102183Y390232D01*
X202183Y400232D02*
X201583Y400579D01*
Y399886D01*
X202183Y400232D01*
X177183Y390232D02*
X176583Y390579D01*
Y389886D01*
X177183Y390232D01*
X277183Y400232D02*
X276583Y400579D01*
Y399886D01*
X277183Y400232D01*
X252183Y390232D02*
X251583Y390579D01*
Y389886D01*
X252183Y390232D01*
X352183Y400232D02*
X351583Y400579D01*
Y399886D01*
X352183Y400232D01*
X327183Y390232D02*
X326583Y390579D01*
Y389886D01*
X327183Y390232D01*
X427183Y400232D02*
X426583Y400579D01*
Y399886D01*
X427183Y400232D01*
X402183Y390232D02*
X401583Y390579D01*
Y389886D01*
X402183Y390232D01*
X502183Y400232D02*
X501583Y400579D01*
Y399886D01*
X502183Y400232D01*
X477183Y390232D02*
X476583Y390579D01*
Y389886D01*
X477183Y390232D01*
X577183Y400232D02*
X576583Y400579D01*
Y399886D01*
X577183Y400232D01*
X552183Y390232D02*
X551583Y390579D01*
Y389886D01*
X552183Y390232D01*
X652182Y400232D02*
X651582Y400579D01*
Y399886D01*
X652182Y400232D01*
X627182Y390232D02*
X626582Y390579D01*
Y389886D01*
X627182Y390232D01*
X727182Y400232D02*
X726582Y400579D01*
Y399886D01*
X727182Y400232D01*
X702182Y390232D02*
X701582Y390579D01*
Y389886D01*
X702182Y390232D01*
X802182Y400232D02*
X801582Y400579D01*
Y399886D01*
X802182Y400232D01*
X777182Y390232D02*
X776582Y390579D01*
Y389886D01*
X777182Y390232D01*
X877182Y400232D02*
X876582Y400579D01*
Y399886D01*
X877182Y400232D01*
X852182Y390232D02*
X851582Y390579D01*
Y389886D01*
X852182Y390232D01*
X952182Y400232D02*
X951582Y400579D01*
Y399886D01*
X952182Y400232D01*
X927182Y390232D02*
X926582Y390579D01*
Y389886D01*
X927182Y390232D01*
X877182Y25232D02*
X876582Y25579D01*
Y24886D01*
X877182Y25232D01*
X852182Y15232D02*
X851582Y15579D01*
Y14886D01*
X852182Y15232D01*
X408437Y175232D02*
X407837Y175579D01*
Y174886D01*
X408437Y175232D01*
X383437Y165232D02*
X382837Y165579D01*
Y164886D01*
X383437Y165232D01*
X483437Y175232D02*
X482837Y175579D01*
Y174886D01*
X483437Y175232D01*
X458437Y165232D02*
X457837Y165579D01*
Y164886D01*
X458437Y165232D01*
X1177182Y400232D02*
X1176582Y400578D01*
Y399886D01*
X1177182Y400232D01*
X1152182Y390232D02*
X1151582Y390579D01*
Y389886D01*
X1152182Y390232D01*
X558437Y175232D02*
X557837Y175579D01*
Y174886D01*
X558437Y175232D01*
X533437Y165232D02*
X532837Y165579D01*
Y164886D01*
X533437Y165232D01*
X689681Y250227D02*
X689081Y250573D01*
Y249880D01*
X689681Y250227D01*
X664681Y240227D02*
X664081Y240573D01*
Y239880D01*
X664681Y240227D01*
X633437Y175232D02*
X632837Y175579D01*
Y174886D01*
X633437Y175232D01*
X608437Y165232D02*
X607837Y165579D01*
Y164886D01*
X608437Y165232D01*
X708437Y175232D02*
X707837Y175579D01*
Y174886D01*
X708437Y175232D01*
X683437Y165232D02*
X682837Y165579D01*
Y164886D01*
X683437Y165232D01*
X1027182Y25232D02*
X1026582Y25579D01*
Y24886D01*
X1027182Y25232D01*
X1002182Y15232D02*
X1001582Y15579D01*
Y14886D01*
X1002182Y15232D01*
X783437Y175232D02*
X782837Y175579D01*
Y174886D01*
X783437Y175232D01*
X758437Y165232D02*
X757837Y165579D01*
Y164886D01*
X758437Y165232D01*
X670937Y100232D02*
X670337Y100578D01*
Y99886D01*
X670937Y100232D01*
X645937Y90232D02*
X645337Y90578D01*
Y89886D01*
X645937Y90232D01*
X595937Y100232D02*
X595337Y100578D01*
Y99886D01*
X595937Y100232D01*
X570937Y90232D02*
X570337Y90578D01*
Y89886D01*
X570937Y90232D01*
X1252182Y25232D02*
X1251582Y25579D01*
Y24886D01*
X1252182Y25232D01*
X1227182Y15232D02*
X1226582Y15579D01*
Y14886D01*
X1227182Y15232D01*
X1177182Y100232D02*
X1176582Y100579D01*
Y99886D01*
X1177182Y100232D01*
X1152182Y90232D02*
X1151582Y90579D01*
Y89886D01*
X1152182Y90232D01*
X1252182Y100232D02*
X1251582Y100579D01*
Y99886D01*
X1252182Y100232D01*
X1227182Y90232D02*
X1226582Y90579D01*
Y89886D01*
X1227182Y90232D01*
X1327182Y100232D02*
X1326582Y100579D01*
Y99886D01*
X1327182Y100232D01*
X1302182Y90232D02*
X1301582Y90579D01*
Y89886D01*
X1302182Y90232D01*
X1177182Y175232D02*
X1176582Y175579D01*
Y174886D01*
X1177182Y175232D01*
X1152182Y165232D02*
X1151582Y165579D01*
Y164886D01*
X1152182Y165232D01*
X1252182Y175232D02*
X1251582Y175579D01*
Y174886D01*
X1252182Y175232D01*
X1227182Y165232D02*
X1226582Y165579D01*
Y164886D01*
X1227182Y165232D01*
X1327182Y175232D02*
X1326582Y175579D01*
Y174886D01*
X1327182Y175232D01*
X1302182Y165232D02*
X1301582Y165579D01*
Y164886D01*
X1302182Y165232D01*
X1177182Y250232D02*
X1176582Y250579D01*
Y249886D01*
X1177182Y250232D01*
X1152182Y240232D02*
X1151582Y240579D01*
Y239886D01*
X1152182Y240232D01*
X1252182Y250232D02*
X1251582Y250579D01*
Y249886D01*
X1252182Y250232D01*
X1227182Y240232D02*
X1226582Y240579D01*
Y239886D01*
X1227182Y240232D01*
X1327182Y250232D02*
X1326582Y250579D01*
Y249886D01*
X1327182Y250232D01*
X1302182Y240232D02*
X1301582Y240579D01*
Y239886D01*
X1302182Y240232D01*
X1327182Y325232D02*
X1326582Y325579D01*
Y324886D01*
X1327182Y325232D01*
X1302182Y315232D02*
X1301582Y315579D01*
Y314886D01*
X1302182Y315232D01*
X1402181Y212613D02*
X1401581Y212960D01*
Y212267D01*
X1402181Y212613D01*
X1377181Y202613D02*
X1376581Y202959D01*
Y202267D01*
X1377181Y202613D01*
X1402182Y325232D02*
X1401582Y325579D01*
Y324886D01*
X1402182Y325232D01*
X1377182Y315232D02*
X1376582Y315579D01*
Y314886D01*
X1377182Y315232D01*
X1327182Y25232D02*
X1326582Y25579D01*
Y24886D01*
X1327182Y25232D01*
X1302182Y15232D02*
X1301582Y15579D01*
Y14886D01*
X1302182Y15232D01*
X1252182Y325232D02*
X1251582Y325579D01*
Y324886D01*
X1252182Y325232D01*
X1227182Y315232D02*
X1226582Y315579D01*
Y314886D01*
X1227182Y315232D01*
X1402181Y62636D02*
X1401581Y62982D01*
Y62289D01*
X1402181Y62636D01*
X1377181Y52636D02*
X1376581Y52982D01*
Y52289D01*
X1377181Y52636D01*
X1177182Y325232D02*
X1176582Y325579D01*
Y324886D01*
X1177182Y325232D01*
X1152182Y315232D02*
X1151582Y315579D01*
Y314886D01*
X1152182Y315232D01*
X764681Y250227D02*
X764081Y250573D01*
Y249880D01*
X764681Y250227D01*
X739681Y240227D02*
X739081Y240573D01*
Y239880D01*
X739681Y240227D01*
X1402181Y400232D02*
X1401581Y400579D01*
Y399886D01*
X1402181Y400232D01*
X1377181Y390232D02*
X1376581Y390579D01*
Y389886D01*
X1377181Y390232D01*
X1327182Y400232D02*
X1326582Y400578D01*
Y399886D01*
X1327182Y400232D01*
X1302182Y390232D02*
X1301582Y390579D01*
Y389886D01*
X1302182Y390232D01*
X839681Y250227D02*
X839081Y250573D01*
Y249880D01*
X839681Y250227D01*
X814681Y240227D02*
X814081Y240573D01*
Y239880D01*
X814681Y240227D01*
X164681Y250227D02*
X164081Y250573D01*
Y249880D01*
X164681Y250227D01*
X139681Y240227D02*
X139081Y240573D01*
Y239880D01*
X139681Y240227D01*
X1177182Y25232D02*
X1176582Y25579D01*
Y24886D01*
X1177182Y25232D01*
X1152182Y15232D02*
X1151582Y15579D01*
Y14886D01*
X1152182Y15232D01*
X389681Y250227D02*
X389081Y250573D01*
Y249880D01*
X389681Y250227D01*
X364681Y240227D02*
X364081Y240573D01*
Y239880D01*
X364681Y240227D01*
X99053Y100232D02*
X98453Y100578D01*
Y99886D01*
X99053Y100232D01*
X74053Y90232D02*
X73453Y90578D01*
Y89886D01*
X74053Y90232D01*
X999054Y100232D02*
X998454Y100578D01*
Y99886D01*
X999054Y100232D01*
X974054Y90232D02*
X973454Y90578D01*
Y89886D01*
X974054Y90232D01*
X530311Y25232D02*
X529711Y25579D01*
Y24886D01*
X530311Y25232D01*
X505311Y15232D02*
X504711Y15579D01*
Y14886D01*
X505311Y15232D01*
X258437Y175232D02*
X257837Y175579D01*
Y174886D01*
X258437Y175232D01*
X233437Y165232D02*
X232837Y165579D01*
Y164886D01*
X233437Y165232D01*
X464681Y250227D02*
X464081Y250573D01*
Y249880D01*
X464681Y250227D01*
X439681Y240227D02*
X439081Y240573D01*
Y239880D01*
X439681Y240227D01*
X1102182Y100232D02*
X1101582Y100578D01*
Y99886D01*
X1102182Y100232D01*
X1077182Y90232D02*
X1076582Y90578D01*
Y89886D01*
X1077182Y90232D01*
X614681Y250227D02*
X614081Y250573D01*
Y249880D01*
X614681Y250227D01*
X589681Y240227D02*
X589081Y240573D01*
Y239880D01*
X589681Y240227D01*
X445937Y100232D02*
X445337Y100578D01*
Y99886D01*
X445937Y100232D01*
X420937Y90232D02*
X420337Y90578D01*
Y89886D01*
X420937Y90232D01*
X155309Y25232D02*
X154709Y25579D01*
Y24886D01*
X155309Y25232D01*
X130309Y15232D02*
X129709Y15579D01*
Y14886D01*
X130309Y15232D01*
X239681Y250227D02*
X239081Y250573D01*
Y249880D01*
X239681Y250227D01*
X214681Y240227D02*
X214081Y240573D01*
Y239880D01*
X214681Y240227D01*
X295937Y100232D02*
X295337Y100578D01*
Y99886D01*
X295937Y100232D01*
X270937Y90232D02*
X270337Y90578D01*
Y89886D01*
X270937Y90232D01*
X539681Y250227D02*
X539081Y250573D01*
Y249880D01*
X539681Y250227D01*
X514681Y240227D02*
X514081Y240573D01*
Y239880D01*
X514681Y240227D01*
X220936Y100232D02*
X220337Y100578D01*
Y99886D01*
X220936Y100232D01*
X195937Y90232D02*
X195336Y90578D01*
Y89886D01*
X195937Y90232D01*
X52183Y325232D02*
X51583Y325579D01*
Y324886D01*
X52183Y325232D01*
X27183Y315232D02*
X26583Y315579D01*
Y314886D01*
X27183Y315232D01*
X745937Y100232D02*
X745337Y100578D01*
Y99886D01*
X745937Y100232D01*
X720937Y90232D02*
X720337Y90578D01*
Y89886D01*
X720937Y90232D01*
X70936Y250227D02*
X70336Y250573D01*
Y249880D01*
X70936Y250227D01*
X45936Y240227D02*
X45336Y240573D01*
Y239880D01*
X45936Y240227D01*
X1027182Y400232D02*
X1026582Y400579D01*
Y399886D01*
X1027182Y400232D01*
X1002182Y390232D02*
X1001582Y390579D01*
Y389886D01*
X1002182Y390232D01*
X858437Y175232D02*
X857837Y175579D01*
Y174886D01*
X858437Y175232D01*
X833437Y165232D02*
X832837Y165579D01*
Y164886D01*
X833437Y165232D01*
X933437Y175232D02*
X932837Y175579D01*
Y174886D01*
X933437Y175232D01*
X908437Y165232D02*
X907837Y165579D01*
Y164886D01*
X908437Y165232D01*
M02*
