G04 Layer_Color=128*
%FSLAX25Y25*%
%MOIN*%
G70*
G01*
G75*
%ADD71C,0.00200*%
D71*
X669300Y411236D02*
X679930D01*
X674615Y405921D02*
Y416551D01*
X807096Y371866D02*
X817725D01*
X812410Y366551D02*
Y377181D01*
X251616Y220079D02*
X253584D01*
X252600Y219094D02*
Y221063D01*
X251616Y225000D02*
X253584D01*
X252600Y224016D02*
Y225984D01*
X544594Y221861D02*
X555224D01*
X549909Y216546D02*
Y227176D01*
X563350Y146866D02*
X573980D01*
X568665Y141551D02*
Y152181D01*
X425555Y186236D02*
X436185D01*
X430870Y180921D02*
Y191551D01*
X406799Y261231D02*
X417429D01*
X412114Y255916D02*
Y266546D01*
X81137Y430615D02*
X84286D01*
X82711Y429040D02*
Y432189D01*
X63814Y430615D02*
X66963D01*
X65389Y429040D02*
Y432189D01*
X15250Y195075D02*
X17219D01*
X16235Y194091D02*
Y196059D01*
X15250Y185232D02*
X17219D01*
X16235Y184248D02*
Y186217D01*
X15250Y175390D02*
X17219D01*
X16235Y174406D02*
Y176374D01*
X27849Y175390D02*
X29817D01*
X28833Y174406D02*
Y176374D01*
X27849Y185232D02*
X29817D01*
X28833Y184248D02*
Y186217D01*
X27849Y195075D02*
X29817D01*
X28833Y194091D02*
Y196059D01*
X825716Y293700D02*
X827684D01*
X826700Y292716D02*
Y294684D01*
X820794Y293700D02*
X822763D01*
X821779Y292716D02*
Y294684D01*
X310227Y67732D02*
X325897D01*
X318062Y59898D02*
Y75567D01*
X312157Y7732D02*
X323968D01*
X318062Y1827D02*
Y13638D01*
X705859Y7732D02*
X717670D01*
X711765Y1827D02*
Y13638D01*
X703930Y67732D02*
X719599D01*
X711765Y59898D02*
Y75567D01*
X1408376Y269609D02*
X1420187D01*
X1414281Y263704D02*
Y275515D01*
X1346447Y269609D02*
X1362116D01*
X1354281Y261774D02*
Y277444D01*
X1346447Y175613D02*
X1362116D01*
X1354281Y167778D02*
Y183448D01*
X1408376Y175613D02*
X1420187D01*
X1414281Y169708D02*
Y181519D01*
X1408376Y119632D02*
X1420187D01*
X1414281Y113726D02*
Y125537D01*
X1346447Y119632D02*
X1362116D01*
X1354281Y111797D02*
Y127466D01*
X1346447Y25636D02*
X1362116D01*
X1354281Y17801D02*
Y33470D01*
X1408376Y25636D02*
X1420187D01*
X1414281Y19730D02*
Y31541D01*
X1090372Y307732D02*
X1102183D01*
X1096278Y301827D02*
Y313638D01*
X1088443Y367732D02*
X1104112D01*
X1096278Y359897D02*
Y375567D01*
X994447Y367732D02*
X1010116D01*
X1002282Y359897D02*
Y375567D01*
X996376Y307732D02*
X1008187D01*
X1002282Y301827D02*
Y313638D01*
X1080996Y157732D02*
X1092807D01*
X1086902Y151827D02*
Y163638D01*
X1079067Y217732D02*
X1094736D01*
X1086902Y209898D02*
Y225567D01*
X985071Y217732D02*
X1000740D01*
X992906Y209898D02*
Y225567D01*
X987000Y157732D02*
X998811D01*
X992906Y151827D02*
Y163638D01*
X30751Y137732D02*
X42562D01*
X36657Y131826D02*
Y143638D01*
X28822Y77732D02*
X44492D01*
X36657Y69897D02*
Y85567D01*
X122818Y77732D02*
X138488D01*
X130653Y69897D02*
Y85567D01*
X124748Y137732D02*
X136558D01*
X130653Y131826D02*
Y143638D01*
X219163Y335232D02*
X229399D01*
X224281Y330114D02*
Y340351D01*
X266037Y72733D02*
X276274D01*
X271156Y67614D02*
Y77851D01*
X706277Y223556D02*
X717301D01*
X711789Y218044D02*
Y229068D01*
X1119164Y72733D02*
X1129400D01*
X1124282Y67614D02*
Y77851D01*
X1194164Y335232D02*
X1204400D01*
X1199282Y330114D02*
Y340351D01*
X4749Y147719D02*
X14985D01*
X9867Y142601D02*
Y152837D01*
X4749Y297730D02*
X14985D01*
X9867Y292612D02*
Y302848D01*
X1408591Y147722D02*
X1418827D01*
X1413709Y142604D02*
Y152840D01*
X1408591Y296421D02*
X1418827D01*
X1413709Y291303D02*
Y301539D01*
X953238Y35232D02*
X960325D01*
X956782Y31689D02*
Y38776D01*
X913238Y35232D02*
X920325D01*
X916782Y31689D02*
Y38776D01*
X949222Y25232D02*
X954341D01*
X951782Y22673D02*
Y27791D01*
X924222Y15232D02*
X929341D01*
X926782Y12673D02*
Y17791D01*
X928908Y35232D02*
X944656D01*
X936782Y27358D02*
Y43106D01*
X803238Y35232D02*
X810325D01*
X806782Y31689D02*
Y38776D01*
X763238Y35232D02*
X770325D01*
X766782Y31689D02*
Y38776D01*
X799223Y25232D02*
X804341D01*
X801782Y22673D02*
Y27791D01*
X774223Y15232D02*
X779341D01*
X776782Y12673D02*
Y17791D01*
X778908Y35232D02*
X794656D01*
X786782Y27358D02*
Y43106D01*
X953240Y335232D02*
X960327D01*
X956783Y331689D02*
Y338775D01*
X913240Y335232D02*
X920327D01*
X916783Y331689D02*
Y338775D01*
X949224Y325232D02*
X954342D01*
X951783Y322673D02*
Y327791D01*
X924224Y315232D02*
X929342D01*
X926783Y312673D02*
Y317791D01*
X928909Y335232D02*
X944657D01*
X936783Y327358D02*
Y343106D01*
X878240Y335232D02*
X885327D01*
X881783Y331689D02*
Y338775D01*
X838240Y335232D02*
X845327D01*
X841783Y331689D02*
Y338775D01*
X874224Y325232D02*
X879342D01*
X876783Y322673D02*
Y327791D01*
X849224Y315232D02*
X854342D01*
X851783Y312673D02*
Y317791D01*
X853909Y335232D02*
X869657D01*
X861783Y327358D02*
Y343106D01*
X821994Y110232D02*
X829081D01*
X825537Y106689D02*
Y113775D01*
X781994Y110232D02*
X789081D01*
X785537Y106689D02*
Y113775D01*
X817978Y100232D02*
X823096D01*
X820537Y97673D02*
Y102791D01*
X792978Y90232D02*
X798096D01*
X795537Y87673D02*
Y92791D01*
X797663Y110232D02*
X813411D01*
X805537Y102358D02*
Y118106D01*
X896994Y110232D02*
X904081D01*
X900537Y106689D02*
Y113775D01*
X856994Y110232D02*
X864081D01*
X860537Y106689D02*
Y113775D01*
X892978Y100232D02*
X898096D01*
X895537Y97673D02*
Y102791D01*
X867978Y90232D02*
X873096D01*
X870537Y87673D02*
Y92791D01*
X872663Y110232D02*
X888411D01*
X880537Y102358D02*
Y118106D01*
X803240Y335232D02*
X810327D01*
X806783Y331689D02*
Y338775D01*
X763240Y335232D02*
X770327D01*
X766783Y331689D02*
Y338775D01*
X799224Y325232D02*
X804342D01*
X801783Y322673D02*
Y327791D01*
X774224Y315232D02*
X779343D01*
X776783Y312673D02*
Y317791D01*
X778909Y335232D02*
X794657D01*
X786783Y327358D02*
Y343106D01*
X128240Y335232D02*
X135327D01*
X131783Y331689D02*
Y338775D01*
X88240Y335232D02*
X95327D01*
X91783Y331689D02*
Y338775D01*
X124224Y325232D02*
X129342D01*
X126783Y322673D02*
Y327791D01*
X99224Y315232D02*
X104342D01*
X101783Y312673D02*
Y317791D01*
X103909Y335232D02*
X119657D01*
X111783Y327358D02*
Y343106D01*
X203240Y335232D02*
X210327D01*
X206783Y331689D02*
Y338775D01*
X163240Y335232D02*
X170327D01*
X166783Y331689D02*
Y338775D01*
X199224Y325232D02*
X204343D01*
X201783Y322673D02*
Y327791D01*
X174224Y315232D02*
X179342D01*
X176783Y312673D02*
Y317791D01*
X178909Y335232D02*
X194657D01*
X186783Y327358D02*
Y343106D01*
X278240Y335232D02*
X285327D01*
X281783Y331689D02*
Y338775D01*
X238240Y335232D02*
X245327D01*
X241783Y331689D02*
Y338775D01*
X274224Y325232D02*
X279343D01*
X276783Y322673D02*
Y327791D01*
X249224Y315232D02*
X254343D01*
X251783Y312673D02*
Y317791D01*
X253909Y335232D02*
X269657D01*
X261783Y327358D02*
Y343106D01*
X353240Y335232D02*
X360327D01*
X356783Y331689D02*
Y338775D01*
X313240Y335232D02*
X320327D01*
X316783Y331689D02*
Y338775D01*
X349224Y325232D02*
X354343D01*
X351783Y322673D02*
Y327791D01*
X324224Y315232D02*
X329343D01*
X326783Y312673D02*
Y317791D01*
X328909Y335232D02*
X344657D01*
X336783Y327358D02*
Y343106D01*
X428240Y335232D02*
X435327D01*
X431783Y331689D02*
Y338775D01*
X388240Y335232D02*
X395327D01*
X391783Y331689D02*
Y338775D01*
X424224Y325232D02*
X429343D01*
X426783Y322673D02*
Y327791D01*
X399224Y315232D02*
X404343D01*
X401783Y312673D02*
Y317791D01*
X403909Y335232D02*
X419657D01*
X411783Y327358D02*
Y343106D01*
X503240Y335232D02*
X510327D01*
X506783Y331689D02*
Y338775D01*
X463240Y335232D02*
X470327D01*
X466783Y331689D02*
Y338775D01*
X499224Y325232D02*
X504343D01*
X501783Y322673D02*
Y327791D01*
X474224Y315232D02*
X479343D01*
X476783Y312673D02*
Y317791D01*
X478909Y335232D02*
X494657D01*
X486783Y327358D02*
Y343106D01*
X578240Y335232D02*
X585327D01*
X581783Y331689D02*
Y338775D01*
X538240Y335232D02*
X545327D01*
X541783Y331689D02*
Y338775D01*
X574224Y325232D02*
X579343D01*
X576783Y322673D02*
Y327791D01*
X549224Y315232D02*
X554343D01*
X551783Y312673D02*
Y317791D01*
X553909Y335232D02*
X569657D01*
X561783Y327358D02*
Y343106D01*
X653240Y335232D02*
X660327D01*
X656783Y331689D02*
Y338775D01*
X613240Y335232D02*
X620327D01*
X616783Y331689D02*
Y338775D01*
X649224Y325232D02*
X654343D01*
X651783Y322673D02*
Y327791D01*
X624224Y315232D02*
X629343D01*
X626783Y312673D02*
Y317791D01*
X628909Y335232D02*
X644657D01*
X636783Y327358D02*
Y343106D01*
X728240Y335232D02*
X735327D01*
X731783Y331689D02*
Y338775D01*
X688240Y335232D02*
X695327D01*
X691783Y331689D02*
Y338775D01*
X724224Y325232D02*
X729343D01*
X726783Y322673D02*
Y327791D01*
X699224Y315232D02*
X704343D01*
X701783Y312673D02*
Y317791D01*
X703909Y335232D02*
X719657D01*
X711783Y327358D02*
Y343106D01*
X915738Y260227D02*
X922825D01*
X919281Y256683D02*
Y263770D01*
X875738Y260227D02*
X882825D01*
X879282Y256683D02*
Y263770D01*
X911722Y250227D02*
X916840D01*
X914281Y247668D02*
Y252786D01*
X886722Y240227D02*
X891840D01*
X889281Y237668D02*
Y242786D01*
X891407Y260227D02*
X907156D01*
X899282Y252353D02*
Y268101D01*
X1084490Y260227D02*
X1091577D01*
X1088033Y256683D02*
Y263770D01*
X1044490Y260227D02*
X1051577D01*
X1048033Y256683D02*
Y263770D01*
X1080474Y250227D02*
X1085592D01*
X1083033Y247668D02*
Y252786D01*
X1055474Y240227D02*
X1060592D01*
X1058033Y237668D02*
Y242786D01*
X1060159Y260227D02*
X1075907D01*
X1068033Y252353D02*
Y268101D01*
X990738Y260227D02*
X997825D01*
X994282Y256683D02*
Y263770D01*
X950738Y260227D02*
X957825D01*
X954282Y256683D02*
Y263770D01*
X986722Y250227D02*
X991841D01*
X989282Y247668D02*
Y252786D01*
X961722Y240227D02*
X966841D01*
X964282Y237668D02*
Y242786D01*
X966407Y260227D02*
X982156D01*
X974282Y252353D02*
Y268101D01*
X250115Y35232D02*
X257202D01*
X253659Y31689D02*
Y38776D01*
X210115Y35232D02*
X217202D01*
X213659Y31689D02*
Y38776D01*
X246100Y25232D02*
X251218D01*
X248659Y22673D02*
Y27791D01*
X221100Y15232D02*
X226218D01*
X223659Y12673D02*
Y17791D01*
X225785Y35232D02*
X241533D01*
X233659Y27358D02*
Y43106D01*
X184493Y185232D02*
X191580D01*
X188037Y181689D02*
Y188776D01*
X144493Y185232D02*
X151580D01*
X148037Y181689D02*
Y188776D01*
X180477Y175232D02*
X185596D01*
X183036Y172673D02*
Y177791D01*
X155477Y165232D02*
X160596D01*
X158036Y162673D02*
Y167791D01*
X160162Y185232D02*
X175910D01*
X168036Y177358D02*
Y193106D01*
X1065738Y335232D02*
X1072825D01*
X1069282Y331689D02*
Y338775D01*
X1025738Y335232D02*
X1032825D01*
X1029282Y331689D02*
Y338775D01*
X1061722Y325232D02*
X1066841D01*
X1064282Y322673D02*
Y327791D01*
X1036722Y315232D02*
X1041841D01*
X1039282Y312673D02*
Y317791D01*
X1041408Y335232D02*
X1057156D01*
X1049282Y327358D02*
Y343106D01*
X521994Y110232D02*
X529080D01*
X525537Y106689D02*
Y113775D01*
X481994Y110232D02*
X489080D01*
X485537Y106689D02*
Y113775D01*
X517978Y100232D02*
X523096D01*
X520537Y97673D02*
Y102791D01*
X492978Y90232D02*
X498096D01*
X495537Y87673D02*
Y92791D01*
X497663Y110232D02*
X513411D01*
X505537Y102358D02*
Y118106D01*
X81368Y185232D02*
X88454D01*
X84911Y181689D02*
Y188776D01*
X41368Y185232D02*
X48454D01*
X44911Y181689D02*
Y188776D01*
X77352Y175232D02*
X82470D01*
X79911Y172673D02*
Y177791D01*
X52352Y165232D02*
X57470D01*
X54911Y162673D02*
Y167791D01*
X57037Y185232D02*
X72785D01*
X64911Y177358D02*
Y193106D01*
X371993Y110232D02*
X379080D01*
X375537Y106689D02*
Y113775D01*
X331993Y110232D02*
X339080D01*
X335537Y106689D02*
Y113775D01*
X367978Y100232D02*
X373096D01*
X370537Y97673D02*
Y102791D01*
X342978Y90232D02*
X348096D01*
X345537Y87673D02*
Y92791D01*
X347663Y110232D02*
X363411D01*
X355537Y102358D02*
Y118106D01*
X62615Y35232D02*
X69702D01*
X66158Y31689D02*
Y38776D01*
X22615Y35232D02*
X29702D01*
X26158Y31689D02*
Y38776D01*
X58600Y25232D02*
X63718D01*
X61159Y22673D02*
Y27791D01*
X33599Y15232D02*
X38717D01*
X36158Y12673D02*
Y17791D01*
X38285Y35232D02*
X54032D01*
X46158Y27358D02*
Y43106D01*
X1103239Y410232D02*
X1110325D01*
X1106782Y406689D02*
Y413775D01*
X1063239Y410232D02*
X1070325D01*
X1066782Y406689D02*
Y413775D01*
X1099223Y400232D02*
X1104341D01*
X1101782Y397673D02*
Y402791D01*
X1074223Y390232D02*
X1079341D01*
X1076782Y387673D02*
Y392791D01*
X1078908Y410232D02*
X1094656D01*
X1086782Y402358D02*
Y418106D01*
X1103238Y35232D02*
X1110325D01*
X1106782Y31689D02*
Y38776D01*
X1063238Y35232D02*
X1070325D01*
X1066782Y31689D02*
Y38776D01*
X1099222Y25232D02*
X1104341D01*
X1101782Y22673D02*
Y27791D01*
X1074222Y15232D02*
X1079341D01*
X1076782Y12673D02*
Y17791D01*
X1078908Y35232D02*
X1094656D01*
X1086782Y27358D02*
Y43106D01*
X334493Y185232D02*
X341580D01*
X338037Y181689D02*
Y188776D01*
X294493Y185232D02*
X301580D01*
X298037Y181689D02*
Y188776D01*
X330478Y175232D02*
X335596D01*
X333037Y172673D02*
Y177791D01*
X305478Y165232D02*
X310596D01*
X308037Y162673D02*
Y167791D01*
X310163Y185232D02*
X325911D01*
X318037Y177358D02*
Y193106D01*
X1253238Y410232D02*
X1260325D01*
X1256782Y406689D02*
Y413775D01*
X1213238Y410232D02*
X1220325D01*
X1216782Y406689D02*
Y413775D01*
X1249223Y400232D02*
X1254341D01*
X1251782Y397673D02*
Y402791D01*
X1224223Y390232D02*
X1229341D01*
X1226782Y387673D02*
Y392791D01*
X1228908Y410232D02*
X1244656D01*
X1236782Y402358D02*
Y418106D01*
X1056362Y185232D02*
X1063449D01*
X1059906Y181689D02*
Y188776D01*
X1016362Y185232D02*
X1023449D01*
X1019906Y181689D02*
Y188776D01*
X1052347Y175232D02*
X1057465D01*
X1054906Y172673D02*
Y177791D01*
X1027347Y165232D02*
X1032465D01*
X1029906Y162673D02*
Y167791D01*
X1032032Y185232D02*
X1047780D01*
X1039906Y177358D02*
Y193106D01*
X53240Y410232D02*
X60327D01*
X56783Y406689D02*
Y413775D01*
X13240Y410232D02*
X20327D01*
X16783Y406689D02*
Y413775D01*
X30012Y430232D02*
X33555D01*
X31783Y428461D02*
Y432004D01*
X40012Y430232D02*
X43555D01*
X41783Y428461D02*
Y432004D01*
X49224Y400232D02*
X54343D01*
X51783Y397673D02*
Y402791D01*
X24224Y390232D02*
X29342D01*
X26783Y387673D02*
Y392791D01*
X28909Y410232D02*
X44657D01*
X36783Y402358D02*
Y418106D01*
X315738Y260227D02*
X322824D01*
X319281Y256683D02*
Y263770D01*
X275738Y260227D02*
X282824D01*
X279281Y256683D02*
Y263770D01*
X311722Y250227D02*
X316840D01*
X314281Y247668D02*
Y252786D01*
X286722Y240227D02*
X291840D01*
X289281Y237668D02*
Y242786D01*
X291407Y260227D02*
X307155D01*
X299281Y252353D02*
Y268101D01*
X128240Y410232D02*
X135327D01*
X131783Y406689D02*
Y413775D01*
X88240Y410232D02*
X95327D01*
X91783Y406689D02*
Y413775D01*
X105012Y430232D02*
X108555D01*
X106783Y428461D02*
Y432004D01*
X115012Y430232D02*
X118555D01*
X116783Y428461D02*
Y432004D01*
X124224Y400232D02*
X129342D01*
X126783Y397673D02*
Y402791D01*
X99224Y390232D02*
X104342D01*
X101783Y387673D02*
Y392791D01*
X103909Y410232D02*
X119657D01*
X111783Y402358D02*
Y418106D01*
X203240Y410232D02*
X210327D01*
X206783Y406689D02*
Y413775D01*
X163240Y410232D02*
X170326D01*
X166783Y406689D02*
Y413775D01*
X180012Y430232D02*
X183555D01*
X181783Y428461D02*
Y432004D01*
X190012Y430232D02*
X193555D01*
X191783Y428461D02*
Y432004D01*
X199224Y400232D02*
X204342D01*
X201783Y397673D02*
Y402791D01*
X174224Y390232D02*
X179342D01*
X176783Y387673D02*
Y392791D01*
X178909Y410232D02*
X194657D01*
X186783Y402358D02*
Y418106D01*
X278240Y410232D02*
X285326D01*
X281783Y406689D02*
Y413775D01*
X238240Y410232D02*
X245326D01*
X241783Y406689D02*
Y413775D01*
X255011Y430232D02*
X258555D01*
X256783Y428461D02*
Y432004D01*
X265011Y430232D02*
X268555D01*
X266783Y428461D02*
Y432004D01*
X274224Y400232D02*
X279342D01*
X276783Y397673D02*
Y402791D01*
X249224Y390232D02*
X254342D01*
X251783Y387673D02*
Y392791D01*
X253909Y410232D02*
X269657D01*
X261783Y402358D02*
Y418106D01*
X353240Y410232D02*
X360326D01*
X356783Y406689D02*
Y413775D01*
X313240Y410232D02*
X320326D01*
X316783Y406689D02*
Y413775D01*
X349224Y400232D02*
X354342D01*
X351783Y397673D02*
Y402791D01*
X324224Y390232D02*
X329342D01*
X326783Y387673D02*
Y392791D01*
X328909Y410232D02*
X344657D01*
X336783Y402358D02*
Y418106D01*
X428240Y410232D02*
X435326D01*
X431783Y406689D02*
Y413775D01*
X388240Y410232D02*
X395326D01*
X391783Y406689D02*
Y413775D01*
X424224Y400232D02*
X429342D01*
X426783Y397673D02*
Y402791D01*
X399224Y390232D02*
X404342D01*
X401783Y387673D02*
Y392791D01*
X403909Y410232D02*
X419657D01*
X411783Y402358D02*
Y418106D01*
X503239Y410232D02*
X510326D01*
X506783Y406689D02*
Y413775D01*
X463239Y410232D02*
X470326D01*
X466783Y406689D02*
Y413775D01*
X499224Y400232D02*
X504342D01*
X501783Y397673D02*
Y402791D01*
X474224Y390232D02*
X479342D01*
X476783Y387673D02*
Y392791D01*
X478909Y410232D02*
X494657D01*
X486783Y402358D02*
Y418106D01*
X578239Y410232D02*
X585326D01*
X581783Y406689D02*
Y413775D01*
X538239Y410232D02*
X545326D01*
X541783Y406689D02*
Y413775D01*
X574224Y400232D02*
X579342D01*
X576783Y397673D02*
Y402791D01*
X549224Y390232D02*
X554342D01*
X551783Y387673D02*
Y392791D01*
X553909Y410232D02*
X569657D01*
X561783Y402358D02*
Y418106D01*
X653239Y410232D02*
X660326D01*
X656782Y406689D02*
Y413775D01*
X613239Y410232D02*
X620326D01*
X616783Y406689D02*
Y413775D01*
X649224Y400232D02*
X654342D01*
X651783Y397673D02*
Y402791D01*
X624224Y390232D02*
X629342D01*
X626783Y387673D02*
Y392791D01*
X628908Y410232D02*
X644657D01*
X636783Y402358D02*
Y418106D01*
X728239Y410232D02*
X735326D01*
X731782Y406689D02*
Y413775D01*
X688239Y410232D02*
X695326D01*
X691782Y406689D02*
Y413775D01*
X724223Y400232D02*
X729342D01*
X726782Y397673D02*
Y402791D01*
X699223Y390232D02*
X704342D01*
X701782Y387673D02*
Y392791D01*
X703908Y410232D02*
X719656D01*
X711782Y402358D02*
Y418106D01*
X803239Y410232D02*
X810326D01*
X806782Y406689D02*
Y413775D01*
X763239Y410232D02*
X770326D01*
X766782Y406689D02*
Y413775D01*
X799223Y400232D02*
X804341D01*
X801782Y397673D02*
Y402791D01*
X774223Y390232D02*
X779341D01*
X776782Y387673D02*
Y392791D01*
X778908Y410232D02*
X794656D01*
X786782Y402358D02*
Y418106D01*
X878239Y410232D02*
X885326D01*
X881782Y406689D02*
Y413775D01*
X838239Y410232D02*
X845325D01*
X841782Y406689D02*
Y413775D01*
X874223Y400232D02*
X879341D01*
X876782Y397673D02*
Y402791D01*
X849223Y390232D02*
X854341D01*
X851782Y387673D02*
Y392791D01*
X853908Y410232D02*
X869656D01*
X861782Y402358D02*
Y418106D01*
X953239Y410232D02*
X960325D01*
X956782Y406689D02*
Y413775D01*
X913239Y410232D02*
X920325D01*
X916782Y406689D02*
Y413775D01*
X949223Y400232D02*
X954341D01*
X951782Y397673D02*
Y402791D01*
X924223Y390232D02*
X929341D01*
X926782Y387673D02*
Y392791D01*
X928908Y410232D02*
X944656D01*
X936782Y402358D02*
Y418106D01*
X878238Y35232D02*
X885325D01*
X881782Y31689D02*
Y38776D01*
X838238Y35232D02*
X845325D01*
X841782Y31689D02*
Y38776D01*
X874222Y25232D02*
X879341D01*
X876782Y22673D02*
Y27791D01*
X849222Y15232D02*
X854341D01*
X851782Y12673D02*
Y17791D01*
X853908Y35232D02*
X869656D01*
X861782Y27358D02*
Y43106D01*
X409493Y185232D02*
X416580D01*
X413037Y181689D02*
Y188776D01*
X369494Y185232D02*
X376580D01*
X373037Y181689D02*
Y188776D01*
X405478Y175232D02*
X410596D01*
X408037Y172673D02*
Y177791D01*
X380478Y165232D02*
X385596D01*
X383037Y162673D02*
Y167791D01*
X385163Y185232D02*
X400911D01*
X393037Y177358D02*
Y193106D01*
X484493Y185232D02*
X491580D01*
X488037Y181689D02*
Y188776D01*
X444493Y185232D02*
X451580D01*
X448037Y181689D02*
Y188776D01*
X480478Y175232D02*
X485596D01*
X483037Y172673D02*
Y177791D01*
X455478Y165232D02*
X460596D01*
X458037Y162673D02*
Y167791D01*
X460163Y185232D02*
X475911D01*
X468037Y177358D02*
Y193106D01*
X1178238Y410232D02*
X1185325D01*
X1181782Y406689D02*
Y413775D01*
X1138239Y410232D02*
X1145325D01*
X1141782Y406689D02*
Y413775D01*
X1174223Y400232D02*
X1179341D01*
X1176782Y397673D02*
Y402791D01*
X1149223Y390232D02*
X1154341D01*
X1151782Y387673D02*
Y392791D01*
X1153908Y410232D02*
X1169656D01*
X1161782Y402358D02*
Y418106D01*
X559494Y185232D02*
X566580D01*
X563037Y181689D02*
Y188776D01*
X519494Y185232D02*
X526580D01*
X523037Y181689D02*
Y188776D01*
X555478Y175232D02*
X560596D01*
X558037Y172673D02*
Y177791D01*
X530478Y165232D02*
X535596D01*
X533037Y162673D02*
Y167791D01*
X535163Y185232D02*
X550911D01*
X543037Y177358D02*
Y193106D01*
X690738Y260227D02*
X697825D01*
X694281Y256683D02*
Y263770D01*
X650738Y260227D02*
X657825D01*
X654281Y256683D02*
Y263770D01*
X686722Y250227D02*
X691840D01*
X689281Y247668D02*
Y252786D01*
X661722Y240227D02*
X666840D01*
X664281Y237668D02*
Y242786D01*
X666407Y260227D02*
X682155D01*
X674281Y252353D02*
Y268101D01*
X634494Y185232D02*
X641580D01*
X638037Y181689D02*
Y188776D01*
X594494Y185232D02*
X601580D01*
X598037Y181689D02*
Y188776D01*
X630478Y175232D02*
X635596D01*
X633037Y172673D02*
Y177791D01*
X605478Y165232D02*
X610596D01*
X608037Y162673D02*
Y167791D01*
X610163Y185232D02*
X625911D01*
X618037Y177358D02*
Y193106D01*
X709494Y185232D02*
X716580D01*
X713037Y181689D02*
Y188776D01*
X669494Y185232D02*
X676580D01*
X673037Y181689D02*
Y188776D01*
X705478Y175232D02*
X710596D01*
X708037Y172673D02*
Y177791D01*
X680478Y165232D02*
X685596D01*
X683037Y162673D02*
Y167791D01*
X685163Y185232D02*
X700911D01*
X693037Y177358D02*
Y193106D01*
X1028238Y35232D02*
X1035325D01*
X1031782Y31689D02*
Y38776D01*
X988238Y35232D02*
X995325D01*
X991782Y31689D02*
Y38776D01*
X1024222Y25232D02*
X1029341D01*
X1026782Y22673D02*
Y27791D01*
X999222Y15232D02*
X1004341D01*
X1001782Y12673D02*
Y17791D01*
X1003908Y35232D02*
X1019656D01*
X1011782Y27358D02*
Y43106D01*
X784494Y185232D02*
X791580D01*
X788037Y181689D02*
Y188776D01*
X744494Y185232D02*
X751580D01*
X748037Y181689D02*
Y188776D01*
X780478Y175232D02*
X785596D01*
X783037Y172673D02*
Y177791D01*
X755478Y165232D02*
X760596D01*
X758037Y162673D02*
Y167791D01*
X760163Y185232D02*
X775911D01*
X768037Y177358D02*
Y193106D01*
X671994Y110232D02*
X679080D01*
X675537Y106689D02*
Y113775D01*
X631994Y110232D02*
X639080D01*
X635537Y106689D02*
Y113775D01*
X667978Y100232D02*
X673096D01*
X670537Y97673D02*
Y102791D01*
X642978Y90232D02*
X648096D01*
X645537Y87673D02*
Y92791D01*
X647663Y110232D02*
X663411D01*
X655537Y102358D02*
Y118106D01*
X596994Y110232D02*
X604080D01*
X600537Y106689D02*
Y113775D01*
X556994Y110232D02*
X564080D01*
X560537Y106689D02*
Y113775D01*
X592978Y100232D02*
X598096D01*
X595537Y97673D02*
Y102791D01*
X567978Y90232D02*
X573096D01*
X570537Y87673D02*
Y92791D01*
X572663Y110232D02*
X588411D01*
X580537Y102358D02*
Y118106D01*
X1253238Y35232D02*
X1260325D01*
X1256782Y31689D02*
Y38776D01*
X1213238Y35232D02*
X1220325D01*
X1216782Y31689D02*
Y38776D01*
X1249223Y25232D02*
X1254341D01*
X1251782Y22673D02*
Y27791D01*
X1224223Y15232D02*
X1229341D01*
X1226782Y12673D02*
Y17791D01*
X1228908Y35232D02*
X1244656D01*
X1236782Y27358D02*
Y43106D01*
X1178238Y110232D02*
X1185325D01*
X1181782Y106689D02*
Y113776D01*
X1138239Y110232D02*
X1145325D01*
X1141782Y106689D02*
Y113776D01*
X1174223Y100232D02*
X1179341D01*
X1176782Y97673D02*
Y102791D01*
X1149223Y90232D02*
X1154341D01*
X1151782Y87673D02*
Y92791D01*
X1153908Y110232D02*
X1169656D01*
X1161782Y102358D02*
Y118106D01*
X1253238Y110232D02*
X1260325D01*
X1256782Y106689D02*
Y113776D01*
X1213238Y110232D02*
X1220325D01*
X1216782Y106689D02*
Y113776D01*
X1249223Y100232D02*
X1254341D01*
X1251782Y97673D02*
Y102791D01*
X1224223Y90232D02*
X1229341D01*
X1226782Y87673D02*
Y92791D01*
X1228908Y110232D02*
X1244656D01*
X1236782Y102358D02*
Y118106D01*
X1328238Y110232D02*
X1335325D01*
X1331782Y106689D02*
Y113776D01*
X1288238Y110232D02*
X1295325D01*
X1291782Y106689D02*
Y113776D01*
X1324222Y100232D02*
X1329341D01*
X1326782Y97673D02*
Y102791D01*
X1299222Y90232D02*
X1304341D01*
X1301782Y87673D02*
Y92791D01*
X1303907Y110232D02*
X1319656D01*
X1311782Y102358D02*
Y118106D01*
X1178238Y185232D02*
X1185325D01*
X1181782Y181689D02*
Y188776D01*
X1138239Y185232D02*
X1145325D01*
X1141782Y181689D02*
Y188776D01*
X1174223Y175232D02*
X1179341D01*
X1176782Y172673D02*
Y177791D01*
X1149223Y165232D02*
X1154341D01*
X1151782Y162673D02*
Y167791D01*
X1153908Y185232D02*
X1169656D01*
X1161782Y177358D02*
Y193106D01*
X1253238Y185232D02*
X1260325D01*
X1256782Y181689D02*
Y188776D01*
X1213238Y185232D02*
X1220325D01*
X1216782Y181689D02*
Y188776D01*
X1249223Y175232D02*
X1254341D01*
X1251782Y172673D02*
Y177791D01*
X1224223Y165232D02*
X1229341D01*
X1226782Y162673D02*
Y167791D01*
X1228908Y185232D02*
X1244656D01*
X1236782Y177358D02*
Y193106D01*
X1328238Y185232D02*
X1335325D01*
X1331782Y181689D02*
Y188776D01*
X1288238Y185232D02*
X1295325D01*
X1291782Y181689D02*
Y188776D01*
X1324222Y175232D02*
X1329341D01*
X1326782Y172673D02*
Y177791D01*
X1299222Y165232D02*
X1304341D01*
X1301782Y162673D02*
Y167791D01*
X1303907Y185232D02*
X1319656D01*
X1311782Y177358D02*
Y193106D01*
X1178238Y260232D02*
X1185325D01*
X1181782Y256689D02*
Y263775D01*
X1138239Y260232D02*
X1145325D01*
X1141782Y256689D02*
Y263775D01*
X1174223Y250232D02*
X1179341D01*
X1176782Y247673D02*
Y252791D01*
X1149223Y240232D02*
X1154341D01*
X1151782Y237673D02*
Y242791D01*
X1153908Y260232D02*
X1169656D01*
X1161782Y252358D02*
Y268106D01*
X1253238Y260232D02*
X1260325D01*
X1256782Y256689D02*
Y263775D01*
X1213238Y260232D02*
X1220325D01*
X1216782Y256689D02*
Y263775D01*
X1249223Y250232D02*
X1254341D01*
X1251782Y247673D02*
Y252791D01*
X1224223Y240232D02*
X1229341D01*
X1226782Y237673D02*
Y242791D01*
X1228908Y260232D02*
X1244656D01*
X1236782Y252358D02*
Y268106D01*
X1328238Y260232D02*
X1335325D01*
X1331782Y256689D02*
Y263775D01*
X1288238Y260232D02*
X1295325D01*
X1291782Y256689D02*
Y263775D01*
X1324222Y250232D02*
X1329341D01*
X1326782Y247673D02*
Y252791D01*
X1299222Y240232D02*
X1304341D01*
X1301782Y237673D02*
Y242791D01*
X1303907Y260232D02*
X1319656D01*
X1311782Y252358D02*
Y268106D01*
X1328238Y335232D02*
X1335325D01*
X1331782Y331689D02*
Y338775D01*
X1288238Y335232D02*
X1295325D01*
X1291782Y331689D02*
Y338775D01*
X1324222Y325232D02*
X1329341D01*
X1326782Y322673D02*
Y327791D01*
X1299222Y315232D02*
X1304341D01*
X1301782Y312673D02*
Y317791D01*
X1303907Y335232D02*
X1319656D01*
X1311782Y327358D02*
Y343106D01*
X1403238Y222613D02*
X1410325D01*
X1406781Y219070D02*
Y226156D01*
X1363238Y222613D02*
X1370325D01*
X1366781Y219070D02*
Y226156D01*
X1399222Y212613D02*
X1404340D01*
X1401781Y210054D02*
Y215172D01*
X1374222Y202613D02*
X1379340D01*
X1376781Y200054D02*
Y205172D01*
X1378907Y222613D02*
X1394655D01*
X1386781Y214739D02*
Y230487D01*
X1403238Y335232D02*
X1410325D01*
X1406782Y331689D02*
Y338775D01*
X1363238Y335232D02*
X1370325D01*
X1366782Y331689D02*
Y338775D01*
X1399222Y325232D02*
X1404341D01*
X1401782Y322673D02*
Y327791D01*
X1374222Y315232D02*
X1379341D01*
X1376782Y312673D02*
Y317791D01*
X1378908Y335232D02*
X1394656D01*
X1386782Y327358D02*
Y343106D01*
X1328238Y35232D02*
X1335325D01*
X1331782Y31689D02*
Y38776D01*
X1288238Y35232D02*
X1295325D01*
X1291782Y31689D02*
Y38776D01*
X1324222Y25232D02*
X1329341D01*
X1326782Y22673D02*
Y27791D01*
X1299222Y15232D02*
X1304341D01*
X1301782Y12673D02*
Y17791D01*
X1303907Y35232D02*
X1319656D01*
X1311782Y27358D02*
Y43106D01*
X1253238Y335232D02*
X1260325D01*
X1256782Y331689D02*
Y338775D01*
X1213238Y335232D02*
X1220325D01*
X1216782Y331689D02*
Y338775D01*
X1249223Y325232D02*
X1254341D01*
X1251782Y322673D02*
Y327791D01*
X1224223Y315232D02*
X1229341D01*
X1226782Y312673D02*
Y317791D01*
X1228908Y335232D02*
X1244656D01*
X1236782Y327358D02*
Y343106D01*
X1403238Y72636D02*
X1410325D01*
X1406781Y69093D02*
Y76179D01*
X1363238Y72636D02*
X1370325D01*
X1366781Y69093D02*
Y76179D01*
X1399222Y62636D02*
X1404340D01*
X1401781Y60077D02*
Y65195D01*
X1374222Y52636D02*
X1379340D01*
X1376781Y50077D02*
Y55195D01*
X1378907Y72636D02*
X1394655D01*
X1386781Y64762D02*
Y80510D01*
X1178238Y335232D02*
X1185325D01*
X1181782Y331689D02*
Y338775D01*
X1138239Y335232D02*
X1145325D01*
X1141782Y331689D02*
Y338775D01*
X1174223Y325232D02*
X1179341D01*
X1176782Y322673D02*
Y327791D01*
X1149223Y315232D02*
X1154341D01*
X1151782Y312673D02*
Y317791D01*
X1153908Y335232D02*
X1169656D01*
X1161782Y327358D02*
Y343106D01*
X765738Y260227D02*
X772825D01*
X769281Y256683D02*
Y263770D01*
X725738Y260227D02*
X732825D01*
X729281Y256683D02*
Y263770D01*
X761722Y250227D02*
X766840D01*
X764281Y247668D02*
Y252786D01*
X736722Y240227D02*
X741840D01*
X739281Y237668D02*
Y242786D01*
X741407Y260227D02*
X757155D01*
X749281Y252353D02*
Y268101D01*
X1403238Y410232D02*
X1410325D01*
X1406781Y406689D02*
Y413775D01*
X1363238Y410232D02*
X1370325D01*
X1366781Y406689D02*
Y413775D01*
X1399222Y400232D02*
X1404340D01*
X1401781Y397673D02*
Y402791D01*
X1374222Y390232D02*
X1379340D01*
X1376781Y387673D02*
Y392791D01*
X1378907Y410232D02*
X1394656D01*
X1386781Y402358D02*
Y418106D01*
X1328238Y410232D02*
X1335325D01*
X1331782Y406689D02*
Y413775D01*
X1288238Y410232D02*
X1295325D01*
X1291782Y406689D02*
Y413775D01*
X1324222Y400232D02*
X1329341D01*
X1326782Y397673D02*
Y402791D01*
X1299222Y390232D02*
X1304341D01*
X1301782Y387673D02*
Y392791D01*
X1303907Y410232D02*
X1319656D01*
X1311782Y402358D02*
Y418106D01*
X840738Y260227D02*
X847825D01*
X844281Y256683D02*
Y263770D01*
X800738Y260227D02*
X807825D01*
X804281Y256683D02*
Y263770D01*
X836722Y250227D02*
X841840D01*
X839281Y247668D02*
Y252786D01*
X811722Y240227D02*
X816840D01*
X814281Y237668D02*
Y242786D01*
X816407Y260227D02*
X832155D01*
X824281Y252353D02*
Y268101D01*
X165737Y260227D02*
X172824D01*
X169281Y256683D02*
Y263770D01*
X125738Y260227D02*
X132824D01*
X129281Y256683D02*
Y263770D01*
X161722Y250227D02*
X166840D01*
X164281Y247668D02*
Y252786D01*
X136722Y240227D02*
X141840D01*
X139281Y237668D02*
Y242786D01*
X141407Y260227D02*
X157155D01*
X149281Y252353D02*
Y268101D01*
X1178238Y35232D02*
X1185325D01*
X1181782Y31689D02*
Y38776D01*
X1138239Y35232D02*
X1145325D01*
X1141782Y31689D02*
Y38776D01*
X1174223Y25232D02*
X1179341D01*
X1176782Y22673D02*
Y27791D01*
X1149223Y15232D02*
X1154341D01*
X1151782Y12673D02*
Y17791D01*
X1153908Y35232D02*
X1169656D01*
X1161782Y27358D02*
Y43106D01*
X390738Y260227D02*
X397824D01*
X394281Y256683D02*
Y263770D01*
X350738Y260227D02*
X357824D01*
X354281Y256683D02*
Y263770D01*
X386722Y250227D02*
X391840D01*
X389281Y247668D02*
Y252786D01*
X361722Y240227D02*
X366840D01*
X364281Y237668D02*
Y242786D01*
X366407Y260227D02*
X382155D01*
X374281Y252353D02*
Y268101D01*
X100110Y110232D02*
X107196D01*
X103653Y106689D02*
Y113775D01*
X60110Y110232D02*
X67196D01*
X63653Y106689D02*
Y113775D01*
X96094Y100232D02*
X101212D01*
X98653Y97673D02*
Y102791D01*
X71094Y90232D02*
X76212D01*
X73653Y87673D02*
Y92791D01*
X75779Y110232D02*
X91527D01*
X83653Y102358D02*
Y118106D01*
X1000110Y110232D02*
X1007197D01*
X1003654Y106689D02*
Y113775D01*
X960110Y110232D02*
X967197D01*
X963654Y106689D02*
Y113775D01*
X996095Y100232D02*
X1001213D01*
X998654Y97673D02*
Y102791D01*
X971095Y90232D02*
X976213D01*
X973654Y87673D02*
Y92791D01*
X975780Y110232D02*
X991528D01*
X983654Y102358D02*
Y118106D01*
X531368Y35232D02*
X538455D01*
X534911Y31689D02*
Y38776D01*
X491368Y35232D02*
X498455D01*
X494911Y31689D02*
Y38776D01*
X527352Y25232D02*
X532471D01*
X529912Y22673D02*
Y27791D01*
X502352Y15232D02*
X507471D01*
X504912Y12673D02*
Y17791D01*
X507037Y35232D02*
X522786D01*
X514912Y27358D02*
Y43106D01*
X259493Y185232D02*
X266580D01*
X263037Y181689D02*
Y188776D01*
X219493Y185232D02*
X226580D01*
X223037Y181689D02*
Y188776D01*
X255477Y175232D02*
X260596D01*
X258037Y172673D02*
Y177791D01*
X230477Y165232D02*
X235596D01*
X233037Y162673D02*
Y167791D01*
X235163Y185232D02*
X250911D01*
X243037Y177358D02*
Y193106D01*
X465738Y260227D02*
X472824D01*
X469281Y256683D02*
Y263770D01*
X425738Y260227D02*
X432824D01*
X429281Y256683D02*
Y263770D01*
X461722Y250227D02*
X466840D01*
X464281Y247668D02*
Y252786D01*
X436722Y240227D02*
X441840D01*
X439281Y237668D02*
Y242786D01*
X441407Y260227D02*
X457155D01*
X449281Y252353D02*
Y268101D01*
X1103238Y110232D02*
X1110325D01*
X1106782Y106689D02*
Y113775D01*
X1063238Y110232D02*
X1070325D01*
X1066782Y106689D02*
Y113775D01*
X1099222Y100232D02*
X1104341D01*
X1101782Y97673D02*
Y102791D01*
X1074222Y90232D02*
X1079341D01*
X1076782Y87673D02*
Y92791D01*
X1078908Y110232D02*
X1094656D01*
X1086782Y102358D02*
Y118106D01*
X615738Y260227D02*
X622824D01*
X619281Y256683D02*
Y263770D01*
X575738Y260227D02*
X582825D01*
X579281Y256683D02*
Y263770D01*
X611722Y250227D02*
X616840D01*
X614281Y247668D02*
Y252786D01*
X586722Y240227D02*
X591840D01*
X589281Y237668D02*
Y242786D01*
X591407Y260227D02*
X607155D01*
X599281Y252353D02*
Y268101D01*
X446993Y110232D02*
X454080D01*
X450537Y106689D02*
Y113775D01*
X406993Y110232D02*
X414080D01*
X410537Y106689D02*
Y113775D01*
X442978Y100232D02*
X448096D01*
X445537Y97673D02*
Y102791D01*
X417978Y90232D02*
X423096D01*
X420537Y87673D02*
Y92791D01*
X422663Y110232D02*
X438411D01*
X430537Y102358D02*
Y118106D01*
X156365Y35232D02*
X163452D01*
X159909Y31689D02*
Y38776D01*
X116365Y35232D02*
X123452D01*
X119909Y31689D02*
Y38776D01*
X152350Y25232D02*
X157468D01*
X154909Y22673D02*
Y27791D01*
X127350Y15232D02*
X132468D01*
X129909Y12673D02*
Y17791D01*
X132035Y35232D02*
X147783D01*
X139909Y27358D02*
Y43106D01*
X240738Y260227D02*
X247824D01*
X244281Y256683D02*
Y263770D01*
X200738Y260227D02*
X207824D01*
X204281Y256683D02*
Y263770D01*
X236722Y250227D02*
X241840D01*
X239281Y247668D02*
Y252786D01*
X211722Y240227D02*
X216840D01*
X214281Y237668D02*
Y242786D01*
X216407Y260227D02*
X232155D01*
X224281Y252353D02*
Y268101D01*
X296993Y110232D02*
X304080D01*
X300537Y106689D02*
Y113775D01*
X256993Y110232D02*
X264080D01*
X260537Y106689D02*
Y113775D01*
X292977Y100232D02*
X298096D01*
X295537Y97673D02*
Y102791D01*
X267977Y90232D02*
X273096D01*
X270537Y87673D02*
Y92791D01*
X272663Y110232D02*
X288411D01*
X280537Y102358D02*
Y118106D01*
X540738Y260227D02*
X547824D01*
X544281Y256683D02*
Y263770D01*
X500738Y260227D02*
X507824D01*
X504281Y256683D02*
Y263770D01*
X536722Y250227D02*
X541840D01*
X539281Y247668D02*
Y252786D01*
X511722Y240227D02*
X516840D01*
X514281Y237668D02*
Y242786D01*
X516407Y260227D02*
X532155D01*
X524281Y252353D02*
Y268101D01*
X221993Y110232D02*
X229080D01*
X225536Y106689D02*
Y113775D01*
X181993Y110232D02*
X189080D01*
X185537Y106689D02*
Y113775D01*
X217977Y100232D02*
X223095D01*
X220536Y97673D02*
Y102791D01*
X192977Y90232D02*
X198096D01*
X195536Y87673D02*
Y92791D01*
X197662Y110232D02*
X213410D01*
X205537Y102358D02*
Y118106D01*
X53240Y335232D02*
X60327D01*
X56783Y331689D02*
Y338775D01*
X13240Y335232D02*
X20327D01*
X16783Y331689D02*
Y338775D01*
X49224Y325232D02*
X54343D01*
X51783Y322673D02*
Y327791D01*
X24224Y315232D02*
X29342D01*
X26783Y312673D02*
Y317791D01*
X28909Y335232D02*
X44657D01*
X36783Y327358D02*
Y343106D01*
X746994Y110232D02*
X754080D01*
X750537Y106689D02*
Y113775D01*
X706994Y110232D02*
X714080D01*
X710537Y106689D02*
Y113775D01*
X742978Y100232D02*
X748096D01*
X745537Y97673D02*
Y102791D01*
X717978Y90232D02*
X723096D01*
X720537Y87673D02*
Y92791D01*
X722663Y110232D02*
X738411D01*
X730537Y102358D02*
Y118106D01*
X71993Y260227D02*
X79079D01*
X75536Y256683D02*
Y263770D01*
X31993Y260227D02*
X39079D01*
X35536Y256683D02*
Y263770D01*
X67977Y250227D02*
X73095D01*
X70536Y247668D02*
Y252786D01*
X42977Y240227D02*
X48095D01*
X45536Y237668D02*
Y242786D01*
X47662Y260227D02*
X63410D01*
X55536Y252353D02*
Y268101D01*
X1028239Y410232D02*
X1035325D01*
X1031782Y406689D02*
Y413775D01*
X988239Y410232D02*
X995325D01*
X991782Y406689D02*
Y413775D01*
X1024223Y400232D02*
X1029341D01*
X1026782Y397673D02*
Y402791D01*
X999223Y390232D02*
X1004341D01*
X1001782Y387673D02*
Y392791D01*
X1003908Y410232D02*
X1019656D01*
X1011782Y402358D02*
Y418106D01*
X859494Y185232D02*
X866581D01*
X863037Y181689D02*
Y188776D01*
X819494Y185232D02*
X826581D01*
X823037Y181689D02*
Y188776D01*
X855478Y175232D02*
X860596D01*
X858037Y172673D02*
Y177791D01*
X830478Y165232D02*
X835596D01*
X833037Y162673D02*
Y167791D01*
X835163Y185232D02*
X850911D01*
X843037Y177358D02*
Y193106D01*
X934494Y185232D02*
X941581D01*
X938037Y181689D02*
Y188776D01*
X894494Y185232D02*
X901581D01*
X898037Y181689D02*
Y188776D01*
X930478Y175232D02*
X935596D01*
X933037Y172673D02*
Y177791D01*
X905478Y165232D02*
X910596D01*
X908037Y162673D02*
Y167791D01*
X910163Y185232D02*
X925911D01*
X918037Y177358D02*
Y193106D01*
X584200Y127950D02*
X585800D01*
X585000Y127150D02*
Y128750D01*
X107564Y271400D02*
X109532D01*
X108548Y270416D02*
Y272384D01*
X102669Y271400D02*
X104637D01*
X103653Y270416D02*
Y272384D01*
X107564Y275333D02*
X109532D01*
X108548Y274349D02*
Y276318D01*
X102669Y275333D02*
X104637D01*
X103653Y274349D02*
Y276318D01*
X107564Y279267D02*
X109532D01*
X108548Y278282D02*
Y280251D01*
X102669Y279267D02*
X104637D01*
X103653Y278282D02*
Y280251D01*
X107564Y283200D02*
X109532D01*
X108548Y282216D02*
Y284184D01*
X102669Y283200D02*
X104637D01*
X103653Y282216D02*
Y284184D01*
X66850Y397950D02*
X68450D01*
X67650Y397150D02*
Y398750D01*
X90343Y269800D02*
X91918D01*
X91131Y269013D02*
Y270587D01*
X90331Y225000D02*
X91931D01*
X91131Y224200D02*
Y225800D01*
X106700Y220800D02*
X108300D01*
X107500Y220000D02*
Y221600D01*
X106700Y245600D02*
X108300D01*
X107500Y244800D02*
Y246400D01*
X156800Y272600D02*
X158400D01*
X157600Y271800D02*
Y273400D01*
X73613Y297800D02*
X75187D01*
X74400Y297013D02*
Y298587D01*
X757237Y197200D02*
X758837D01*
X758037Y196400D02*
Y198000D01*
X176500Y197200D02*
X178100D01*
X177300Y196400D02*
Y198000D01*
X520328Y422050D02*
X521928D01*
X521128Y421250D02*
Y422850D01*
X520328Y392700D02*
X521928D01*
X521128Y391900D02*
Y393500D01*
X307400Y422050D02*
X309000D01*
X308200Y421250D02*
Y422850D01*
X344737Y49472D02*
X346337D01*
X345537Y48673D02*
Y50273D01*
X1189550Y288675D02*
X1191150D01*
X1190350Y287875D02*
Y289475D01*
X1189550Y90232D02*
X1191150D01*
X1190350Y89432D02*
Y91032D01*
X520600Y288675D02*
X522200D01*
X521400Y287875D02*
Y289475D01*
X494737Y369146D02*
X496337D01*
X495537Y368346D02*
Y369946D01*
X529111Y55824D02*
X530712D01*
X529912Y55024D02*
Y56624D01*
X1268800Y400232D02*
X1270400D01*
X1269600Y399432D02*
Y401032D01*
X1225982Y203100D02*
X1227582D01*
X1226782Y202300D02*
Y203900D01*
X1175982Y203100D02*
X1177582D01*
X1176782Y202300D02*
Y203900D01*
X100983Y301200D02*
X102583D01*
X101783Y300400D02*
Y302000D01*
X194300Y298000D02*
X195900D01*
X195100Y297200D02*
Y298800D01*
X383600Y298000D02*
X385200D01*
X384400Y297200D02*
Y298800D01*
X813481Y298000D02*
X815081D01*
X814281Y297200D02*
Y298800D01*
X598400Y285375D02*
X600000D01*
X599200Y284575D02*
Y286175D01*
X838481Y285456D02*
X840081D01*
X839281Y284656D02*
Y286256D01*
X515400Y285475D02*
X517000D01*
X516200Y284675D02*
Y286275D01*
X538338Y282288D02*
X539938D01*
X539138Y281487D02*
Y283087D01*
X547625Y275875D02*
X549225D01*
X548425Y275075D02*
Y276675D01*
X441300Y279075D02*
X442900D01*
X442100Y278275D02*
Y279875D01*
X446868Y282275D02*
X448468D01*
X447668Y281475D02*
Y283075D01*
X486863Y369146D02*
X488463D01*
X487663Y368346D02*
Y369946D01*
X443556Y425250D02*
X445156D01*
X444356Y424450D02*
Y426050D01*
X447493Y425250D02*
X449093D01*
X448293Y424450D02*
Y426050D01*
X451430Y425250D02*
X453030D01*
X452230Y424450D02*
Y426050D01*
X455367Y425250D02*
X456967D01*
X456167Y424450D02*
Y426050D01*
X288481Y390232D02*
X290081D01*
X289281Y389432D02*
Y391032D01*
X1325838Y233050D02*
X1327438D01*
X1326638Y232250D02*
Y233850D01*
X1118050Y240232D02*
X1119650D01*
X1118850Y239432D02*
Y241032D01*
X763481Y232581D02*
X765081D01*
X764281Y231781D02*
Y233381D01*
X763338Y279075D02*
X764938D01*
X764138Y278275D02*
Y279875D01*
X467178Y369146D02*
X468778D01*
X467978Y368346D02*
Y369946D01*
X548644Y121550D02*
X550244D01*
X549444Y120750D02*
Y122350D01*
X475052Y369146D02*
X476652D01*
X475852Y368346D02*
Y369946D01*
X447493Y386454D02*
X449093D01*
X448293Y385654D02*
Y387254D01*
X451430Y386454D02*
X453030D01*
X452230Y385654D02*
Y387254D01*
X443556Y386454D02*
X445156D01*
X444356Y385654D02*
Y387254D01*
X1250982Y124768D02*
X1252582D01*
X1251782Y123968D02*
Y125568D01*
X869737Y137550D02*
X871337D01*
X870537Y136750D02*
Y138350D01*
X782237Y137550D02*
X783837D01*
X783037Y136750D02*
Y138350D01*
X393800Y347000D02*
X395400D01*
X394600Y346200D02*
Y347800D01*
X532200Y341506D02*
X533800D01*
X533000Y340706D02*
Y342306D01*
X154015Y127950D02*
X155615D01*
X154815Y127150D02*
Y128750D01*
X607500Y272600D02*
X609100D01*
X608300Y271800D02*
Y273400D01*
X163481Y232900D02*
X165081D01*
X164281Y232100D02*
Y233700D01*
X232237Y232900D02*
X233837D01*
X233037Y232100D02*
Y233700D01*
X419737Y232900D02*
X421337D01*
X420537Y232100D02*
Y233700D01*
X475983Y232900D02*
X477583D01*
X476783Y232100D02*
Y233700D01*
X1225982Y131150D02*
X1227582D01*
X1226782Y130350D02*
Y131950D01*
X472550Y124750D02*
X474150D01*
X473350Y123950D02*
Y125550D01*
X457237Y127950D02*
X458837D01*
X458037Y127150D02*
Y128750D01*
X271100Y275967D02*
X272700D01*
X271900Y275167D02*
Y276767D01*
X351100Y275967D02*
X352700D01*
X351900Y275167D02*
Y276767D01*
X84500Y366217D02*
X86100D01*
X85300Y365417D02*
Y367017D01*
X69593Y325500D02*
X71193D01*
X70393Y324700D02*
Y326300D01*
X62400Y322300D02*
X64000D01*
X63200Y321500D02*
Y323100D01*
X77700Y379600D02*
X79300D01*
X78500Y378800D02*
Y380400D01*
X97700Y233427D02*
X99300D01*
X98500Y232627D02*
Y234227D01*
X455367Y386454D02*
X456967D01*
X456167Y385654D02*
Y387254D01*
X514422Y425250D02*
X516022D01*
X515222Y424450D02*
Y426050D01*
X514422Y386454D02*
X516022D01*
X515222Y385654D02*
Y387254D01*
X594801Y52636D02*
X596401D01*
X595601Y51836D02*
Y53436D01*
X150683Y356617D02*
X152283D01*
X151483Y355817D02*
Y357417D01*
X613481Y197200D02*
X615081D01*
X614281Y196400D02*
Y198000D01*
X738481Y360900D02*
X740081D01*
X739281Y360100D02*
Y361700D01*
X439619Y386454D02*
X441219D01*
X440419Y385654D02*
Y387254D01*
X350983Y359800D02*
X352583D01*
X351783Y359000D02*
Y360600D01*
X69593Y363017D02*
X71193D01*
X70393Y362217D02*
Y363817D01*
X304800Y353400D02*
X306400D01*
X305600Y352600D02*
Y354200D01*
X200983Y353417D02*
X202583D01*
X201783Y352617D02*
Y354217D01*
X99000Y353400D02*
X100600D01*
X99800Y352600D02*
Y354200D01*
X490800Y390049D02*
X492400D01*
X491600Y389249D02*
Y390849D01*
X526233Y386454D02*
X527833D01*
X527033Y385654D02*
Y387254D01*
X526233Y422050D02*
X527833D01*
X527033Y421250D02*
Y422850D01*
X1138200Y5000D02*
X1139800D01*
X1139000Y4200D02*
Y5800D01*
X1129400Y325232D02*
X1131000D01*
X1130200Y324432D02*
Y326032D01*
X1250838Y306238D02*
X1252438D01*
X1251638Y305438D02*
Y307038D01*
X1300982Y299018D02*
X1302582D01*
X1301782Y298218D02*
Y299818D01*
X1375981Y250232D02*
X1377581D01*
X1376781Y249432D02*
Y251032D01*
X1360800Y318432D02*
X1362400D01*
X1361600Y317632D02*
Y319232D01*
X744737Y22263D02*
X746337D01*
X745537Y21463D02*
Y23063D01*
X569737Y22263D02*
X571337D01*
X570537Y21463D02*
Y23063D01*
X384300Y90232D02*
X385900D01*
X385100Y89432D02*
Y91032D01*
X363481Y391600D02*
X365081D01*
X364281Y390800D02*
Y392400D01*
X794737Y301200D02*
X796337D01*
X795537Y300400D02*
Y302000D01*
X288481Y301200D02*
X290081D01*
X289281Y300400D02*
Y302000D01*
X1349800Y420550D02*
X1351400D01*
X1350600Y419750D02*
Y421350D01*
X1038482Y240227D02*
X1040082D01*
X1039282Y239427D02*
Y241027D01*
X439619Y425250D02*
X441219D01*
X440419Y424450D02*
Y426050D01*
X1205900Y134350D02*
X1207500D01*
X1206700Y133550D02*
Y135150D01*
X1205900Y100232D02*
X1207500D01*
X1206700Y99432D02*
Y101032D01*
X1365000Y281100D02*
X1366600D01*
X1365800Y280300D02*
Y281900D01*
X62400Y292700D02*
X64000D01*
X63200Y291900D02*
Y293500D01*
X62400Y311900D02*
X64000D01*
X63200Y311100D02*
Y312700D01*
X700982Y367300D02*
X702582D01*
X701782Y366500D02*
Y368100D01*
X950840Y364100D02*
X952440D01*
X951640Y363300D02*
Y364900D01*
X1279800Y354500D02*
X1281400D01*
X1280600Y353700D02*
Y355300D01*
X260700Y247127D02*
X262300D01*
X261500Y246327D02*
Y247927D01*
X625983Y240243D02*
X627583D01*
X626783Y239443D02*
Y241043D01*
X625983Y357700D02*
X627583D01*
X626783Y356900D02*
Y358500D01*
X1083413Y351300D02*
X1085013D01*
X1084213Y350500D02*
Y352100D01*
X963482Y140750D02*
X965082D01*
X964282Y139950D02*
Y141550D01*
X963482Y354482D02*
X965082D01*
X964282Y353682D02*
Y355282D01*
X925983Y351300D02*
X927583D01*
X926783Y350500D02*
Y352100D01*
X683300Y348100D02*
X684900D01*
X684100Y347300D02*
Y348900D01*
X889900Y348100D02*
X891500D01*
X890700Y347300D02*
Y348900D01*
X1150982Y351300D02*
X1152582D01*
X1151782Y350500D02*
Y352100D01*
X1225982Y351300D02*
X1227582D01*
X1226782Y350500D02*
Y352100D01*
M02*
