G04 Layer_Color=128*
%FSLAX25Y25*%
%MOIN*%
G70*
G01*
G75*
G04:AMPARAMS|DCode=11|XSize=31.5mil|YSize=62.99mil|CornerRadius=7.87mil|HoleSize=0mil|Usage=FLASHONLY|Rotation=0.000|XOffset=0mil|YOffset=0mil|HoleType=Round|Shape=RoundedRectangle|*
%AMROUNDEDRECTD11*
21,1,0.03150,0.04724,0,0,0.0*
21,1,0.01575,0.06299,0,0,0.0*
1,1,0.01575,0.00787,-0.02362*
1,1,0.01575,-0.00787,-0.02362*
1,1,0.01575,-0.00787,0.02362*
1,1,0.01575,0.00787,0.02362*
%
%ADD11ROUNDEDRECTD11*%
G04:AMPARAMS|DCode=12|XSize=31.5mil|YSize=62.99mil|CornerRadius=7.87mil|HoleSize=0mil|Usage=FLASHONLY|Rotation=90.000|XOffset=0mil|YOffset=0mil|HoleType=Round|Shape=RoundedRectangle|*
%AMROUNDEDRECTD12*
21,1,0.03150,0.04724,0,0,90.0*
21,1,0.01575,0.06299,0,0,90.0*
1,1,0.01575,0.02362,0.00787*
1,1,0.01575,0.02362,-0.00787*
1,1,0.01575,-0.02362,-0.00787*
1,1,0.01575,-0.02362,0.00787*
%
%ADD12ROUNDEDRECTD12*%
%ADD29R,0.07874X0.07874*%
%ADD30R,0.07874X0.08000*%
%ADD31R,0.02047X0.07874*%
%ADD32R,0.03858X0.03661*%
%ADD33R,0.02559X0.04528*%
%ADD34R,0.03661X0.03858*%
%ADD35O,0.06299X0.02362*%
%ADD36R,0.11417X0.15748*%
%ADD37R,0.07087X0.10236*%
%ADD38R,0.02362X0.08661*%
D11*
X826700Y293700D02*
D03*
X821779D02*
D03*
D12*
X252600Y220079D02*
D03*
Y225000D02*
D03*
D29*
X55365Y420835D02*
D03*
Y442426D02*
D03*
D30*
X92735Y420772D02*
D03*
Y442426D02*
D03*
D31*
X77250Y418656D02*
D03*
X74050D02*
D03*
X70850D02*
D03*
X67650D02*
D03*
X80450D02*
D03*
D32*
X87100Y275863D02*
D03*
Y269800D02*
D03*
X117736Y256376D02*
D03*
Y262439D02*
D03*
X95000Y262163D02*
D03*
Y256100D02*
D03*
X87100Y286637D02*
D03*
X87100Y292700D02*
D03*
D33*
X103760Y262439D02*
D03*
X111240D02*
D03*
X107500Y250824D02*
D03*
D34*
X103327Y292700D02*
D03*
X97264Y292700D02*
D03*
X111673Y292700D02*
D03*
X117736Y292700D02*
D03*
D35*
X97264Y269800D02*
D03*
Y274800D02*
D03*
Y279800D02*
D03*
Y284800D02*
D03*
X117736Y269800D02*
D03*
Y274800D02*
D03*
Y279800D02*
D03*
Y284800D02*
D03*
D36*
X107500Y277300D02*
D03*
D37*
X551836Y368548D02*
D03*
X431364D02*
D03*
D38*
X440419Y377800D02*
D03*
X444356D02*
D03*
X448293D02*
D03*
X452230D02*
D03*
X456167D02*
D03*
X460104D02*
D03*
X464041D02*
D03*
X467978D02*
D03*
X471915D02*
D03*
X475852D02*
D03*
X479789D02*
D03*
X483726D02*
D03*
X487663D02*
D03*
X491600D02*
D03*
X495537D02*
D03*
X499474D02*
D03*
X503411D02*
D03*
X507348D02*
D03*
X511285D02*
D03*
X515222D02*
D03*
X519159D02*
D03*
X523096D02*
D03*
X527033D02*
D03*
X530970D02*
D03*
X534907D02*
D03*
X538844D02*
D03*
X542781D02*
D03*
M02*
