G04 Layer_Color=32768*
%FSLAX25Y25*%
%MOIN*%
G70*
G01*
G75*
%ADD10C,0.01000*%
%ADD64C,0.00984*%
%ADD66C,0.00394*%
D10*
X324557Y8463D02*
X331154D01*
X304970D02*
X311568D01*
X304970D02*
Y33149D01*
X301526D02*
X304970D01*
X301526D02*
Y44168D01*
X304970D01*
Y56890D01*
X311568D01*
Y60509D01*
X324557Y56890D02*
Y60509D01*
Y56890D02*
X331154D01*
X514912Y29857D02*
Y40607D01*
X509537Y35232D02*
X520287D01*
X718259Y56890D02*
X724857D01*
X718259D02*
Y60509D01*
X705270Y56890D02*
Y60509D01*
X698673Y56890D02*
X705270D01*
X698673Y44168D02*
Y56890D01*
X695229Y44168D02*
X698673D01*
X695229Y33149D02*
Y44168D01*
Y33149D02*
X698673D01*
Y8463D02*
Y33149D01*
Y8463D02*
X705270D01*
X718259D02*
X724857D01*
X1386781Y217238D02*
Y227988D01*
X1381406Y222613D02*
X1392156D01*
X1365123Y276104D02*
Y282701D01*
X1361505Y276104D02*
X1365123D01*
X1361505Y263115D02*
X1365123D01*
Y256517D02*
Y263115D01*
Y256517D02*
X1377846D01*
Y253073D02*
Y256517D01*
Y253073D02*
X1388865D01*
Y256517D01*
X1413550D01*
Y263115D01*
Y276104D02*
Y282701D01*
Y182108D02*
Y188705D01*
Y162521D02*
Y169119D01*
X1388865Y162521D02*
X1413550D01*
X1388865Y159077D02*
Y162521D01*
X1377846Y159077D02*
X1388865D01*
X1377846D02*
Y162521D01*
X1365123D02*
X1377846D01*
X1365123D02*
Y169119D01*
X1361505D02*
X1365123D01*
X1361505Y182108D02*
X1365123D01*
Y188705D01*
X1386781Y67261D02*
Y78011D01*
X1381406Y72636D02*
X1392156D01*
X1365123Y126126D02*
Y132724D01*
X1361505Y126126D02*
X1365123D01*
X1361505Y113137D02*
X1365123D01*
Y106540D02*
Y113137D01*
Y106540D02*
X1377846D01*
Y103096D02*
Y106540D01*
Y103096D02*
X1388865D01*
Y106540D01*
X1413550D01*
Y113137D01*
Y126126D02*
Y132724D01*
Y32130D02*
Y38728D01*
Y12544D02*
Y19141D01*
X1388865Y12544D02*
X1413550D01*
X1388865Y9100D02*
Y12544D01*
X1377846Y9100D02*
X1388865D01*
X1377846D02*
Y12544D01*
X1365123D02*
X1377846D01*
X1365123D02*
Y19141D01*
X1361505D02*
X1365123D01*
X1361505Y32130D02*
X1365123D01*
Y38728D01*
X1043907Y335232D02*
X1054657D01*
X1049282Y329857D02*
Y340607D01*
X1102772Y356890D02*
X1109369D01*
X1102772D02*
Y360508D01*
X1089783Y356890D02*
Y360508D01*
X1083186Y356890D02*
X1089783D01*
X1083186Y344168D02*
Y356890D01*
X1079742Y344168D02*
X1083186D01*
X1079742Y333149D02*
Y344168D01*
Y333149D02*
X1083186D01*
Y308463D02*
Y333149D01*
Y308463D02*
X1089783D01*
X1102772D02*
X1109369D01*
X1008776D02*
X1015373D01*
X989190D02*
X995787D01*
X989190D02*
Y333149D01*
X985746D02*
X989190D01*
X985746D02*
Y344168D01*
X989190D01*
Y356890D01*
X995787D01*
Y360508D01*
X1008776Y356890D02*
Y360508D01*
Y356890D02*
X1015373D01*
X1034531Y185232D02*
X1045281D01*
X1039906Y179857D02*
Y190607D01*
X1093396Y206890D02*
X1099993D01*
X1093396D02*
Y210509D01*
X1080407Y206890D02*
Y210509D01*
X1073810Y206890D02*
X1080407D01*
X1073810Y194168D02*
Y206890D01*
X1070366Y194168D02*
X1073810D01*
X1070366Y183149D02*
Y194168D01*
Y183149D02*
X1073810D01*
Y158463D02*
Y183149D01*
Y158463D02*
X1080407D01*
X1093396D02*
X1099993D01*
X999400D02*
X1005997D01*
X979814D02*
X986411D01*
X979814D02*
Y183149D01*
X976370D02*
X979814D01*
X976370D02*
Y194168D01*
X979814D01*
Y206890D01*
X986411D01*
Y210509D01*
X999400Y206890D02*
Y210509D01*
Y206890D02*
X1005997D01*
X78278Y110232D02*
X89028D01*
X83653Y104857D02*
Y115607D01*
X23565Y88574D02*
X30163D01*
Y84956D02*
Y88574D01*
X43152Y84956D02*
Y88574D01*
X49749D01*
Y101296D01*
X53193D01*
Y112316D01*
X49749D02*
X53193D01*
X49749D02*
Y137001D01*
X43152D02*
X49749D01*
X23565D02*
X30163D01*
X117561D02*
X124159D01*
X137147D02*
X143745D01*
Y112316D02*
Y137001D01*
Y112316D02*
X147189D01*
Y101296D02*
Y112316D01*
X143745Y101296D02*
X147189D01*
X143745Y88574D02*
Y101296D01*
X137147Y88574D02*
X143745D01*
X137147Y84956D02*
Y88574D01*
X124159Y84956D02*
Y88574D01*
X117561D02*
X124159D01*
D64*
X331154Y44173D02*
Y56890D01*
Y44173D02*
X334598D01*
Y33149D02*
Y44173D01*
X331154Y33149D02*
X334598D01*
X331154Y8469D02*
Y33149D01*
X724857Y8469D02*
Y33149D01*
X728301D01*
Y44173D01*
X724857D02*
X728301D01*
X724857D02*
Y56890D01*
X1388865Y282701D02*
X1413545D01*
X1388865D02*
Y286145D01*
X1377841D02*
X1388865D01*
X1377841Y282701D02*
Y286145D01*
X1365123Y282701D02*
X1377841D01*
X1365123Y188705D02*
X1377841D01*
Y192149D01*
X1388865D01*
Y188705D02*
Y192149D01*
Y188705D02*
X1413545D01*
X1388865Y132724D02*
X1413545D01*
X1388865D02*
Y136168D01*
X1377841D02*
X1388865D01*
X1377841Y132724D02*
Y136168D01*
X1365123Y132724D02*
X1377841D01*
X1365123Y38728D02*
X1377841D01*
Y42172D01*
X1388865D01*
Y38728D02*
Y42172D01*
Y38728D02*
X1413545D01*
X1109369Y308469D02*
Y333149D01*
X1112814D01*
Y344173D01*
X1109369D02*
X1112814D01*
X1109369D02*
Y356890D01*
X1015373Y344173D02*
Y356890D01*
Y344173D02*
X1018818D01*
Y333149D02*
Y344173D01*
X1015373Y333149D02*
X1018818D01*
X1015373Y308469D02*
Y333149D01*
X1099993Y158469D02*
Y183149D01*
X1103438D01*
Y194173D01*
X1099993D02*
X1103438D01*
X1099993D02*
Y206890D01*
X1005997Y194173D02*
Y206890D01*
Y194173D02*
X1009442D01*
Y183149D02*
Y194173D01*
X1005997Y183149D02*
X1009442D01*
X1005997Y158469D02*
Y183149D01*
X23565Y112315D02*
Y136995D01*
X20121Y112315D02*
X23565D01*
X20121Y101291D02*
Y112315D01*
Y101291D02*
X23565D01*
Y88574D02*
Y101291D01*
X117561Y88574D02*
Y101291D01*
X114117D02*
X117561D01*
X114117D02*
Y112315D01*
X117561D01*
Y136995D01*
D66*
X250600Y231299D02*
X250600Y213779D01*
X269891D01*
X250600Y231299D02*
X269891D01*
X269891Y213779D02*
X269891Y231299D01*
X258132Y222539D02*
X262069D01*
X260100Y220571D02*
Y224508D01*
X19188Y192318D02*
X25881D01*
X19188D02*
X19188Y178146D01*
X25881D02*
Y192318D01*
X19188Y178146D02*
X25881D01*
X22534Y184232D02*
Y186232D01*
X21534Y185232D02*
X23534D01*
X31392Y166532D02*
Y203933D01*
X13676Y166532D02*
X31392D01*
X13676D02*
Y203933D01*
X31392D01*
X815479Y291700D02*
X832999Y291700D01*
Y310991D01*
X815479Y291700D02*
Y310991D01*
X832999Y310991D01*
X824239Y303169D02*
X824239Y299232D01*
X822271Y301200D02*
X826208D01*
X425800Y345700D02*
Y382800D01*
Y345700D02*
X557400D01*
Y382800D01*
X425800D02*
X557400D01*
X964341Y7791D02*
Y62791D01*
X909223Y7673D02*
X964341D01*
X909223D02*
Y62673D01*
Y62791D02*
X964341D01*
X814341Y7791D02*
Y62791D01*
X759223Y7673D02*
X814341D01*
X759223D02*
Y62673D01*
Y62791D02*
X814341D01*
X964342Y307791D02*
Y362791D01*
X909224Y307673D02*
X964342D01*
X909224D02*
Y362673D01*
Y362791D02*
X964342D01*
X889342Y307791D02*
Y362791D01*
X834224Y307673D02*
X889342D01*
X834224D02*
Y362673D01*
Y362791D02*
X889342D01*
X833096Y82791D02*
Y137791D01*
X777978Y82673D02*
X833096D01*
X777978D02*
Y137673D01*
Y137791D02*
X833096D01*
X908097Y82791D02*
Y137791D01*
X852978Y82673D02*
X908097D01*
X852978D02*
Y137673D01*
Y137791D02*
X908097D01*
X814342Y307791D02*
Y362791D01*
X759224Y307673D02*
X814342D01*
X759224D02*
Y362673D01*
Y362791D02*
X814342D01*
X139342Y307791D02*
Y362791D01*
X84224Y307673D02*
X139342D01*
X84224D02*
Y362673D01*
Y362791D02*
X139342D01*
X214342Y307791D02*
Y362791D01*
X159224Y307673D02*
X214342D01*
X159224D02*
Y362673D01*
Y362791D02*
X214342D01*
X289342Y307791D02*
Y362791D01*
X234224Y307673D02*
X289342D01*
X234224D02*
Y362673D01*
Y362791D02*
X289342D01*
X364342Y307791D02*
Y362791D01*
X309224Y307673D02*
X364342D01*
X309224D02*
Y362673D01*
Y362791D02*
X364342D01*
X439342Y307791D02*
Y362791D01*
X384224Y307673D02*
X439342D01*
X384224D02*
Y362673D01*
Y362791D02*
X439342D01*
X514342Y307791D02*
Y362791D01*
X459224Y307673D02*
X514342D01*
X459224D02*
Y362673D01*
Y362791D02*
X514342D01*
X589342Y307791D02*
Y362791D01*
X534224Y307673D02*
X589342D01*
X534224D02*
Y362673D01*
Y362791D02*
X589342D01*
X664342Y307791D02*
Y362791D01*
X609224Y307673D02*
X664342D01*
X609224D02*
Y362673D01*
Y362791D02*
X664342D01*
X739342Y307791D02*
Y362791D01*
X684224Y307673D02*
X739342D01*
X684224D02*
Y362673D01*
Y362791D02*
X739342D01*
X926840Y232786D02*
Y287786D01*
X871722Y232668D02*
X926840D01*
X871722D02*
Y287668D01*
Y287786D02*
X926840D01*
X1095592Y232786D02*
Y287786D01*
X1040474Y232668D02*
X1095592D01*
X1040474D02*
Y287668D01*
Y287786D02*
X1095592D01*
X1001841Y232786D02*
Y287786D01*
X946723Y232668D02*
X1001841D01*
X946723D02*
Y287668D01*
Y287786D02*
X1001841D01*
X261218Y7791D02*
Y62791D01*
X206100Y7673D02*
X261218D01*
X206100D02*
Y62673D01*
Y62791D02*
X261218D01*
X195596Y157791D02*
Y212791D01*
X140477Y157673D02*
X195596D01*
X140477D02*
Y212673D01*
Y212791D02*
X195596D01*
X1076841Y307791D02*
Y362791D01*
X1021723Y307673D02*
X1076841D01*
X1021723D02*
Y362673D01*
Y362791D02*
X1076841D01*
X533096Y82791D02*
Y137791D01*
X477978Y82673D02*
X533096D01*
X477978D02*
Y137673D01*
Y137791D02*
X533096D01*
X92470Y157791D02*
Y212791D01*
X37352Y157673D02*
X92470D01*
X37352D02*
Y212673D01*
Y212791D02*
X92470D01*
X383096Y82791D02*
Y137791D01*
X327978Y82673D02*
X383096D01*
X327978D02*
Y137673D01*
Y137791D02*
X383096D01*
X73718Y7791D02*
Y62791D01*
X18599Y7673D02*
X73718D01*
X18599D02*
Y62673D01*
Y62791D02*
X73718D01*
X1114341Y382791D02*
Y437791D01*
X1059223Y382673D02*
X1114341D01*
X1059223D02*
Y437673D01*
Y437791D02*
X1114341D01*
X1114341Y7791D02*
Y62791D01*
X1059223Y7673D02*
X1114341D01*
X1059223D02*
Y62673D01*
Y62791D02*
X1114341D01*
X345596Y157791D02*
Y212791D01*
X290478Y157673D02*
X345596D01*
X290478D02*
Y212673D01*
Y212791D02*
X345596D01*
X1264341Y382791D02*
Y437791D01*
X1209223Y382673D02*
X1264341D01*
X1209223D02*
Y437673D01*
Y437791D02*
X1264341D01*
X1067465Y157791D02*
Y212791D01*
X1012346Y157673D02*
X1067465D01*
X1012346D02*
Y212673D01*
Y212791D02*
X1067465D01*
X64342Y382791D02*
Y437791D01*
X9224Y382673D02*
X64342D01*
X9224D02*
Y437673D01*
Y437791D02*
X64342D01*
X326840Y232786D02*
Y287786D01*
X271722Y232668D02*
X326840D01*
X271722D02*
Y287668D01*
Y287786D02*
X326840D01*
X139342Y382791D02*
Y437791D01*
X84224Y382673D02*
X139342D01*
X84224D02*
Y437673D01*
Y437791D02*
X139342D01*
X214342Y382791D02*
Y437791D01*
X159224Y382673D02*
X214342D01*
X159224D02*
Y437673D01*
Y437791D02*
X214342D01*
X289342Y382791D02*
Y437791D01*
X234224Y382673D02*
X289342D01*
X234224D02*
Y437673D01*
Y437791D02*
X289342D01*
X364342Y382791D02*
Y437791D01*
X309224Y382673D02*
X364342D01*
X309224D02*
Y437673D01*
Y437791D02*
X364342D01*
X439342Y382791D02*
Y437791D01*
X384224Y382673D02*
X439342D01*
X384224D02*
Y437673D01*
Y437791D02*
X439342D01*
X514342Y382791D02*
Y437791D01*
X459224Y382673D02*
X514342D01*
X459224D02*
Y437673D01*
Y437791D02*
X514342D01*
X589342Y382791D02*
Y437791D01*
X534224Y382673D02*
X589342D01*
X534224D02*
Y437673D01*
Y437791D02*
X589342D01*
X664342Y382791D02*
Y437791D01*
X609224Y382673D02*
X664342D01*
X609224D02*
Y437673D01*
Y437791D02*
X664342D01*
X739341Y382791D02*
Y437791D01*
X684223Y382673D02*
X739341D01*
X684223D02*
Y437673D01*
Y437791D02*
X739341D01*
X814341Y382791D02*
Y437791D01*
X759223Y382673D02*
X814341D01*
X759223D02*
Y437673D01*
Y437791D02*
X814341D01*
X889341Y382791D02*
Y437791D01*
X834223Y382673D02*
X889341D01*
X834223D02*
Y437673D01*
Y437791D02*
X889341D01*
X964341Y382791D02*
Y437791D01*
X909223Y382673D02*
X964341D01*
X909223D02*
Y437673D01*
Y437791D02*
X964341D01*
X889341Y7791D02*
Y62791D01*
X834223Y7673D02*
X889341D01*
X834223D02*
Y62673D01*
Y62791D02*
X889341D01*
X420596Y157791D02*
Y212791D01*
X365478Y157673D02*
X420596D01*
X365478D02*
Y212673D01*
Y212791D02*
X420596D01*
X495596Y157791D02*
Y212791D01*
X440478Y157673D02*
X495596D01*
X440478D02*
Y212673D01*
Y212791D02*
X495596D01*
X1189341Y382791D02*
Y437791D01*
X1134223Y382673D02*
X1189341D01*
X1134223D02*
Y437673D01*
Y437791D02*
X1189341D01*
X570596Y157791D02*
Y212791D01*
X515478Y157673D02*
X570596D01*
X515478D02*
Y212673D01*
Y212791D02*
X570596D01*
X701840Y232786D02*
Y287786D01*
X646722Y232668D02*
X701840D01*
X646722D02*
Y287668D01*
Y287786D02*
X701840D01*
X645596Y157791D02*
Y212791D01*
X590478Y157673D02*
X645596D01*
X590478D02*
Y212673D01*
Y212791D02*
X645596D01*
X720596Y157791D02*
Y212791D01*
X665478Y157673D02*
X720596D01*
X665478D02*
Y212673D01*
Y212791D02*
X720596D01*
X1039341Y7791D02*
Y62791D01*
X984223Y7673D02*
X1039341D01*
X984223D02*
Y62673D01*
Y62791D02*
X1039341D01*
X795596Y157791D02*
Y212791D01*
X740478Y157673D02*
X795596D01*
X740478D02*
Y212673D01*
Y212791D02*
X795596D01*
X683096Y82791D02*
Y137791D01*
X627978Y82673D02*
X683096D01*
X627978D02*
Y137673D01*
Y137791D02*
X683096D01*
X608096Y82791D02*
Y137791D01*
X552978Y82673D02*
X608096D01*
X552978D02*
Y137673D01*
Y137791D02*
X608096D01*
X1264341Y7791D02*
Y62791D01*
X1209223Y7673D02*
X1264341D01*
X1209223D02*
Y62673D01*
Y62791D02*
X1264341D01*
X1189341Y82791D02*
Y137791D01*
X1134223Y82673D02*
X1189341D01*
X1134223D02*
Y137673D01*
Y137791D02*
X1189341D01*
X1264341Y82791D02*
Y137791D01*
X1209223Y82673D02*
X1264341D01*
X1209223D02*
Y137673D01*
Y137791D02*
X1264341D01*
X1339341Y82791D02*
Y137791D01*
X1284223Y82673D02*
X1339341D01*
X1284223D02*
Y137673D01*
Y137791D02*
X1339341D01*
X1189341Y157791D02*
Y212791D01*
X1134223Y157673D02*
X1189341D01*
X1134223D02*
Y212673D01*
Y212791D02*
X1189341D01*
X1264341Y157791D02*
Y212791D01*
X1209223Y157673D02*
X1264341D01*
X1209223D02*
Y212673D01*
Y212791D02*
X1264341D01*
X1339341Y157791D02*
Y212791D01*
X1284223Y157673D02*
X1339341D01*
X1284223D02*
Y212673D01*
Y212791D02*
X1339341D01*
X1189341Y232791D02*
Y287791D01*
X1134223Y232673D02*
X1189341D01*
X1134223D02*
Y287673D01*
Y287791D02*
X1189341D01*
X1264341Y232791D02*
Y287791D01*
X1209223Y232673D02*
X1264341D01*
X1209223D02*
Y287673D01*
Y287791D02*
X1264341D01*
X1339341Y232791D02*
Y287791D01*
X1284223Y232673D02*
X1339341D01*
X1284223D02*
Y287673D01*
Y287791D02*
X1339341D01*
Y307791D02*
Y362791D01*
X1284223Y307673D02*
X1339341D01*
X1284223D02*
Y362673D01*
Y362791D02*
X1339341D01*
X1414340Y195172D02*
Y250172D01*
X1359222Y195054D02*
X1414340D01*
X1359222D02*
Y250054D01*
Y250172D02*
X1414340D01*
X1414341Y307791D02*
Y362791D01*
X1359223Y307673D02*
X1414341D01*
X1359223D02*
Y362673D01*
Y362791D02*
X1414341D01*
X1339341Y7791D02*
Y62791D01*
X1284223Y7673D02*
X1339341D01*
X1284223D02*
Y62673D01*
Y62791D02*
X1339341D01*
X1264341Y307791D02*
Y362791D01*
X1209223Y307673D02*
X1264341D01*
X1209223D02*
Y362673D01*
Y362791D02*
X1264341D01*
X1414340Y45195D02*
Y100195D01*
X1359222Y45077D02*
X1414340D01*
X1359222D02*
Y100077D01*
Y100195D02*
X1414340D01*
X1189341Y307791D02*
Y362791D01*
X1134223Y307673D02*
X1189341D01*
X1134223D02*
Y362673D01*
Y362791D02*
X1189341D01*
X776840Y232786D02*
Y287786D01*
X721722Y232668D02*
X776840D01*
X721722D02*
Y287668D01*
Y287786D02*
X776840D01*
X1414340Y382791D02*
Y437791D01*
X1359222Y382673D02*
X1414340D01*
X1359222D02*
Y437673D01*
Y437791D02*
X1414340D01*
X1339341Y382791D02*
Y437791D01*
X1284223Y382673D02*
X1339341D01*
X1284223D02*
Y437673D01*
Y437791D02*
X1339341D01*
X851840Y232786D02*
Y287786D01*
X796722Y232668D02*
X851840D01*
X796722D02*
Y287668D01*
Y287786D02*
X851840D01*
X176840Y232786D02*
Y287786D01*
X121722Y232668D02*
X176840D01*
X121722D02*
Y287668D01*
Y287786D02*
X176840D01*
X1189341Y7791D02*
Y62791D01*
X1134223Y7673D02*
X1189341D01*
X1134223D02*
Y62673D01*
Y62791D02*
X1189341D01*
X401840Y232786D02*
Y287786D01*
X346722Y232668D02*
X401840D01*
X346722D02*
Y287668D01*
Y287786D02*
X401840D01*
X111212Y82791D02*
Y137791D01*
X56094Y82673D02*
X111212D01*
X56094D02*
Y137673D01*
Y137791D02*
X111212D01*
X1011213Y82791D02*
Y137791D01*
X956094Y82673D02*
X1011213D01*
X956094D02*
Y137673D01*
Y137791D02*
X1011213D01*
X542471Y7791D02*
Y62791D01*
X487352Y7673D02*
X542471D01*
X487352D02*
Y62673D01*
Y62791D02*
X542471D01*
X270596Y157791D02*
Y212791D01*
X215477Y157673D02*
X270596D01*
X215477D02*
Y212673D01*
Y212791D02*
X270596D01*
X476840Y232786D02*
Y287786D01*
X421722Y232668D02*
X476840D01*
X421722D02*
Y287668D01*
Y287786D02*
X476840D01*
X1114341Y82791D02*
Y137791D01*
X1059223Y82673D02*
X1114341D01*
X1059223D02*
Y137673D01*
Y137791D02*
X1114341D01*
X626840Y232786D02*
Y287786D01*
X571722Y232668D02*
X626840D01*
X571722D02*
Y287668D01*
Y287786D02*
X626840D01*
X458096Y82791D02*
Y137791D01*
X402978Y82673D02*
X458096D01*
X402978D02*
Y137673D01*
Y137791D02*
X458096D01*
X167468Y7791D02*
Y62791D01*
X112349Y7673D02*
X167468D01*
X112349D02*
Y62673D01*
Y62791D02*
X167468D01*
X251840Y232786D02*
Y287786D01*
X196722Y232668D02*
X251840D01*
X196722D02*
Y287668D01*
Y287786D02*
X251840D01*
X308096Y82791D02*
Y137791D01*
X252977Y82673D02*
X308096D01*
X252977D02*
Y137673D01*
Y137791D02*
X308096D01*
X551840Y232786D02*
Y287786D01*
X496722Y232668D02*
X551840D01*
X496722D02*
Y287668D01*
Y287786D02*
X551840D01*
X233096Y82791D02*
Y137791D01*
X177977Y82673D02*
X233096D01*
X177977D02*
Y137673D01*
Y137791D02*
X233096D01*
X64342Y307791D02*
Y362791D01*
X9224Y307673D02*
X64342D01*
X9224D02*
Y362673D01*
Y362791D02*
X64342D01*
X758096Y82791D02*
Y137791D01*
X702978Y82673D02*
X758096D01*
X702978D02*
Y137673D01*
Y137791D02*
X758096D01*
X83095Y232786D02*
Y287786D01*
X27977Y232668D02*
X83095D01*
X27977D02*
Y287668D01*
Y287786D02*
X83095D01*
X1039341Y382791D02*
Y437791D01*
X984223Y382673D02*
X1039341D01*
X984223D02*
Y437673D01*
Y437791D02*
X1039341D01*
X870596Y157791D02*
Y212791D01*
X815478Y157673D02*
X870596D01*
X815478D02*
Y212673D01*
Y212791D02*
X870596D01*
X945597Y157791D02*
Y212791D01*
X890478Y157673D02*
X945597D01*
X890478D02*
Y212673D01*
Y212791D02*
X945597D01*
M02*
